G04 #@! TF.GenerationSoftware,KiCad,Pcbnew,7.0.8*
G04 #@! TF.CreationDate,2023-11-03T15:57:49-04:00*
G04 #@! TF.ProjectId,GoodBotControlBoard,476f6f64-426f-4744-936f-6e74726f6c42,rev?*
G04 #@! TF.SameCoordinates,Original*
G04 #@! TF.FileFunction,Paste,Top*
G04 #@! TF.FilePolarity,Positive*
%FSLAX46Y46*%
G04 Gerber Fmt 4.6, Leading zero omitted, Abs format (unit mm)*
G04 Created by KiCad (PCBNEW 7.0.8) date 2023-11-03 15:57:49*
%MOMM*%
%LPD*%
G01*
G04 APERTURE LIST*
%ADD10R,12.150000X3.050000*%
%ADD11R,0.800000X0.950000*%
%ADD12R,1.450000X1.000000*%
%ADD13R,4.850000X3.900000*%
%ADD14R,1.000000X1.450000*%
%ADD15R,1.050000X1.800000*%
%ADD16R,0.950000X1.000000*%
%ADD17R,0.990000X0.780000*%
%ADD18R,1.430000X0.940000*%
%ADD19R,1.800000X3.600000*%
%ADD20R,0.960000X1.390000*%
%ADD21R,0.620000X1.820000*%
%ADD22R,1.250000X3.350000*%
%ADD23R,0.350000X0.950000*%
%ADD24R,0.650000X0.350000*%
%ADD25R,0.350000X0.650000*%
%ADD26R,0.950000X0.350000*%
%ADD27R,1.100000X3.400000*%
%ADD28R,2.700000X1.100000*%
%ADD29R,1.730000X2.100000*%
%ADD30R,0.970000X1.520000*%
%ADD31R,1.350000X0.300000*%
%ADD32R,0.780000X0.990000*%
%ADD33R,0.600000X0.620000*%
%ADD34R,0.950000X0.800000*%
%ADD35R,0.900000X0.300000*%
%ADD36R,0.300000X0.900000*%
%ADD37R,2.600000X2.600000*%
%ADD38R,0.300000X1.425000*%
%ADD39R,1.880000X1.680000*%
%ADD40R,1.270000X0.610000*%
%ADD41R,0.710000X0.610000*%
%ADD42R,3.810000X3.910000*%
%ADD43R,0.310000X0.255000*%
%ADD44R,0.580000X1.730000*%
%ADD45R,0.760000X1.500000*%
%ADD46R,1.933000X3.030000*%
%ADD47R,0.950000X0.950000*%
%ADD48R,6.000000X2.350000*%
%ADD49R,3.150000X1.800000*%
%ADD50R,1.150000X1.450000*%
%ADD51R,0.650000X1.050000*%
%ADD52R,0.940000X1.430000*%
%ADD53R,1.050000X0.650000*%
%ADD54R,1.450000X1.150000*%
%ADD55R,0.650000X1.100000*%
%ADD56R,1.150000X1.150000*%
%ADD57R,1.390000X0.960000*%
%ADD58R,1.600000X3.000000*%
%ADD59R,6.700000X6.700000*%
%ADD60R,2.100000X5.600000*%
%ADD61R,0.540000X0.940000*%
%ADD62R,1.475000X0.300000*%
%ADD63R,0.300000X1.475000*%
%ADD64R,1.500000X2.500000*%
%ADD65R,7.000000X7.000000*%
%ADD66R,0.400000X1.350000*%
%ADD67R,2.100000X1.600000*%
%ADD68R,1.900000X1.900000*%
%ADD69R,0.610000X1.270000*%
%ADD70R,0.610000X0.710000*%
%ADD71R,3.910000X3.810000*%
%ADD72R,0.255000X0.310000*%
%ADD73R,1.800000X3.150000*%
G04 APERTURE END LIST*
D10*
G04 #@! TO.C,L1*
X149733000Y-76327000D03*
X149733000Y-61127000D03*
G04 #@! TD*
D11*
G04 #@! TO.C,R58*
X97904400Y-36728400D03*
X99504400Y-36728400D03*
G04 #@! TD*
D12*
G04 #@! TO.C,R57*
X98145600Y-34427200D03*
X98145600Y-32527200D03*
G04 #@! TD*
D13*
G04 #@! TO.C,R56*
X96215200Y-28888800D03*
X96215200Y-24688800D03*
G04 #@! TD*
D14*
G04 #@! TO.C,R55*
X89646800Y-109474000D03*
X87746800Y-109474000D03*
G04 #@! TD*
D15*
G04 #@! TO.C,R32*
X38837200Y-141528800D03*
X35737200Y-141528800D03*
G04 #@! TD*
G04 #@! TO.C,R31*
X58801600Y-141376400D03*
X55701600Y-141376400D03*
G04 #@! TD*
G04 #@! TO.C,R30*
X39751600Y-151841200D03*
X36651600Y-151841200D03*
G04 #@! TD*
G04 #@! TO.C,R29*
X60224000Y-151892000D03*
X57124000Y-151892000D03*
G04 #@! TD*
G04 #@! TO.C,R28*
X37465600Y-161696400D03*
X34365600Y-161696400D03*
G04 #@! TD*
G04 #@! TO.C,R27*
X57910800Y-162001200D03*
X61010800Y-162001200D03*
G04 #@! TD*
G04 #@! TO.C,R25*
X173176000Y-141478000D03*
X176276000Y-141478000D03*
G04 #@! TD*
G04 #@! TO.C,R24*
X192912400Y-141325600D03*
X196012400Y-141325600D03*
G04 #@! TD*
G04 #@! TO.C,R23*
X176276000Y-151587200D03*
X173176000Y-151587200D03*
G04 #@! TD*
G04 #@! TO.C,R22*
X193064800Y-151587200D03*
X196164800Y-151587200D03*
G04 #@! TD*
G04 #@! TO.C,R21*
X173226800Y-161340800D03*
X176326800Y-161340800D03*
G04 #@! TD*
G04 #@! TO.C,R20*
X193597600Y-161594800D03*
X196697600Y-161594800D03*
G04 #@! TD*
G04 #@! TO.C,R18*
X164692400Y-25958800D03*
X167792400Y-25958800D03*
G04 #@! TD*
G04 #@! TO.C,R17*
X193546800Y-26111200D03*
X196646800Y-26111200D03*
G04 #@! TD*
G04 #@! TO.C,R16*
X170103200Y-35661600D03*
X173203200Y-35661600D03*
G04 #@! TD*
G04 #@! TO.C,R15*
X193445200Y-35763200D03*
X196545200Y-35763200D03*
G04 #@! TD*
G04 #@! TO.C,R14*
X164601600Y-51037400D03*
X167701600Y-51037400D03*
G04 #@! TD*
G04 #@! TO.C,R13*
X190397200Y-43992800D03*
X193497200Y-43992800D03*
G04 #@! TD*
G04 #@! TO.C,R11*
X41834400Y-25755600D03*
X38734400Y-25755600D03*
G04 #@! TD*
G04 #@! TO.C,R10*
X53415600Y-43180000D03*
X56515600Y-43180000D03*
G04 #@! TD*
G04 #@! TO.C,R9*
X59563600Y-25603200D03*
X56463600Y-25603200D03*
G04 #@! TD*
G04 #@! TO.C,R8*
X38329200Y-35356800D03*
X35229200Y-35356800D03*
G04 #@! TD*
G04 #@! TO.C,R7*
X59589600Y-35255200D03*
X56489600Y-35255200D03*
G04 #@! TD*
G04 #@! TO.C,R6*
X38430800Y-45110400D03*
X35330800Y-45110400D03*
G04 #@! TD*
D16*
G04 #@! TO.C,C7*
X130911600Y-109880400D03*
X129311600Y-109880400D03*
G04 #@! TD*
D17*
G04 #@! TO.C,C24*
X173234200Y-58234200D03*
X173234200Y-56834200D03*
G04 #@! TD*
D11*
G04 #@! TO.C,R5*
X65277800Y-56804400D03*
X66877800Y-56804400D03*
G04 #@! TD*
D18*
G04 #@! TO.C,C58*
X106895000Y-57841000D03*
X106895000Y-59481000D03*
G04 #@! TD*
D19*
G04 #@! TO.C,C41*
X125895000Y-75241000D03*
X125895000Y-69841000D03*
G04 #@! TD*
D20*
G04 #@! TO.C,C28*
X148735400Y-141264600D03*
X147115400Y-141264600D03*
G04 #@! TD*
D21*
G04 #@! TO.C,C10*
X67715800Y-64404400D03*
X64515800Y-64404400D03*
G04 #@! TD*
D22*
G04 #@! TO.C,R37*
X138295000Y-37441000D03*
X132295000Y-37441000D03*
G04 #@! TD*
D23*
G04 #@! TO.C,IC7*
X132745000Y-44641000D03*
X132095000Y-44641000D03*
X131445000Y-44641000D03*
X130795000Y-44641000D03*
X129795000Y-44641000D03*
X129295000Y-44641000D03*
D24*
X128370000Y-45647000D03*
X128370000Y-46297000D03*
X128370000Y-47427000D03*
X128370000Y-47927000D03*
X128370000Y-48427000D03*
D25*
X129145000Y-49842000D03*
X129645000Y-49842000D03*
X130145000Y-49842000D03*
D23*
X130795000Y-49692000D03*
X131295000Y-49692000D03*
X131795000Y-49692000D03*
X132295000Y-49692000D03*
X132795000Y-49692000D03*
D26*
X133570000Y-48916000D03*
X133570000Y-48416000D03*
X133570000Y-47916000D03*
X133570000Y-47416000D03*
X133570000Y-46916000D03*
X133570000Y-46416000D03*
X133570000Y-45916000D03*
X133570000Y-45416000D03*
D27*
X132245000Y-47117000D03*
D28*
X130045000Y-45967000D03*
D29*
X129560000Y-47867000D03*
D30*
X130910000Y-47577000D03*
D31*
X129645000Y-49367000D03*
G04 #@! TD*
D11*
G04 #@! TO.C,R41*
X139662000Y-58039000D03*
X141262000Y-58039000D03*
G04 #@! TD*
D32*
G04 #@! TO.C,C31*
X155792400Y-133959600D03*
X154392400Y-133959600D03*
G04 #@! TD*
G04 #@! TO.C,C15*
X75578800Y-54356400D03*
X74178800Y-54356400D03*
G04 #@! TD*
D33*
G04 #@! TO.C,C51*
X132684000Y-52841000D03*
X133604000Y-52841000D03*
G04 #@! TD*
D34*
G04 #@! TO.C,R3*
X129280000Y-93195000D03*
X129280000Y-94795000D03*
G04 #@! TD*
D35*
G04 #@! TO.C,IC5*
X153220400Y-138556600D03*
X153220400Y-139056600D03*
X153220400Y-139556600D03*
X153220400Y-140056600D03*
X153220400Y-140556600D03*
X153220400Y-141056600D03*
D36*
X153920400Y-141756600D03*
X154420400Y-141756600D03*
X154920400Y-141756600D03*
X155420400Y-141756600D03*
X155920400Y-141756600D03*
X156420400Y-141756600D03*
D35*
X157120400Y-141056600D03*
X157120400Y-140556600D03*
X157120400Y-140056600D03*
X157120400Y-139556600D03*
X157120400Y-139056600D03*
X157120400Y-138556600D03*
D36*
X156420400Y-137856600D03*
X155920400Y-137856600D03*
X155420400Y-137856600D03*
X154920400Y-137856600D03*
X154420400Y-137856600D03*
X153920400Y-137856600D03*
D37*
X155170400Y-139806600D03*
G04 #@! TD*
D38*
G04 #@! TO.C,IC11*
X118195000Y-52893000D03*
X118695000Y-52893000D03*
X119195000Y-52893000D03*
X119695000Y-52893000D03*
X120195000Y-52893000D03*
X120195000Y-48469000D03*
X119695000Y-48469000D03*
X119195000Y-48469000D03*
X118695000Y-48469000D03*
X118195000Y-48469000D03*
D39*
X119195000Y-50681000D03*
G04 #@! TD*
D11*
G04 #@! TO.C,R39*
X139497000Y-52197000D03*
X141097000Y-52197000D03*
G04 #@! TD*
D35*
G04 #@! TO.C,IC3*
X71932800Y-58358400D03*
X71932800Y-58858400D03*
X71932800Y-59358400D03*
X71932800Y-59858400D03*
X71932800Y-60358400D03*
X71932800Y-60858400D03*
D36*
X72632800Y-61558400D03*
X73132800Y-61558400D03*
X73632800Y-61558400D03*
X74132800Y-61558400D03*
X74632800Y-61558400D03*
X75132800Y-61558400D03*
D35*
X75832800Y-60858400D03*
X75832800Y-60358400D03*
X75832800Y-59858400D03*
X75832800Y-59358400D03*
X75832800Y-58858400D03*
X75832800Y-58358400D03*
D36*
X75132800Y-57658400D03*
X74632800Y-57658400D03*
X74132800Y-57658400D03*
X73632800Y-57658400D03*
X73132800Y-57658400D03*
X72632800Y-57658400D03*
D37*
X73882800Y-59608400D03*
G04 #@! TD*
D20*
G04 #@! TO.C,C12*
X66925800Y-61595400D03*
X65305800Y-61595400D03*
G04 #@! TD*
D40*
G04 #@! TO.C,Q7*
X196219000Y-19486000D03*
X196219000Y-20756000D03*
X196219000Y-22026000D03*
X196219000Y-23296000D03*
D41*
X201839000Y-23296000D03*
X201839000Y-22026000D03*
X201839000Y-20756000D03*
X201839000Y-19486000D03*
D42*
X199579000Y-21391000D03*
D43*
X201329000Y-23474000D03*
X201329000Y-19308000D03*
G04 #@! TD*
D44*
G04 #@! TO.C,IC8*
X94448200Y-58339600D03*
D45*
X92948200Y-58224600D03*
D44*
X91448200Y-58339600D03*
D46*
X92948200Y-60489600D03*
G04 #@! TD*
D47*
G04 #@! TO.C,LED2*
X127080000Y-97495000D03*
X127080000Y-98995000D03*
G04 #@! TD*
D48*
G04 #@! TO.C,C29*
X191583000Y-122006000D03*
X178883000Y-122006000D03*
G04 #@! TD*
D49*
G04 #@! TO.C,C53*
X92917400Y-67703200D03*
X87817400Y-67703200D03*
G04 #@! TD*
D50*
G04 #@! TO.C,C5*
X87345000Y-115050000D03*
X85545000Y-115050000D03*
G04 #@! TD*
D34*
G04 #@! TO.C,R4*
X131680000Y-93195000D03*
X131680000Y-94795000D03*
G04 #@! TD*
D17*
G04 #@! TO.C,C30*
X161950400Y-142025600D03*
X161950400Y-140625600D03*
G04 #@! TD*
D15*
G04 #@! TO.C,R50*
X98562200Y-52158400D03*
X95462200Y-52158400D03*
G04 #@! TD*
D51*
G04 #@! TO.C,S1*
X87495000Y-119650000D03*
X87495000Y-123800000D03*
X85345000Y-119650000D03*
X85345000Y-123800000D03*
G04 #@! TD*
D32*
G04 #@! TO.C,C32*
X160107400Y-138277600D03*
X161507400Y-138277600D03*
G04 #@! TD*
D17*
G04 #@! TO.C,C14*
X80401800Y-62295400D03*
X80401800Y-60895400D03*
G04 #@! TD*
D50*
G04 #@! TO.C,C4*
X101295000Y-113600000D03*
X99495000Y-113600000D03*
G04 #@! TD*
D19*
G04 #@! TO.C,C42*
X134295000Y-75241000D03*
X134295000Y-69841000D03*
G04 #@! TD*
D14*
G04 #@! TO.C,R35*
X151765000Y-57912000D03*
X149865000Y-57912000D03*
G04 #@! TD*
D32*
G04 #@! TO.C,C45*
X150238000Y-52832000D03*
X151638000Y-52832000D03*
G04 #@! TD*
D21*
G04 #@! TO.C,C34*
X74596000Y-149884000D03*
X71396000Y-149884000D03*
G04 #@! TD*
D34*
G04 #@! TO.C,R2*
X127080000Y-93195000D03*
X127080000Y-94795000D03*
G04 #@! TD*
D40*
G04 #@! TO.C,Q4*
X59218000Y-28597000D03*
X59218000Y-29867000D03*
X59218000Y-31137000D03*
X59218000Y-32407000D03*
D41*
X64838000Y-32407000D03*
X64838000Y-31137000D03*
X64838000Y-29867000D03*
X64838000Y-28597000D03*
D42*
X62578000Y-30502000D03*
D43*
X64328000Y-32585000D03*
X64328000Y-28419000D03*
G04 #@! TD*
D14*
G04 #@! TO.C,R43*
X127035600Y-24739600D03*
X125135600Y-24739600D03*
G04 #@! TD*
D11*
G04 #@! TO.C,R46*
X71120000Y-38481000D03*
X69520000Y-38481000D03*
G04 #@! TD*
D52*
G04 #@! TO.C,C60*
X118555000Y-44681000D03*
X120195000Y-44681000D03*
G04 #@! TD*
D35*
G04 #@! TO.C,IC6*
X77512000Y-143599000D03*
X77512000Y-144099000D03*
X77512000Y-144599000D03*
X77512000Y-145099000D03*
X77512000Y-145599000D03*
X77512000Y-146099000D03*
D36*
X78212000Y-146799000D03*
X78712000Y-146799000D03*
X79212000Y-146799000D03*
X79712000Y-146799000D03*
X80212000Y-146799000D03*
X80712000Y-146799000D03*
D35*
X81412000Y-146099000D03*
X81412000Y-145599000D03*
X81412000Y-145099000D03*
X81412000Y-144599000D03*
X81412000Y-144099000D03*
X81412000Y-143599000D03*
D36*
X80712000Y-142899000D03*
X80212000Y-142899000D03*
X79712000Y-142899000D03*
X79212000Y-142899000D03*
X78712000Y-142899000D03*
X78212000Y-142899000D03*
D37*
X79462000Y-144849000D03*
G04 #@! TD*
D48*
G04 #@! TO.C,C37*
X50133000Y-122315000D03*
X37433000Y-122315000D03*
G04 #@! TD*
D11*
G04 #@! TO.C,R33*
X139624000Y-53975000D03*
X141224000Y-53975000D03*
G04 #@! TD*
D18*
G04 #@! TO.C,C8*
X131064000Y-117805200D03*
X131064000Y-119445200D03*
G04 #@! TD*
D53*
G04 #@! TO.C,S2*
X129098400Y-104495600D03*
X133248400Y-104495600D03*
X129098400Y-106645600D03*
X133248400Y-106645600D03*
G04 #@! TD*
D40*
G04 #@! TO.C,Q18*
X171866000Y-154645000D03*
X171866000Y-155915000D03*
X171866000Y-157185000D03*
X171866000Y-158455000D03*
D41*
X177486000Y-158455000D03*
X177486000Y-157185000D03*
X177486000Y-155915000D03*
X177486000Y-154645000D03*
D42*
X175226000Y-156550000D03*
D43*
X176976000Y-158633000D03*
X176976000Y-154467000D03*
G04 #@! TD*
D47*
G04 #@! TO.C,LED1*
X124880000Y-97495000D03*
X124880000Y-98995000D03*
G04 #@! TD*
D54*
G04 #@! TO.C,C6*
X128524000Y-117729000D03*
X128524000Y-119529000D03*
G04 #@! TD*
D18*
G04 #@! TO.C,C44*
X130695000Y-56081000D03*
X130695000Y-54441000D03*
G04 #@! TD*
D55*
G04 #@! TO.C,IC1*
X95285000Y-109900000D03*
X97205000Y-109900000D03*
X96245000Y-107800000D03*
G04 #@! TD*
D56*
G04 #@! TO.C,R53*
X129345000Y-31041000D03*
X129345000Y-33391000D03*
G04 #@! TD*
D14*
G04 #@! TO.C,R34*
X141412000Y-56007000D03*
X139512000Y-56007000D03*
G04 #@! TD*
D12*
G04 #@! TO.C,R38*
X138495000Y-44941000D03*
X138495000Y-43041000D03*
G04 #@! TD*
D40*
G04 #@! TO.C,Q5*
X59345000Y-38122000D03*
X59345000Y-39392000D03*
X59345000Y-40662000D03*
X59345000Y-41932000D03*
D41*
X64965000Y-41932000D03*
X64965000Y-40662000D03*
X64965000Y-39392000D03*
X64965000Y-38122000D03*
D42*
X62705000Y-40027000D03*
D43*
X64455000Y-42110000D03*
X64455000Y-37944000D03*
G04 #@! TD*
D18*
G04 #@! TO.C,C55*
X116895000Y-59721000D03*
X116895000Y-58081000D03*
G04 #@! TD*
D32*
G04 #@! TO.C,C46*
X133195000Y-40441000D03*
X134595000Y-40441000D03*
G04 #@! TD*
D40*
G04 #@! TO.C,Q23*
X58993000Y-154975000D03*
X58993000Y-156245000D03*
X58993000Y-157515000D03*
X58993000Y-158785000D03*
D41*
X64613000Y-158785000D03*
X64613000Y-157515000D03*
X64613000Y-156245000D03*
X64613000Y-154975000D03*
D42*
X62353000Y-156880000D03*
D43*
X64103000Y-158963000D03*
X64103000Y-154797000D03*
G04 #@! TD*
D17*
G04 #@! TO.C,C16*
X80339800Y-58804400D03*
X80339800Y-57404400D03*
G04 #@! TD*
D57*
G04 #@! TO.C,C20*
X163437200Y-55945200D03*
X163437200Y-54325200D03*
G04 #@! TD*
D40*
G04 #@! TO.C,Q21*
X35742000Y-145069000D03*
X35742000Y-146339000D03*
X35742000Y-147609000D03*
X35742000Y-148879000D03*
D41*
X41362000Y-148879000D03*
X41362000Y-147609000D03*
X41362000Y-146339000D03*
X41362000Y-145069000D03*
D42*
X39102000Y-146974000D03*
D43*
X40852000Y-149057000D03*
X40852000Y-144891000D03*
G04 #@! TD*
D17*
G04 #@! TO.C,C1*
X100095000Y-121800000D03*
X100095000Y-123200000D03*
G04 #@! TD*
D58*
G04 #@! TO.C,D4*
X84998000Y-38685000D03*
D59*
X82712000Y-46535000D03*
D58*
X80426000Y-38685000D03*
G04 #@! TD*
D40*
G04 #@! TO.C,Q2*
X35671000Y-19063000D03*
X35671000Y-20333000D03*
X35671000Y-21603000D03*
X35671000Y-22873000D03*
D41*
X41291000Y-22873000D03*
X41291000Y-21603000D03*
X41291000Y-20333000D03*
X41291000Y-19063000D03*
D42*
X39031000Y-20968000D03*
D43*
X40781000Y-23051000D03*
X40781000Y-18885000D03*
G04 #@! TD*
D60*
G04 #@! TO.C,Y1*
X94495000Y-115900000D03*
X94495000Y-125400000D03*
G04 #@! TD*
D52*
G04 #@! TO.C,C3*
X101135000Y-116600000D03*
X99495000Y-116600000D03*
G04 #@! TD*
G04 #@! TO.C,C54*
X89305000Y-55155600D03*
X87665000Y-55155600D03*
G04 #@! TD*
D17*
G04 #@! TO.C,C40*
X85665000Y-143726000D03*
X85665000Y-142326000D03*
G04 #@! TD*
D40*
G04 #@! TO.C,Q20*
X35742000Y-134528000D03*
X35742000Y-135798000D03*
X35742000Y-137068000D03*
X35742000Y-138338000D03*
D41*
X41362000Y-138338000D03*
X41362000Y-137068000D03*
X41362000Y-135798000D03*
X41362000Y-134528000D03*
D42*
X39102000Y-136433000D03*
D43*
X40852000Y-138516000D03*
X40852000Y-134350000D03*
G04 #@! TD*
D52*
G04 #@! TO.C,C57*
X91460600Y-46824400D03*
X93100600Y-46824400D03*
G04 #@! TD*
D32*
G04 #@! TO.C,C9*
X67007800Y-59204400D03*
X65607800Y-59204400D03*
G04 #@! TD*
D61*
G04 #@! TO.C,C61*
X134095000Y-33241000D03*
X132495000Y-33241000D03*
G04 #@! TD*
D35*
G04 #@! TO.C,IC4*
X166147200Y-58135200D03*
X166147200Y-58635200D03*
X166147200Y-59135200D03*
X166147200Y-59635200D03*
X166147200Y-60135200D03*
X166147200Y-60635200D03*
D36*
X166847200Y-61335200D03*
X167347200Y-61335200D03*
X167847200Y-61335200D03*
X168347200Y-61335200D03*
X168847200Y-61335200D03*
X169347200Y-61335200D03*
D35*
X170047200Y-60635200D03*
X170047200Y-60135200D03*
X170047200Y-59635200D03*
X170047200Y-59135200D03*
X170047200Y-58635200D03*
X170047200Y-58135200D03*
D36*
X169347200Y-57435200D03*
X168847200Y-57435200D03*
X168347200Y-57435200D03*
X167847200Y-57435200D03*
X167347200Y-57435200D03*
X166847200Y-57435200D03*
D37*
X168097200Y-59385200D03*
G04 #@! TD*
D16*
G04 #@! TO.C,C50*
X144695000Y-50041000D03*
X146295000Y-50041000D03*
G04 #@! TD*
D56*
G04 #@! TO.C,R47*
X99755400Y-62992000D03*
X99755400Y-60642000D03*
G04 #@! TD*
D17*
G04 #@! TO.C,C23*
X168666200Y-54393200D03*
X168666200Y-52993200D03*
G04 #@! TD*
D32*
G04 #@! TO.C,C39*
X80396000Y-139535000D03*
X78996000Y-139535000D03*
G04 #@! TD*
D11*
G04 #@! TO.C,R26*
X72508000Y-143788000D03*
X74108000Y-143788000D03*
G04 #@! TD*
D12*
G04 #@! TO.C,R48*
X99653800Y-57832800D03*
X99653800Y-55932800D03*
G04 #@! TD*
D11*
G04 #@! TO.C,R44*
X130235600Y-24739600D03*
X131835600Y-24739600D03*
G04 #@! TD*
D40*
G04 #@! TO.C,Q22*
X58995000Y-145120000D03*
X58995000Y-146390000D03*
X58995000Y-147660000D03*
X58995000Y-148930000D03*
D41*
X64615000Y-148930000D03*
X64615000Y-147660000D03*
X64615000Y-146390000D03*
X64615000Y-145120000D03*
D42*
X62355000Y-147025000D03*
D43*
X64105000Y-149108000D03*
X64105000Y-144942000D03*
G04 #@! TD*
D17*
G04 #@! TO.C,C38*
X85665000Y-147725000D03*
X85665000Y-146325000D03*
G04 #@! TD*
D40*
G04 #@! TO.C,Q17*
X195550000Y-154762000D03*
X195550000Y-156032000D03*
X195550000Y-157302000D03*
X195550000Y-158572000D03*
D41*
X201170000Y-158572000D03*
X201170000Y-157302000D03*
X201170000Y-156032000D03*
X201170000Y-154762000D03*
D42*
X198910000Y-156667000D03*
D43*
X200660000Y-158750000D03*
X200660000Y-154584000D03*
G04 #@! TD*
D17*
G04 #@! TO.C,C22*
X173234200Y-61601200D03*
X173234200Y-60201200D03*
G04 #@! TD*
D40*
G04 #@! TO.C,Q1*
X59250000Y-18945000D03*
X59250000Y-20215000D03*
X59250000Y-21485000D03*
X59250000Y-22755000D03*
D41*
X64870000Y-22755000D03*
X64870000Y-21485000D03*
X64870000Y-20215000D03*
X64870000Y-18945000D03*
D42*
X62610000Y-20850000D03*
D43*
X64360000Y-22933000D03*
X64360000Y-18767000D03*
G04 #@! TD*
D11*
G04 #@! TO.C,R19*
X146960400Y-136880600D03*
X148560400Y-136880600D03*
G04 #@! TD*
D32*
G04 #@! TO.C,C17*
X162647200Y-60135200D03*
X161247200Y-60135200D03*
G04 #@! TD*
D48*
G04 #@! TO.C,C21*
X192060000Y-73842000D03*
X179360000Y-73842000D03*
G04 #@! TD*
D61*
G04 #@! TO.C,C59*
X97050200Y-49974000D03*
X95450200Y-49974000D03*
G04 #@! TD*
D40*
G04 #@! TO.C,Q11*
X196505000Y-39044000D03*
X196505000Y-40314000D03*
X196505000Y-41584000D03*
X196505000Y-42854000D03*
D41*
X202125000Y-42854000D03*
X202125000Y-41584000D03*
X202125000Y-40314000D03*
X202125000Y-39044000D03*
D42*
X199865000Y-40949000D03*
D43*
X201615000Y-43032000D03*
X201615000Y-38866000D03*
G04 #@! TD*
D47*
G04 #@! TO.C,LED4*
X131680000Y-97495000D03*
X131680000Y-98995000D03*
G04 #@! TD*
D48*
G04 #@! TO.C,C19*
X192060000Y-55935000D03*
X179360000Y-55935000D03*
G04 #@! TD*
D62*
G04 #@! TO.C,IC2*
X106807000Y-114738000D03*
X106807000Y-115238000D03*
X106807000Y-115738000D03*
X106807000Y-116238000D03*
X106807000Y-116738000D03*
X106807000Y-117238000D03*
X106807000Y-117738000D03*
X106807000Y-118238000D03*
X106807000Y-118738000D03*
X106807000Y-119238000D03*
X106807000Y-119738000D03*
X106807000Y-120238000D03*
X106807000Y-120738000D03*
X106807000Y-121238000D03*
X106807000Y-121738000D03*
X106807000Y-122238000D03*
X106807000Y-122738000D03*
X106807000Y-123238000D03*
X106807000Y-123738000D03*
X106807000Y-124238000D03*
X106807000Y-124738000D03*
X106807000Y-125238000D03*
X106807000Y-125738000D03*
X106807000Y-126238000D03*
X106807000Y-126738000D03*
D63*
X108545000Y-128476000D03*
X109045000Y-128476000D03*
X109545000Y-128476000D03*
X110045000Y-128476000D03*
X110545000Y-128476000D03*
X111045000Y-128476000D03*
X111545000Y-128476000D03*
X112045000Y-128476000D03*
X112545000Y-128476000D03*
X113045000Y-128476000D03*
X113545000Y-128476000D03*
X114045000Y-128476000D03*
X114545000Y-128476000D03*
X115045000Y-128476000D03*
X115545000Y-128476000D03*
X116045000Y-128476000D03*
X116545000Y-128476000D03*
X117045000Y-128476000D03*
X117545000Y-128476000D03*
X118045000Y-128476000D03*
X118545000Y-128476000D03*
X119045000Y-128476000D03*
X119545000Y-128476000D03*
X120045000Y-128476000D03*
X120545000Y-128476000D03*
D62*
X122283000Y-126738000D03*
X122283000Y-126238000D03*
X122283000Y-125738000D03*
X122283000Y-125238000D03*
X122283000Y-124738000D03*
X122283000Y-124238000D03*
X122283000Y-123738000D03*
X122283000Y-123238000D03*
X122283000Y-122738000D03*
X122283000Y-122238000D03*
X122283000Y-121738000D03*
X122283000Y-121238000D03*
X122283000Y-120738000D03*
X122283000Y-120238000D03*
X122283000Y-119738000D03*
X122283000Y-119238000D03*
X122283000Y-118738000D03*
X122283000Y-118238000D03*
X122283000Y-117738000D03*
X122283000Y-117238000D03*
X122283000Y-116738000D03*
X122283000Y-116238000D03*
X122283000Y-115738000D03*
X122283000Y-115238000D03*
X122283000Y-114738000D03*
D63*
X120545000Y-113000000D03*
X120045000Y-113000000D03*
X119545000Y-113000000D03*
X119045000Y-113000000D03*
X118545000Y-113000000D03*
X118045000Y-113000000D03*
X117545000Y-113000000D03*
X117045000Y-113000000D03*
X116545000Y-113000000D03*
X116045000Y-113000000D03*
X115545000Y-113000000D03*
X115045000Y-113000000D03*
X114545000Y-113000000D03*
X114045000Y-113000000D03*
X113545000Y-113000000D03*
X113045000Y-113000000D03*
X112545000Y-113000000D03*
X112045000Y-113000000D03*
X111545000Y-113000000D03*
X111045000Y-113000000D03*
X110545000Y-113000000D03*
X110045000Y-113000000D03*
X109545000Y-113000000D03*
X109045000Y-113000000D03*
X108545000Y-113000000D03*
G04 #@! TD*
D64*
G04 #@! TO.C,D1*
X170331200Y-74210200D03*
D65*
X168031200Y-81060200D03*
D64*
X165731200Y-74210200D03*
G04 #@! TD*
D14*
G04 #@! TO.C,R52*
X122845000Y-56041000D03*
X120945000Y-56041000D03*
G04 #@! TD*
D15*
G04 #@! TO.C,R54*
X136395000Y-33241000D03*
X139495000Y-33241000D03*
G04 #@! TD*
D14*
G04 #@! TO.C,R36*
X138795000Y-40841000D03*
X136895000Y-40841000D03*
G04 #@! TD*
D40*
G04 #@! TO.C,Q6*
X35798000Y-38240000D03*
X35798000Y-39510000D03*
X35798000Y-40780000D03*
X35798000Y-42050000D03*
D41*
X41418000Y-42050000D03*
X41418000Y-40780000D03*
X41418000Y-39510000D03*
X41418000Y-38240000D03*
D42*
X39158000Y-40145000D03*
D43*
X40908000Y-42228000D03*
X40908000Y-38062000D03*
G04 #@! TD*
D11*
G04 #@! TO.C,R12*
X161174200Y-57976200D03*
X162774200Y-57976200D03*
G04 #@! TD*
D50*
G04 #@! TO.C,C49*
X135495000Y-55241000D03*
X133695000Y-55241000D03*
G04 #@! TD*
D34*
G04 #@! TO.C,R1*
X124880000Y-93195000D03*
X124880000Y-94795000D03*
G04 #@! TD*
D58*
G04 #@! TO.C,D3*
X111160000Y-38050000D03*
D59*
X108874000Y-45900000D03*
D58*
X106588000Y-38050000D03*
G04 #@! TD*
D52*
G04 #@! TO.C,C52*
X88688200Y-60692800D03*
X87048200Y-60692800D03*
G04 #@! TD*
D40*
G04 #@! TO.C,Q8*
X170565000Y-19359000D03*
X170565000Y-20629000D03*
X170565000Y-21899000D03*
X170565000Y-23169000D03*
D41*
X176185000Y-23169000D03*
X176185000Y-21899000D03*
X176185000Y-20629000D03*
X176185000Y-19359000D03*
D42*
X173925000Y-21264000D03*
D43*
X175675000Y-23347000D03*
X175675000Y-19181000D03*
G04 #@! TD*
D40*
G04 #@! TO.C,Q9*
X170565000Y-28884000D03*
X170565000Y-30154000D03*
X170565000Y-31424000D03*
X170565000Y-32694000D03*
D41*
X176185000Y-32694000D03*
X176185000Y-31424000D03*
X176185000Y-30154000D03*
X176185000Y-28884000D03*
D42*
X173925000Y-30789000D03*
D43*
X175675000Y-32872000D03*
X175675000Y-28706000D03*
G04 #@! TD*
D16*
G04 #@! TO.C,C47*
X151765000Y-55112000D03*
X150165000Y-55112000D03*
G04 #@! TD*
D66*
G04 #@! TO.C,J4*
X128785000Y-163058000D03*
X129435000Y-163058000D03*
X130085000Y-163058000D03*
X130735000Y-163058000D03*
X131385000Y-163058000D03*
D67*
X126985000Y-163183000D03*
X133185000Y-163183000D03*
D68*
X128885000Y-165608000D03*
X131285000Y-165608000D03*
X126285000Y-165608000D03*
X133885000Y-165608000D03*
G04 #@! TD*
D48*
G04 #@! TO.C,C35*
X50133000Y-103138000D03*
X37433000Y-103138000D03*
G04 #@! TD*
D21*
G04 #@! TO.C,C26*
X149474400Y-143423600D03*
X146274400Y-143423600D03*
G04 #@! TD*
D48*
G04 #@! TO.C,C13*
X50095000Y-78275000D03*
X37395000Y-78275000D03*
G04 #@! TD*
G04 #@! TO.C,C11*
X50295000Y-58650000D03*
X37595000Y-58650000D03*
G04 #@! TD*
D44*
G04 #@! TO.C,IC10*
X113115800Y-57277800D03*
D45*
X111615800Y-57162800D03*
D44*
X110115800Y-57277800D03*
D46*
X111615800Y-59427800D03*
G04 #@! TD*
D21*
G04 #@! TO.C,C18*
X163847200Y-62735200D03*
X160647200Y-62735200D03*
G04 #@! TD*
D20*
G04 #@! TO.C,C36*
X73727000Y-147852000D03*
X72107000Y-147852000D03*
G04 #@! TD*
D56*
G04 #@! TO.C,R51*
X122095000Y-61441000D03*
X122095000Y-59091000D03*
G04 #@! TD*
D40*
G04 #@! TO.C,Q14*
X171674000Y-134442000D03*
X171674000Y-135712000D03*
X171674000Y-136982000D03*
X171674000Y-138252000D03*
D41*
X177294000Y-138252000D03*
X177294000Y-136982000D03*
X177294000Y-135712000D03*
X177294000Y-134442000D03*
D42*
X175034000Y-136347000D03*
D43*
X176784000Y-138430000D03*
X176784000Y-134264000D03*
G04 #@! TD*
D11*
G04 #@! TO.C,R42*
X139459000Y-50292000D03*
X141059000Y-50292000D03*
G04 #@! TD*
D40*
G04 #@! TO.C,Q19*
X58898000Y-134528000D03*
X58898000Y-135798000D03*
X58898000Y-137068000D03*
X58898000Y-138338000D03*
D41*
X64518000Y-138338000D03*
X64518000Y-137068000D03*
X64518000Y-135798000D03*
X64518000Y-134528000D03*
D42*
X62258000Y-136433000D03*
D43*
X64008000Y-138516000D03*
X64008000Y-134350000D03*
G04 #@! TD*
D17*
G04 #@! TO.C,C33*
X69917000Y-144107000D03*
X69917000Y-142707000D03*
G04 #@! TD*
D32*
G04 #@! TO.C,C25*
X148433400Y-139486600D03*
X147033400Y-139486600D03*
G04 #@! TD*
D49*
G04 #@! TO.C,C56*
X109595000Y-66681000D03*
X114695000Y-66681000D03*
G04 #@! TD*
D40*
G04 #@! TO.C,Q13*
X195818000Y-134493000D03*
X195818000Y-135763000D03*
X195818000Y-137033000D03*
X195818000Y-138303000D03*
D41*
X201438000Y-138303000D03*
X201438000Y-137033000D03*
X201438000Y-135763000D03*
X201438000Y-134493000D03*
D42*
X199178000Y-136398000D03*
D43*
X200928000Y-138481000D03*
X200928000Y-134315000D03*
G04 #@! TD*
D17*
G04 #@! TO.C,C43*
X139495000Y-73241000D03*
X139495000Y-71841000D03*
G04 #@! TD*
D14*
G04 #@! TO.C,R45*
X72995000Y-38481000D03*
X74895000Y-38481000D03*
G04 #@! TD*
D47*
G04 #@! TO.C,LED3*
X129480000Y-97495000D03*
X129480000Y-98995000D03*
G04 #@! TD*
D40*
G04 #@! TO.C,Q26*
X121200200Y-41681000D03*
X121200200Y-40411000D03*
X121200200Y-39141000D03*
X121200200Y-37871000D03*
D41*
X115580200Y-37871000D03*
X115580200Y-39141000D03*
X115580200Y-40411000D03*
X115580200Y-41681000D03*
D42*
X117840200Y-39776000D03*
D43*
X116090200Y-37693000D03*
X116090200Y-41859000D03*
G04 #@! TD*
D69*
G04 #@! TO.C,Q25*
X94107000Y-37534000D03*
X92837000Y-37534000D03*
X91567000Y-37534000D03*
X90297000Y-37534000D03*
D70*
X90297000Y-43154000D03*
X91567000Y-43154000D03*
X92837000Y-43154000D03*
X94107000Y-43154000D03*
D71*
X92202000Y-40894000D03*
D72*
X90119000Y-42644000D03*
X94285000Y-42644000D03*
G04 #@! TD*
D40*
G04 #@! TO.C,Q12*
X170565000Y-39171000D03*
X170565000Y-40441000D03*
X170565000Y-41711000D03*
X170565000Y-42981000D03*
D41*
X176185000Y-42981000D03*
X176185000Y-41711000D03*
X176185000Y-40441000D03*
X176185000Y-39171000D03*
D42*
X173925000Y-41076000D03*
D43*
X175675000Y-43159000D03*
X175675000Y-38993000D03*
G04 #@! TD*
D56*
G04 #@! TO.C,R49*
X96084600Y-46722800D03*
X98434600Y-46722800D03*
G04 #@! TD*
D43*
G04 #@! TO.C,Q15*
X176782000Y-144602000D03*
X176782000Y-148768000D03*
D42*
X175032000Y-146685000D03*
D41*
X177292000Y-144780000D03*
X177292000Y-146050000D03*
X177292000Y-147320000D03*
X177292000Y-148590000D03*
D40*
X171672000Y-148590000D03*
X171672000Y-147320000D03*
X171672000Y-146050000D03*
X171672000Y-144780000D03*
G04 #@! TD*
D11*
G04 #@! TO.C,R40*
X139406000Y-48371000D03*
X141006000Y-48371000D03*
G04 #@! TD*
D40*
G04 #@! TO.C,Q3*
X35671000Y-28715000D03*
X35671000Y-29985000D03*
X35671000Y-31255000D03*
X35671000Y-32525000D03*
D41*
X41291000Y-32525000D03*
X41291000Y-31255000D03*
X41291000Y-29985000D03*
X41291000Y-28715000D03*
D42*
X39031000Y-30620000D03*
D43*
X40781000Y-32703000D03*
X40781000Y-28537000D03*
G04 #@! TD*
D73*
G04 #@! TO.C,C48*
X145895000Y-41041000D03*
X145895000Y-46141000D03*
G04 #@! TD*
D38*
G04 #@! TO.C,IC9*
X91507000Y-54017000D03*
X92007000Y-54017000D03*
X92507000Y-54017000D03*
X93007000Y-54017000D03*
X93507000Y-54017000D03*
X93507000Y-49593000D03*
X93007000Y-49593000D03*
X92507000Y-49593000D03*
X92007000Y-49593000D03*
X91507000Y-49593000D03*
D39*
X92507000Y-51805000D03*
G04 #@! TD*
D48*
G04 #@! TO.C,C27*
X191710000Y-103845000D03*
X179010000Y-103845000D03*
G04 #@! TD*
D40*
G04 #@! TO.C,Q10*
X196505000Y-29011000D03*
X196505000Y-30281000D03*
X196505000Y-31551000D03*
X196505000Y-32821000D03*
D41*
X202125000Y-32821000D03*
X202125000Y-31551000D03*
X202125000Y-30281000D03*
X202125000Y-29011000D03*
D42*
X199865000Y-30916000D03*
D43*
X201615000Y-32999000D03*
X201615000Y-28833000D03*
G04 #@! TD*
D40*
G04 #@! TO.C,Q16*
X195744000Y-144663000D03*
X195744000Y-145933000D03*
X195744000Y-147203000D03*
X195744000Y-148473000D03*
D41*
X201364000Y-148473000D03*
X201364000Y-147203000D03*
X201364000Y-145933000D03*
X201364000Y-144663000D03*
D42*
X199104000Y-146568000D03*
D43*
X200854000Y-148651000D03*
X200854000Y-144485000D03*
G04 #@! TD*
D40*
G04 #@! TO.C,Q24*
X35869000Y-154975000D03*
X35869000Y-156245000D03*
X35869000Y-157515000D03*
X35869000Y-158785000D03*
D41*
X41489000Y-158785000D03*
X41489000Y-157515000D03*
X41489000Y-156245000D03*
X41489000Y-154975000D03*
D42*
X39229000Y-156880000D03*
D43*
X40979000Y-158963000D03*
X40979000Y-154797000D03*
G04 #@! TD*
D17*
G04 #@! TO.C,C2*
X100095000Y-120100000D03*
X100095000Y-118700000D03*
G04 #@! TD*
M02*
