M48
INCH,TZ
T1C0.0157
T2C0.0394
T3C0.0512
T4C0.0551
%
G90
G05
T1
X13080Y-6280
X13260Y-5700
X13460Y-6220
X13580Y-6680
X13680Y-5740
X13820Y-6120
X14080Y-6360
X14140Y-5660
X15490Y-14610
X16120Y-55620
X16240Y-17090
X16460Y-60300
X18420Y-11030
X19680Y-21250
X20370Y-20670
X21480Y-15199
X21980Y-52380
X22380Y-9120
X22560Y-18600
X22582Y-55412
X22880Y-14010
X23062Y-59202
X23090Y-21520
X23110Y-10640
X23110Y-56490
X23528Y-10940
X24600Y-64325
X24824Y-19654
X25350Y-27730
X25370Y-26820
X25410Y-26230
X25440Y-64610
X25720Y-21740
X25740Y-54950
X25771Y-13490
X25809Y-17820
X25860Y-55520
X26020Y-53490
X26040Y-16580
X26070Y-9940
X26210Y-21140
X26250Y-52610
X26470Y-21455
X26784Y-22664
X27135Y-32580
X27397Y-23275
X27420Y-32150
X27655Y-13880
X27682Y-22990
X28000Y-22710
X28150Y-22220
X28312Y-56168
X28421Y-20461
X28627Y-21473
X28910Y-20080
X29157Y-57032
X29480Y-22079
X29880Y-25410
X29900Y-56403
X30130Y-21710
X30220Y-22885
X30420Y-24010
X30790Y-17670
X30830Y-23458
X30920Y-18870
X30980Y-21760
X31250Y-23560
X31274Y-55403
X31520Y-41721
X31762Y-55722
X31800Y-29930
X32232Y-30472
X32743Y-56319
X32770Y-57490
X33890Y-23100
X33950Y-22610
X33990Y-23560
X34280Y-27540
X35080Y-14830
X35160Y-14260
X36400Y-41681
X36470Y-40040
X36480Y-17600
X36980Y-42910
X37070Y-59150
X37126Y-22136
X37520Y-21720
X37670Y-17320
X38002Y-23042
X38250Y-44750
X38460Y-22651
X38650Y-42590
X38718Y-24170
X38720Y-14930
X40140Y-22090
X40200Y-29810
X40240Y-47630
X40310Y-48290
X40440Y-22330
X40660Y-22540
X41640Y-59360
X42620Y-49770
X42739Y-49060
X42770Y-16240
X42880Y-58140
X43025Y-48700
X43110Y-23310
X43170Y-21510
X43310Y-49190
X43340Y-29740
X43480Y-60500
X43620Y-49780
X43960Y-47970
X44180Y-60520
X44180Y-62220
X44540Y-47340
X44885Y-47995
X44950Y-25420
X45028Y-40668
X45100Y-22440
X45670Y-47330
X45958Y-41298
X46210Y-21350
X46400Y-41860
X46500Y-41097
X47100Y-55740
X47270Y-18170
X48040Y-27020
X48269Y-17574
X48480Y-18920
X48640Y-20810
X48780Y-46340
X48880Y-22200
X48881Y-16962
X49020Y-14090
X49030Y-18850
X49280Y-45960
X49500Y-18850
X49640Y-55580
X50090Y-13870
X50460Y-12720
X50670Y-6120
X50740Y-6620
X50750Y-10640
X50770Y-52420
X50860Y-63340
X51160Y-41440
X51190Y-47420
X51300Y-63520
X51350Y-45360
X52260Y-60420
X52270Y-20180
X52350Y-63400
X52730Y-9780
X52850Y-46830
X52990Y-19775
X53050Y-45040
X53080Y-41780
X53200Y-59540
X53250Y-21060
X53280Y-11211
X53380Y-60400
X53716Y-18208
X53760Y-60125
X53790Y-17780
X54154Y-20479
X54319Y-18301
X54390Y-42410
X54520Y-41690
X54800Y-61105
X55329Y-23299
X55630Y-13820
X55930Y-19060
X56000Y-20750
X56000Y-22050
X56040Y-41190
X56090Y-16730
X56270Y-19060
X56520Y-20860
X56600Y-57080
X56620Y-59555
X56890Y-21630
X56900Y-25213
X57200Y-57140
X57300Y-55390
X57460Y-21584
X57830Y-53040
X58120Y-39540
X58480Y-54410
X58540Y-57805
X58710Y-52910
X58740Y-59580
X59128Y-43968
X59425Y-41280
X60010Y-38150
X60110Y-42440
X60320Y-53790
X60395Y-43960
X60780Y-53370
X62120Y-24970
X62150Y-53210
X62590Y-54360
X62790Y-23460
X62940Y-24160
X63230Y-55540
X63341Y-54853
X63454Y-22150
X63930Y-54950
X64580Y-23880
X64640Y-22720
X64700Y-56420
X65430Y-10240
X65580Y-50970
X65599Y-26080
X65637Y-19243
X65750Y-26550
X65860Y-20940
X65993Y-26890
X66190Y-35380
X66190Y-27250
X66210Y-38840
X66387Y-27680
X66660Y-28100
X66680Y-20360
X66910Y-63580
X67120Y-17460
X67340Y-21340
X67460Y-22730
X67570Y-14630
X67580Y-55320
X67680Y-23900
X67710Y-18000
X68100Y-56630
X68190Y-60400
X68730Y-22390
X68740Y-23210
X69110Y-23550
X70470Y-20320
X74820Y-56180
X75580Y-63600
X75990Y-58740
X76480Y-14670
X76790Y-10480
T2
X26710Y-27370
X26804Y-31265
X27804Y-31265
X28804Y-31265
X29780Y-39140
X29804Y-31265
X30380Y-60360
X30780Y-39140
X30804Y-31265
X31780Y-39140
X31804Y-31265
X32804Y-31265
X34760Y-35200
X35760Y-35200
X36300Y-55380
X36760Y-35200
X37300Y-55380
X37760Y-35200
X37820Y-61420
X38300Y-55380
X38760Y-35200
X38820Y-61420
X39300Y-55380
X39760Y-35200
X39820Y-61420
X40300Y-55380
X40760Y-35200
X40820Y-61420
X41760Y-35200
X41820Y-61420
X42820Y-61420
X42980Y-33180
X43820Y-61420
X43980Y-33180
X44264Y-38820
X44980Y-33180
X45081Y-58110
X45264Y-38820
X45980Y-33180
X46081Y-58110
X46264Y-38820
X46980Y-33180
X47081Y-58110
X47264Y-38820
X48081Y-58110
X49081Y-58110
X53760Y-49520
X53800Y-45480
X54340Y-43240
X54760Y-49520
X54800Y-45480
X55040Y-56240
X55340Y-43240
X55398Y-40420
X55760Y-49520
X55800Y-45480
X56340Y-43240
X56398Y-40420
X56760Y-49520
X56800Y-45480
X57140Y-58540
X57340Y-43240
X57398Y-40420
X57760Y-49520
X57800Y-45480
X58140Y-58540
X58340Y-43240
X58398Y-40420
X59140Y-58540
X59398Y-40420
X60140Y-58540
X60398Y-40420
X61140Y-58540
X61398Y-40420
X62140Y-58540
X63140Y-58540
X64554Y-26063
T3
X30112Y-10720
X33860Y-10720
X41500Y-10720
X45248Y-10720
X59580Y-33480
X59580Y-37228
T4
X19300Y-56020
X19300Y-57989
X19300Y-59957
X19440Y-10243
X19440Y-12211
X19440Y-14180
X73240Y-55840
X73240Y-57809
X73240Y-59777
X73344Y-7972
X73344Y-9941
X73344Y-11909
T0
M30
