%TF.GenerationSoftware,KiCad,Pcbnew,7.0.6*%
%TF.CreationDate,2023-07-31T22:17:58-04:00*%
%TF.ProjectId,GoodBotControlBoard,476f6f64-426f-4744-936f-6e74726f6c42,rev?*%
%TF.SameCoordinates,Original*%
%TF.FileFunction,Drillmap*%
%TF.FilePolarity,Positive*%
%FSLAX45Y45*%
G04 Gerber Fmt 4.5, Leading zero omitted, Abs format (unit mm)*
G04 Created by KiCad (PCBNEW 7.0.6) date 2023-07-31 22:17:58*
%MOMM*%
%LPD*%
G01*
G04 APERTURE LIST*
%ADD10C,0.100000*%
%ADD11C,0.200000*%
%ADD12C,0.040000*%
%ADD13C,0.130000*%
%ADD14C,0.140000*%
G04 APERTURE END LIST*
D10*
X2717800Y-16738600D02*
X2717800Y-1295400D01*
X20497800Y-16738600D02*
X2717800Y-16738600D01*
X20497800Y-1295400D02*
X20497800Y-16738600D01*
X2717800Y-1295400D02*
X20497800Y-1295400D01*
D11*
D12*
X3574100Y-1656400D02*
X3614100Y-1696400D01*
X3614100Y-1656400D02*
X3574100Y-1696400D01*
X3701100Y-1643700D02*
X3741100Y-1683700D01*
X3741100Y-1643700D02*
X3701100Y-1683700D01*
X3723300Y-12211500D02*
X3763300Y-12251500D01*
X3763300Y-12211500D02*
X3723300Y-12251500D01*
X3726500Y-14991400D02*
X3766500Y-15031400D01*
X3766500Y-14991400D02*
X3726500Y-15031400D01*
X3790000Y-3485200D02*
X3830000Y-3525200D01*
X3830000Y-3485200D02*
X3790000Y-3525200D01*
X3853500Y-14089700D02*
X3893500Y-14129700D01*
X3893500Y-14089700D02*
X3853500Y-14129700D01*
X3878900Y-1643700D02*
X3918900Y-1683700D01*
X3918900Y-1643700D02*
X3878900Y-1683700D01*
X3896680Y-16129320D02*
X3936680Y-16169320D01*
X3936680Y-16129320D02*
X3896680Y-16169320D01*
X3929700Y-2494600D02*
X3969700Y-2534600D01*
X3969700Y-2494600D02*
X3929700Y-2534600D01*
X4031300Y-1643700D02*
X4071300Y-1683700D01*
X4071300Y-1643700D02*
X4031300Y-1683700D01*
X4158300Y-1643700D02*
X4198300Y-1683700D01*
X4198300Y-1643700D02*
X4158300Y-1683700D01*
X4298000Y-1643700D02*
X4338000Y-1683700D01*
X4338000Y-1643700D02*
X4298000Y-1683700D01*
X4425000Y-8092760D02*
X4465000Y-8132760D01*
X4465000Y-8092760D02*
X4425000Y-8132760D01*
X4541840Y-11491280D02*
X4581840Y-11531280D01*
X4581840Y-11491280D02*
X4541840Y-11531280D01*
X4552000Y-3802700D02*
X4592000Y-3842700D01*
X4592000Y-3802700D02*
X4552000Y-3842700D01*
X4730840Y-3562440D02*
X4770840Y-3602440D01*
X4770840Y-3562440D02*
X4730840Y-3602440D01*
X5250500Y-4894900D02*
X5290500Y-4934900D01*
X5290500Y-4894900D02*
X5250500Y-4934900D01*
X5290350Y-14191300D02*
X5330350Y-14231300D01*
X5330350Y-14191300D02*
X5290350Y-14231300D01*
X5364800Y-12375200D02*
X5404800Y-12415200D01*
X5404800Y-12375200D02*
X5364800Y-12415200D01*
X5402900Y-4729800D02*
X5442900Y-4769800D01*
X5442900Y-4729800D02*
X5402900Y-4769800D01*
X5420680Y-8097840D02*
X5460680Y-8137840D01*
X5460680Y-8097840D02*
X5420680Y-8137840D01*
X5451500Y-2065000D02*
X5491500Y-2105000D01*
X5491500Y-2065000D02*
X5451500Y-2105000D01*
X5461320Y-11481120D02*
X5501320Y-11521120D01*
X5501320Y-11481120D02*
X5461320Y-11521120D01*
X5529900Y-4666300D02*
X5569900Y-4706300D01*
X5569900Y-4666300D02*
X5529900Y-4706300D01*
X5571000Y-14597500D02*
X5611000Y-14637500D01*
X5611000Y-14597500D02*
X5571000Y-14637500D01*
X5612200Y-3897700D02*
X5652200Y-3937700D01*
X5652200Y-3897700D02*
X5612200Y-3937700D01*
X5618800Y-13496550D02*
X5658800Y-13536550D01*
X5658800Y-13496550D02*
X5618800Y-13536550D01*
X5720400Y-15565440D02*
X5760400Y-15605440D01*
X5760400Y-15565440D02*
X5720400Y-15605440D01*
X5771200Y-2939100D02*
X5811200Y-2979100D01*
X5811200Y-2939100D02*
X5771200Y-2979100D01*
X5783900Y-4513900D02*
X5823900Y-4553900D01*
X5823900Y-4513900D02*
X5783900Y-4553900D01*
X5949000Y-2380300D02*
X5989000Y-2420300D01*
X5989000Y-2380300D02*
X5949000Y-2420300D01*
X5965550Y-3332800D02*
X6005550Y-3372800D01*
X6005550Y-3332800D02*
X5965550Y-3372800D01*
X6012500Y-5428300D02*
X6052500Y-5468300D01*
X6052500Y-5428300D02*
X6012500Y-5468300D01*
X6025200Y-13937300D02*
X6065200Y-13977300D01*
X6065200Y-13937300D02*
X6025200Y-13977300D01*
X6025200Y-14191300D02*
X6065200Y-14231300D01*
X6065200Y-14191300D02*
X6025200Y-14231300D01*
X6025200Y-15994700D02*
X6065200Y-16034700D01*
X6065200Y-15994700D02*
X6025200Y-16034700D01*
X6038950Y-15004100D02*
X6078950Y-15044100D01*
X6078950Y-15004100D02*
X6038950Y-15044100D01*
X6545900Y-4983800D02*
X6585900Y-5023800D01*
X6585900Y-4983800D02*
X6545900Y-5023800D01*
X6596700Y-4856800D02*
X6636700Y-4896800D01*
X6636700Y-4856800D02*
X6596700Y-4896800D01*
X6660200Y-4412300D02*
X6700200Y-4452300D01*
X6700200Y-4412300D02*
X6660200Y-4452300D01*
X6749100Y-5136200D02*
X6789100Y-5176200D01*
X6789100Y-5136200D02*
X6749100Y-5176200D01*
X6761450Y-2062800D02*
X6801450Y-2102800D01*
X6801450Y-2062800D02*
X6761450Y-2102800D01*
X6761800Y-15067600D02*
X6801800Y-15107600D01*
X6801800Y-15067600D02*
X6761800Y-15107600D01*
X6812600Y-2342200D02*
X6852600Y-2382200D01*
X6852600Y-2342200D02*
X6812600Y-2382200D01*
X6846450Y-13683300D02*
X6886450Y-13723300D01*
X6886450Y-13683300D02*
X6846450Y-13723300D01*
X6850700Y-13556300D02*
X6890700Y-13596300D01*
X6890700Y-13556300D02*
X6850700Y-13596300D01*
X6958650Y-15112050D02*
X6998650Y-15152050D01*
X6998650Y-15112050D02*
X6958650Y-15152050D01*
X7003100Y-6685600D02*
X7043100Y-6725600D01*
X7043100Y-6685600D02*
X7003100Y-6725600D01*
X7079300Y-1890550D02*
X7119300Y-1930550D01*
X7119300Y-1890550D02*
X7079300Y-1930550D01*
X7193600Y-14635800D02*
X7233600Y-14675800D01*
X7233600Y-14635800D02*
X7193600Y-14675800D01*
X7231700Y-14242100D02*
X7271700Y-14282100D01*
X7271700Y-14242100D02*
X7231700Y-14282100D01*
X7274880Y-8443280D02*
X7314880Y-8483280D01*
X7314880Y-8443280D02*
X7274880Y-8483280D01*
X7295200Y-6228400D02*
X7335200Y-6268400D01*
X7335200Y-6228400D02*
X7295200Y-6268400D01*
X7422650Y-6317300D02*
X7462650Y-6357300D01*
X7462650Y-6317300D02*
X7422650Y-6357300D01*
X7493320Y-14114266D02*
X7533320Y-14154266D01*
X7533320Y-14114266D02*
X7493320Y-14154266D01*
X7658750Y-15091900D02*
X7698750Y-15131900D01*
X7698750Y-15091900D02*
X7658750Y-15131900D01*
X7742240Y-8336600D02*
X7782240Y-8376600D01*
X7782240Y-8336600D02*
X7742240Y-8376600D01*
X7765100Y-6203000D02*
X7805100Y-6243000D01*
X7805100Y-6203000D02*
X7765100Y-6243000D01*
X7772720Y-14044316D02*
X7812720Y-14084316D01*
X7812720Y-14044316D02*
X7772720Y-14084316D01*
X7787960Y-8528310D02*
X7827960Y-8568310D01*
X7827960Y-8528310D02*
X7787960Y-8568310D01*
X7815642Y-6889101D02*
X7855642Y-6929101D01*
X7855642Y-6889101D02*
X7815642Y-6929101D01*
X7854000Y-6702850D02*
X7894000Y-6742850D01*
X7894000Y-6702850D02*
X7854000Y-6742850D01*
X7923874Y-14044366D02*
X7963874Y-14084366D01*
X7963874Y-14044366D02*
X7923874Y-14084366D01*
X7930200Y-6469700D02*
X7970200Y-6509700D01*
X7970200Y-6469700D02*
X7930200Y-6509700D01*
X7942900Y-6215700D02*
X7982900Y-6255700D01*
X7982900Y-6215700D02*
X7942900Y-6255700D01*
X8077520Y-8311200D02*
X8117520Y-8351200D01*
X8117520Y-8311200D02*
X8077520Y-8351200D01*
X8082600Y-8438200D02*
X8122600Y-8478200D01*
X8122600Y-8438200D02*
X8082600Y-8478200D01*
X8087680Y-8600760D02*
X8127680Y-8640760D01*
X8127680Y-8600760D02*
X8087680Y-8640760D01*
X8222300Y-13924600D02*
X8262300Y-13964600D01*
X8262300Y-13924600D02*
X8222300Y-13964600D01*
X8260400Y-14216700D02*
X8300400Y-14256700D01*
X8300400Y-14216700D02*
X8260400Y-14256700D01*
X8273100Y-6406200D02*
X8313100Y-6446200D01*
X8313100Y-6406200D02*
X8273100Y-6446200D01*
X8273100Y-14064300D02*
X8313100Y-14104300D01*
X8313100Y-14064300D02*
X8273100Y-14104300D01*
X8298500Y-14623100D02*
X8338500Y-14663100D01*
X8338500Y-14623100D02*
X8298500Y-14663100D01*
X8336600Y-8687120D02*
X8376600Y-8727120D01*
X8376600Y-8687120D02*
X8336600Y-8727120D01*
X8336600Y-8829360D02*
X8376600Y-8869360D01*
X8376600Y-8829360D02*
X8336600Y-8869360D01*
X8356920Y-9271320D02*
X8396920Y-9311320D01*
X8396920Y-9271320D02*
X8356920Y-9311320D01*
X8361570Y-8956790D02*
X8401570Y-8996790D01*
X8401570Y-8956790D02*
X8361570Y-8996790D01*
X8362000Y-9063040D02*
X8402000Y-9103040D01*
X8402000Y-9063040D02*
X8362000Y-9103040D01*
X8402640Y-9164640D02*
X8442640Y-9204640D01*
X8442640Y-9164640D02*
X8402640Y-9204640D01*
X8473760Y-15030710D02*
X8513760Y-15070710D01*
X8513760Y-15030710D02*
X8473760Y-15070710D01*
X8489000Y-7041200D02*
X8529000Y-7081200D01*
X8529000Y-7041200D02*
X8489000Y-7081200D01*
X8501700Y-5949000D02*
X8541700Y-5989000D01*
X8541700Y-5949000D02*
X8501700Y-5989000D01*
X8671880Y-15407960D02*
X8711880Y-15447960D01*
X8711880Y-15407960D02*
X8671880Y-15447960D01*
X8743000Y-5631500D02*
X8783000Y-5671500D01*
X8783000Y-5631500D02*
X8743000Y-5671500D01*
X8773683Y-3785046D02*
X8813683Y-3825046D01*
X8813683Y-3785046D02*
X8773683Y-3825046D01*
X8870000Y-13683300D02*
X8910000Y-13723300D01*
X8910000Y-13683300D02*
X8870000Y-13723300D01*
X8870000Y-13878450D02*
X8910000Y-13918450D01*
X8910000Y-13878450D02*
X8870000Y-13918450D01*
X8930960Y-15103160D02*
X8970960Y-15143160D01*
X8970960Y-15103160D02*
X8930960Y-15143160D01*
X8945770Y-14711570D02*
X8985770Y-14751570D01*
X8985770Y-14711570D02*
X8945770Y-14751570D01*
X8946200Y-3624900D02*
X8986200Y-3664900D01*
X8986200Y-3624900D02*
X8946200Y-3664900D01*
X8966520Y-7269800D02*
X9006520Y-7309800D01*
X9006520Y-7269800D02*
X8966520Y-7309800D01*
X8971600Y-6904040D02*
X9011600Y-6944040D01*
X9011600Y-6904040D02*
X8971600Y-6944040D01*
X8977636Y-15006370D02*
X9017636Y-15046370D01*
X9017636Y-15006370D02*
X8977636Y-15046370D01*
X8984300Y-13657900D02*
X9024300Y-13697900D01*
X9024300Y-13657900D02*
X8984300Y-13697900D01*
X8984300Y-13886500D02*
X9024300Y-13926500D01*
X9024300Y-13886500D02*
X8984300Y-13926500D01*
X9052880Y-15433360D02*
X9092880Y-15473360D01*
X9092880Y-15433360D02*
X9052880Y-15473360D01*
X9063040Y-15220000D02*
X9103040Y-15260000D01*
X9103040Y-15220000D02*
X9063040Y-15260000D01*
X9068120Y-14691680D02*
X9108120Y-14731680D01*
X9108120Y-14691680D02*
X9068120Y-14731680D01*
X9124000Y-4488500D02*
X9164000Y-4528500D01*
X9164000Y-4488500D02*
X9124000Y-4528500D01*
X9139240Y-7025960D02*
X9179240Y-7065960D01*
X9179240Y-7025960D02*
X9139240Y-7065960D01*
X9195120Y-15098080D02*
X9235120Y-15138080D01*
X9235120Y-15098080D02*
X9195120Y-15138080D01*
X9215440Y-14844080D02*
X9255440Y-14884080D01*
X9255440Y-14844080D02*
X9215440Y-14884080D01*
X9327200Y-15077760D02*
X9367200Y-15117760D01*
X9367200Y-15077760D02*
X9327200Y-15117760D01*
X9347520Y-6924360D02*
X9387520Y-6964360D01*
X9387520Y-6924360D02*
X9347520Y-6964360D01*
X9386315Y-5668268D02*
X9426315Y-5708268D01*
X9426315Y-5668268D02*
X9386315Y-5708268D01*
X9418640Y-14651040D02*
X9458640Y-14691040D01*
X9458640Y-14651040D02*
X9418640Y-14691040D01*
X9444040Y-13533440D02*
X9484040Y-13573440D01*
X9484040Y-13533440D02*
X9444040Y-13573440D01*
X9444040Y-15485150D02*
X9484040Y-15525150D01*
X9484040Y-15485150D02*
X9444040Y-15525150D01*
X9535480Y-14442760D02*
X9575480Y-14482760D01*
X9575480Y-14442760D02*
X9535480Y-14482760D01*
X9555800Y-13878450D02*
X9595800Y-13918450D01*
X9595800Y-13878450D02*
X9555800Y-13918450D01*
X9581200Y-5479100D02*
X9621200Y-5519100D01*
X9621200Y-5479100D02*
X9581200Y-5519100D01*
X9581200Y-5837240D02*
X9621200Y-5877240D01*
X9621200Y-5837240D02*
X9581200Y-5877240D01*
X9611680Y-10602280D02*
X9651680Y-10642280D01*
X9651680Y-10602280D02*
X9611680Y-10642280D01*
X9682800Y-13685840D02*
X9722800Y-13725840D01*
X9722800Y-13685840D02*
X9682800Y-13725840D01*
X9692960Y-14445550D02*
X9732960Y-14485550D01*
X9732960Y-14445550D02*
X9692960Y-14485550D01*
X9771700Y-5669600D02*
X9811700Y-5709600D01*
X9811700Y-5669600D02*
X9771700Y-5709600D01*
X9784400Y-13924600D02*
X9824400Y-13964600D01*
X9824400Y-13924600D02*
X9784400Y-13964600D01*
X9789480Y-14574840D02*
X9829480Y-14614840D01*
X9829480Y-14574840D02*
X9789480Y-14614840D01*
X9814880Y-14122720D02*
X9854880Y-14162720D01*
X9854880Y-14122720D02*
X9814880Y-14162720D01*
X9822500Y-4475800D02*
X9862500Y-4515800D01*
X9862500Y-4475800D02*
X9822500Y-4515800D01*
X9825040Y-15128560D02*
X9865040Y-15168560D01*
X9865040Y-15128560D02*
X9825040Y-15168560D01*
X9830120Y-11669080D02*
X9870120Y-11709080D01*
X9870120Y-11669080D02*
X9830120Y-11709080D01*
X9830120Y-13609640D02*
X9870120Y-13649640D01*
X9870120Y-13609640D02*
X9830120Y-13649640D01*
X9835200Y-11922450D02*
X9875200Y-11962450D01*
X9875200Y-11922450D02*
X9835200Y-11962450D01*
X9931720Y-10068880D02*
X9971720Y-10108880D01*
X9971720Y-10068880D02*
X9931720Y-10108880D01*
X9936800Y-13655360D02*
X9976800Y-13695360D01*
X9976800Y-13655360D02*
X9936800Y-13695360D01*
X10023160Y-13538520D02*
X10063160Y-13578520D01*
X10063160Y-13538520D02*
X10023160Y-13578520D01*
X10373680Y-14723490D02*
X10413680Y-14763490D01*
X10413680Y-14723490D02*
X10373680Y-14763490D01*
X10521000Y-14441430D02*
X10561000Y-14481430D01*
X10561000Y-14441430D02*
X10521000Y-14481430D01*
X10607360Y-14723490D02*
X10647360Y-14763490D01*
X10647360Y-14723490D02*
X10607360Y-14763490D01*
X10648000Y-14432600D02*
X10688000Y-14472600D01*
X10688000Y-14432600D02*
X10648000Y-14472600D01*
X10668320Y-14087160D02*
X10708320Y-14127160D01*
X10708320Y-14087160D02*
X10668320Y-14127160D01*
X10714040Y-6533200D02*
X10754040Y-6573200D01*
X10754040Y-6533200D02*
X10714040Y-6573200D01*
X10769920Y-14441430D02*
X10809920Y-14481430D01*
X10809920Y-14441430D02*
X10769920Y-14481430D01*
X10805480Y-13980480D02*
X10845480Y-14020480D01*
X10845480Y-13980480D02*
X10805480Y-14020480D01*
X10812050Y-12441240D02*
X10852050Y-12481240D01*
X10852050Y-12441240D02*
X10812050Y-12481240D01*
X10932480Y-12329480D02*
X10972480Y-12369480D01*
X10972480Y-12329480D02*
X10932480Y-12369480D01*
X10978200Y-5555300D02*
X11018200Y-5595300D01*
X11018200Y-5555300D02*
X10978200Y-5595300D01*
X10992686Y-11863918D02*
X11032686Y-11903918D01*
X11032686Y-11863918D02*
X10992686Y-11903918D01*
X11003600Y-6289360D02*
X11043600Y-6329360D01*
X11043600Y-6289360D02*
X11003600Y-6329360D01*
X11008783Y-11455693D02*
X11048783Y-11495693D01*
X11048783Y-11455693D02*
X11008783Y-11495693D01*
X11029000Y-14554520D02*
X11069000Y-14594520D01*
X11069000Y-14554520D02*
X11029000Y-14594520D01*
X11074720Y-12349800D02*
X11114720Y-12389800D01*
X11114720Y-12349800D02*
X11074720Y-12389800D01*
X11079800Y-11912920D02*
X11119800Y-11952920D01*
X11119800Y-11912920D02*
X11079800Y-11952920D01*
X11125520Y-6838000D02*
X11165520Y-6878000D01*
X11165520Y-6838000D02*
X11125520Y-6878000D01*
X11147121Y-9263459D02*
X11187121Y-9303459D01*
X11187121Y-9263459D02*
X11147121Y-9303459D01*
X11150920Y-8991920D02*
X11190920Y-9031920D01*
X11190920Y-8991920D02*
X11150920Y-9031920D01*
X11161080Y-14778040D02*
X11201080Y-14818040D01*
X11201080Y-14778040D02*
X11161080Y-14818040D01*
X11191560Y-10013000D02*
X11231560Y-10053000D01*
X11231560Y-10013000D02*
X11191560Y-10053000D01*
X11191560Y-11460800D02*
X11231560Y-11500800D01*
X11231560Y-11460800D02*
X11191560Y-11500800D01*
X11191560Y-11877360D02*
X11231560Y-11917360D01*
X11231560Y-11877360D02*
X11191560Y-11917360D01*
X11191560Y-12354880D02*
X11231560Y-12394880D01*
X11231560Y-12354880D02*
X11191560Y-12394880D01*
X11232200Y-7071680D02*
X11272200Y-7111680D01*
X11272200Y-7071680D02*
X11232200Y-7111680D01*
X11283000Y-5428300D02*
X11323000Y-5468300D01*
X11323000Y-5428300D02*
X11283000Y-5468300D01*
X11303320Y-6279200D02*
X11343320Y-6319200D01*
X11343320Y-6279200D02*
X11303320Y-6319200D01*
X11308400Y-9499920D02*
X11348400Y-9539920D01*
X11348400Y-9499920D02*
X11308400Y-9539920D01*
X11318560Y-12441240D02*
X11358560Y-12481240D01*
X11358560Y-12441240D02*
X11318560Y-12481240D01*
X11359200Y-11420160D02*
X11399200Y-11460160D01*
X11399200Y-11420160D02*
X11359200Y-11460160D01*
X11369360Y-10150160D02*
X11409360Y-10190160D01*
X11409360Y-10150160D02*
X11369360Y-10190160D01*
X11374440Y-9174800D02*
X11414440Y-9214800D01*
X11414440Y-9174800D02*
X11374440Y-9214800D01*
X11374440Y-14386880D02*
X11414440Y-14426880D01*
X11414440Y-14386880D02*
X11374440Y-14426880D01*
X11394760Y-9819960D02*
X11434760Y-9859960D01*
X11434760Y-9819960D02*
X11394760Y-9859960D01*
X11430320Y-7259640D02*
X11470320Y-7299640D01*
X11470320Y-7259640D02*
X11430320Y-7299640D01*
X11440480Y-12192320D02*
X11480480Y-12232320D01*
X11480480Y-12192320D02*
X11440480Y-12232320D01*
X11496360Y-9444040D02*
X11536360Y-9484040D01*
X11536360Y-9444040D02*
X11496360Y-9484040D01*
X11542080Y-10556560D02*
X11582080Y-10596560D01*
X11582080Y-10556560D02*
X11542080Y-10596560D01*
X11597960Y-9022400D02*
X11637960Y-9062400D01*
X11637960Y-9022400D02*
X11597960Y-9062400D01*
X11603040Y-11882440D02*
X11643040Y-11922440D01*
X11643040Y-11882440D02*
X11603040Y-11922440D01*
X11613200Y-12176250D02*
X11653200Y-12216250D01*
X11653200Y-12176250D02*
X11613200Y-12216250D01*
X11628440Y-10952800D02*
X11668440Y-10992800D01*
X11668440Y-10952800D02*
X11628440Y-10992800D01*
X11689400Y-10465120D02*
X11729400Y-10505120D01*
X11729400Y-10465120D02*
X11689400Y-10505120D01*
X11725390Y-10841470D02*
X11765390Y-10881470D01*
X11765390Y-10841470D02*
X11725390Y-10881470D01*
X11841800Y-1906050D02*
X11881800Y-1946050D01*
X11881800Y-1906050D02*
X11841800Y-1946050D01*
X11846880Y-7361240D02*
X11886880Y-7401240D01*
X11886880Y-7361240D02*
X11846880Y-7401240D01*
X11862120Y-11892600D02*
X11902120Y-11932600D01*
X11902120Y-11892600D02*
X11862120Y-11932600D01*
X11867200Y-11450640D02*
X11907200Y-11490640D01*
X11907200Y-11450640D02*
X11867200Y-11490640D01*
X11888922Y-6213160D02*
X11928922Y-6253160D01*
X11928922Y-6213160D02*
X11888922Y-6253160D01*
X11891597Y-6793283D02*
X11931597Y-6833283D01*
X11931597Y-6793283D02*
X11891597Y-6833283D01*
X11910656Y-5925864D02*
X11950656Y-5965864D01*
X11950656Y-5925864D02*
X11910656Y-5965864D01*
X11923553Y-5652719D02*
X11963553Y-5692719D01*
X11963553Y-5652719D02*
X11923553Y-5692719D01*
X11971950Y-5476560D02*
X12011950Y-5516560D01*
X12011950Y-5476560D02*
X11971950Y-5516560D01*
X11989120Y-12370120D02*
X12029120Y-12410120D01*
X12029120Y-12370120D02*
X11989120Y-12410120D01*
X11994200Y-8864920D02*
X12034200Y-8904920D01*
X12034200Y-8864920D02*
X11994200Y-8904920D01*
X12014520Y-9535480D02*
X12054520Y-9575480D01*
X12054520Y-9535480D02*
X12014520Y-9575480D01*
X12019600Y-4640900D02*
X12059600Y-4680900D01*
X12059600Y-4640900D02*
X12019600Y-4680900D01*
X12019600Y-10109520D02*
X12059600Y-10149520D01*
X12059600Y-10109520D02*
X12019600Y-10149520D01*
X12019600Y-10561640D02*
X12059600Y-10601640D01*
X12059600Y-10561640D02*
X12019600Y-10601640D01*
X12019600Y-11003600D02*
X12059600Y-11043600D01*
X12059600Y-11003600D02*
X12019600Y-11043600D01*
X12019600Y-12182160D02*
X12059600Y-12222160D01*
X12059600Y-12182160D02*
X12019600Y-12222160D01*
X12034840Y-14386880D02*
X12074840Y-14426880D01*
X12074840Y-14386880D02*
X12034840Y-14426880D01*
X12045000Y-11918850D02*
X12085000Y-11958850D01*
X12085000Y-11918850D02*
X12045000Y-11958850D01*
X12095800Y-3650300D02*
X12135800Y-3690300D01*
X12135800Y-3650300D02*
X12095800Y-3690300D01*
X12121200Y-12883200D02*
X12161200Y-12923200D01*
X12161200Y-12883200D02*
X12121200Y-12923200D01*
X12146600Y-14097320D02*
X12186600Y-14137320D01*
X12186600Y-14097320D02*
X12146600Y-14137320D01*
X12209983Y-4466750D02*
X12249983Y-4506750D01*
X12249983Y-4466750D02*
X12209983Y-4506750D01*
X12210100Y-4691700D02*
X12250100Y-4731700D01*
X12250100Y-4691700D02*
X12210100Y-4731700D01*
X12222800Y-7081840D02*
X12262800Y-7121840D01*
X12262800Y-7081840D02*
X12222800Y-7121840D01*
X12222800Y-7716840D02*
X12262800Y-7756840D01*
X12262800Y-7716840D02*
X12222800Y-7756840D01*
X12227880Y-14005880D02*
X12267880Y-14045880D01*
X12267880Y-14005880D02*
X12227880Y-14045880D01*
X12248200Y-9276400D02*
X12288200Y-9316400D01*
X12288200Y-9276400D02*
X12248200Y-9316400D01*
X12312888Y-13953339D02*
X12352888Y-13993339D01*
X12352888Y-13953339D02*
X12312888Y-13993339D01*
X12314240Y-6553520D02*
X12354240Y-6593520D01*
X12354240Y-6553520D02*
X12314240Y-6593520D01*
X12334560Y-14275120D02*
X12374560Y-14315120D01*
X12374560Y-14275120D02*
X12334560Y-14315120D01*
X12385360Y-13878880D02*
X12425360Y-13918880D01*
X12425360Y-13878880D02*
X12385360Y-13918880D01*
X12387900Y-8831900D02*
X12427900Y-8871900D01*
X12427900Y-8831900D02*
X12387900Y-8871900D01*
X12400600Y-4450400D02*
X12440600Y-4490400D01*
X12440600Y-4450400D02*
X12400600Y-4490400D01*
X12410760Y-14188760D02*
X12450760Y-14228760D01*
X12450760Y-14188760D02*
X12410760Y-14228760D01*
X12444228Y-12126221D02*
X12484228Y-12166221D01*
X12484228Y-12126221D02*
X12444228Y-12166221D01*
X12468511Y-13810005D02*
X12508511Y-13850005D01*
X12508511Y-13810005D02*
X12468511Y-13850005D01*
X12478771Y-14115517D02*
X12518771Y-14155517D01*
X12518771Y-14115517D02*
X12478771Y-14155517D01*
X12527600Y-12181350D02*
X12567600Y-12221350D01*
X12567600Y-12181350D02*
X12527600Y-12221350D01*
X12553000Y-14041440D02*
X12593000Y-14081440D01*
X12593000Y-14041440D02*
X12553000Y-14081440D01*
X12581553Y-4859954D02*
X12621553Y-4899954D01*
X12621553Y-4859954D02*
X12581553Y-4899954D01*
X12608880Y-13797600D02*
X12648880Y-13837600D01*
X12648880Y-13797600D02*
X12608880Y-13837600D01*
X12615180Y-10880169D02*
X12655180Y-10920169D01*
X12655180Y-10880169D02*
X12615180Y-10920169D01*
X12622559Y-12231350D02*
X12662559Y-12271350D01*
X12662559Y-12231350D02*
X12622559Y-12271350D01*
X12629200Y-1897700D02*
X12669200Y-1937700D01*
X12669200Y-1897700D02*
X12629200Y-1937700D01*
X12659680Y-14021850D02*
X12699680Y-14061850D01*
X12699680Y-14021850D02*
X12659680Y-14061850D01*
X12685080Y-6289360D02*
X12725080Y-6329360D01*
X12725080Y-6289360D02*
X12685080Y-6329360D01*
X12701553Y-3688400D02*
X12741553Y-3728400D01*
X12741553Y-3688400D02*
X12701553Y-3728400D01*
X12812080Y-14031280D02*
X12852080Y-14071280D01*
X12852080Y-14031280D02*
X12812080Y-14071280D01*
X12832400Y-7742240D02*
X12872400Y-7782240D01*
X12872400Y-7742240D02*
X12832400Y-7782240D01*
X12852720Y-12726250D02*
X12892720Y-12766250D01*
X12892720Y-12726250D02*
X12852720Y-12766250D01*
X12883200Y-13797600D02*
X12923200Y-13837600D01*
X12923200Y-13797600D02*
X12883200Y-13837600D01*
X12883200Y-15537950D02*
X12923200Y-15577950D01*
X12923200Y-15537950D02*
X12883200Y-15577950D01*
X12934000Y-15646720D02*
X12974000Y-15686720D01*
X12974000Y-15646720D02*
X12934000Y-15686720D01*
X12989880Y-13801950D02*
X13029880Y-13841950D01*
X13029880Y-13801950D02*
X12989880Y-13841950D01*
X13056364Y-12281350D02*
X13096364Y-12321350D01*
X13096364Y-12281350D02*
X13056364Y-12321350D01*
X13066080Y-5786440D02*
X13106080Y-5826440D01*
X13106080Y-5786440D02*
X13066080Y-5826440D01*
X13127040Y-12354880D02*
X13167040Y-12394880D01*
X13167040Y-12354880D02*
X13127040Y-12394880D01*
X13274360Y-12512360D02*
X13314360Y-12552360D01*
X13314360Y-12512360D02*
X13274360Y-12552360D01*
X13297576Y-12199584D02*
X13337576Y-12239584D01*
X13337576Y-12199584D02*
X13297576Y-12239584D01*
X13302300Y-5123500D02*
X13342300Y-5163500D01*
X13342300Y-5123500D02*
X13302300Y-5163500D01*
X13350560Y-5695000D02*
X13390560Y-5735000D01*
X13390560Y-5695000D02*
X13350560Y-5735000D01*
X13360720Y-10424480D02*
X13400720Y-10464480D01*
X13400720Y-10424480D02*
X13360720Y-10464480D01*
X13360720Y-12581350D02*
X13400720Y-12621350D01*
X13400720Y-12581350D02*
X13360720Y-12621350D01*
X13401360Y-12263440D02*
X13441360Y-12303440D01*
X13441360Y-12263440D02*
X13401360Y-12303440D01*
X13526337Y-4549150D02*
X13566337Y-4589150D01*
X13566337Y-4549150D02*
X13526337Y-4589150D01*
X13532698Y-11762280D02*
X13572698Y-11802280D01*
X13572698Y-11762280D02*
X13532698Y-11802280D01*
X13609640Y-11834730D02*
X13649640Y-11874730D01*
X13649640Y-11834730D02*
X13609640Y-11874730D01*
X13635040Y-12796840D02*
X13675040Y-12836840D01*
X13675040Y-12796840D02*
X13635040Y-12836840D01*
X13654419Y-12673110D02*
X13694419Y-12713110D01*
X13694419Y-12673110D02*
X13654419Y-12713110D01*
X13683300Y-4454050D02*
X13723300Y-4494050D01*
X13723300Y-4454050D02*
X13683300Y-4494050D01*
X13697950Y-10419400D02*
X13737950Y-10459400D01*
X13737950Y-10419400D02*
X13697950Y-10459400D01*
X13700275Y-5204975D02*
X13740275Y-5244975D01*
X13740275Y-5204975D02*
X13700275Y-5244975D01*
X13706160Y-12563160D02*
X13746160Y-12603160D01*
X13746160Y-12563160D02*
X13706160Y-12603160D01*
X13759500Y-5745800D02*
X13799500Y-5785800D01*
X13799500Y-5745800D02*
X13759500Y-5785800D01*
X13858560Y-11186480D02*
X13898560Y-11226480D01*
X13898560Y-11186480D02*
X13858560Y-11226480D01*
X13863640Y-10759760D02*
X13903640Y-10799760D01*
X13903640Y-10759760D02*
X13863640Y-10799760D01*
X13883960Y-11506520D02*
X13923960Y-11546520D01*
X13923960Y-11506520D02*
X13883960Y-11546520D01*
X13894120Y-4633280D02*
X13934120Y-4673280D01*
X13934120Y-4633280D02*
X13894120Y-4673280D01*
X13894355Y-10419461D02*
X13934355Y-10459461D01*
X13934355Y-10419461D02*
X13894355Y-10459461D01*
X13894550Y-11349040D02*
X13934550Y-11389040D01*
X13934550Y-11349040D02*
X13894550Y-11389040D01*
X13980480Y-12563160D02*
X14020480Y-12603160D01*
X14020480Y-12563160D02*
X13980480Y-12603160D01*
X13985560Y-12801920D02*
X14025560Y-12841920D01*
X14025560Y-12801920D02*
X13985560Y-12841920D01*
X14000800Y-3878900D02*
X14040800Y-3918900D01*
X14040800Y-3878900D02*
X14000800Y-3918900D01*
X14071920Y-11343960D02*
X14111920Y-11383960D01*
X14111920Y-11343960D02*
X14071920Y-11383960D01*
X14087160Y-11760520D02*
X14127160Y-11800520D01*
X14127160Y-11760520D02*
X14087160Y-11800520D01*
X14092240Y-10744520D02*
X14132240Y-10784520D01*
X14132240Y-10744520D02*
X14092240Y-10784520D01*
X14092240Y-11161080D02*
X14132240Y-11201080D01*
X14132240Y-11161080D02*
X14092240Y-11201080D01*
X14107480Y-12212640D02*
X14147480Y-12252640D01*
X14147480Y-12212640D02*
X14107480Y-12252640D01*
X14117640Y-3917000D02*
X14157640Y-3957000D01*
X14157640Y-3917000D02*
X14117640Y-3957000D01*
X14123414Y-4184723D02*
X14163414Y-4224723D01*
X14163414Y-4184723D02*
X14123414Y-4224723D01*
X14140500Y-15855000D02*
X14180500Y-15895000D01*
X14180500Y-15855000D02*
X14140500Y-15895000D01*
X14158280Y-11430320D02*
X14198280Y-11470320D01*
X14198280Y-11430320D02*
X14158280Y-11470320D01*
X14285280Y-10404160D02*
X14325280Y-10444160D01*
X14325280Y-10404160D02*
X14285280Y-10444160D01*
X14336080Y-12202480D02*
X14376080Y-12242480D01*
X14376080Y-12202480D02*
X14336080Y-12242480D01*
X14346240Y-12024680D02*
X14386240Y-12064680D01*
X14386240Y-12024680D02*
X14346240Y-12064680D01*
X14369100Y-5441000D02*
X14409100Y-5481000D01*
X14409100Y-5441000D02*
X14369100Y-5481000D01*
X14394500Y-5606100D02*
X14434500Y-5646100D01*
X14434500Y-5606100D02*
X14394500Y-5646100D01*
X14394500Y-5606100D02*
X14434500Y-5646100D01*
X14434500Y-5606100D02*
X14394500Y-5646100D01*
X14442760Y-12214050D02*
X14482760Y-12254050D01*
X14482760Y-12214050D02*
X14442760Y-12254050D01*
X14496100Y-5271050D02*
X14536100Y-5311050D01*
X14536100Y-5271050D02*
X14496100Y-5311050D01*
X14539280Y-14869480D02*
X14579280Y-14909480D01*
X14579280Y-14869480D02*
X14539280Y-14909480D01*
X14544360Y-14757720D02*
X14584360Y-14797720D01*
X14584360Y-14757720D02*
X14544360Y-14797720D01*
X14547650Y-15001560D02*
X14587650Y-15041560D01*
X14587650Y-15001560D02*
X14547650Y-15041560D01*
X14597700Y-5187000D02*
X14637700Y-5227000D01*
X14637700Y-5187000D02*
X14597700Y-5227000D01*
X14623100Y-5563650D02*
X14663100Y-5603650D01*
X14663100Y-5563650D02*
X14623100Y-5603650D01*
X14640880Y-15255560D02*
X14680880Y-15295560D01*
X14680880Y-15255560D02*
X14640880Y-15295560D01*
X14661200Y-12578400D02*
X14701200Y-12618400D01*
X14701200Y-12578400D02*
X14661200Y-12618400D01*
X14661200Y-13759500D02*
X14701200Y-13799500D01*
X14701200Y-13759500D02*
X14661200Y-13799500D01*
X14664975Y-15388945D02*
X14704975Y-15428945D01*
X14704975Y-15388945D02*
X14664975Y-15428945D01*
X14686600Y-12801920D02*
X14726600Y-12841920D01*
X14726600Y-12801920D02*
X14686600Y-12841920D01*
X14701840Y-15001560D02*
X14741840Y-15041560D01*
X14741840Y-15001560D02*
X14701840Y-15041560D01*
X14717080Y-14757720D02*
X14757080Y-14797720D01*
X14757080Y-14757720D02*
X14717080Y-14797720D01*
X14775500Y-15499400D02*
X14815500Y-15539400D01*
X14815500Y-15499400D02*
X14775500Y-15539400D01*
X14778040Y-11923080D02*
X14818040Y-11963080D01*
X14818040Y-11923080D02*
X14778040Y-11963080D01*
X14808520Y-15077760D02*
X14848520Y-15117760D01*
X14848520Y-15077760D02*
X14808520Y-15117760D01*
X14846150Y-13746800D02*
X14886150Y-13786800D01*
X14886150Y-13746800D02*
X14846150Y-13786800D01*
X14854450Y-11836720D02*
X14894450Y-11876720D01*
X14894450Y-11836720D02*
X14854450Y-11876720D01*
X14869480Y-12583480D02*
X14909480Y-12623480D01*
X14909480Y-12583480D02*
X14869480Y-12623480D01*
X14978700Y-13784900D02*
X15018700Y-13824900D01*
X15018700Y-13784900D02*
X14978700Y-13824900D01*
X15105700Y-2240600D02*
X15145700Y-2280600D01*
X15145700Y-2240600D02*
X15105700Y-2280600D01*
X15131100Y-14356400D02*
X15171100Y-14396400D01*
X15171100Y-14356400D02*
X15131100Y-14396400D01*
X15173078Y-14736198D02*
X15213078Y-14776198D01*
X15213078Y-14736198D02*
X15173078Y-14776198D01*
X15184440Y-15844840D02*
X15224440Y-15884840D01*
X15224440Y-15844840D02*
X15184440Y-15884840D01*
X15209840Y-12512950D02*
X15249840Y-12552950D01*
X15249840Y-12512950D02*
X15209840Y-12552950D01*
X15270800Y-13899200D02*
X15310800Y-13939200D01*
X15310800Y-13899200D02*
X15270800Y-13939200D01*
X15321600Y-2253300D02*
X15361600Y-2293300D01*
X15361600Y-2253300D02*
X15321600Y-2293300D01*
X15352080Y-15717840D02*
X15392080Y-15757840D01*
X15392080Y-15717840D02*
X15352080Y-15757840D01*
X15474000Y-2253300D02*
X15514000Y-2293300D01*
X15514000Y-2253300D02*
X15474000Y-2293300D01*
X15489240Y-15743240D02*
X15529240Y-15783240D01*
X15529240Y-15743240D02*
X15489240Y-15783240D01*
X15504650Y-13823000D02*
X15544650Y-13863000D01*
X15544650Y-13823000D02*
X15504650Y-13863000D01*
X15545120Y-15143800D02*
X15585120Y-15183800D01*
X15585120Y-15143800D02*
X15545120Y-15183800D01*
X15575600Y-12260550D02*
X15615600Y-12300550D01*
X15615600Y-12260550D02*
X15575600Y-12300550D01*
X15651800Y-2253300D02*
X15691800Y-2293300D01*
X15691800Y-2253300D02*
X15651800Y-2293300D01*
X15672120Y-15815690D02*
X15712120Y-15855690D01*
X15712120Y-15815690D02*
X15672120Y-15855690D01*
X15712760Y-11244550D02*
X15752760Y-11284550D01*
X15752760Y-11244550D02*
X15712760Y-11284550D01*
X15855000Y-2253300D02*
X15895000Y-2293300D01*
X15895000Y-2253300D02*
X15855000Y-2293300D01*
X16020100Y-2266000D02*
X16060100Y-2306000D01*
X16060100Y-2266000D02*
X16020100Y-2306000D01*
X16032800Y-14353950D02*
X16072800Y-14393950D01*
X16072800Y-14353950D02*
X16032800Y-14393950D01*
X16134400Y-13797600D02*
X16174400Y-13837600D01*
X16174400Y-13797600D02*
X16134400Y-13837600D01*
X16171614Y-5363930D02*
X16211614Y-5403930D01*
X16211614Y-5363930D02*
X16171614Y-5403930D01*
X16223300Y-2253300D02*
X16263300Y-2293300D01*
X16263300Y-2253300D02*
X16223300Y-2293300D01*
X16223300Y-15499400D02*
X16263300Y-15539400D01*
X16263300Y-15499400D02*
X16223300Y-15539400D01*
X16312200Y-13442000D02*
X16352200Y-13482000D01*
X16352200Y-13442000D02*
X16312200Y-13482000D01*
X16334150Y-13937300D02*
X16374150Y-13977300D01*
X16374150Y-13937300D02*
X16334150Y-13977300D01*
X16334150Y-14178600D02*
X16374150Y-14218600D01*
X16374150Y-14178600D02*
X16334150Y-14218600D01*
X16334150Y-14305600D02*
X16374150Y-14345600D01*
X16374150Y-14305600D02*
X16334150Y-14345600D01*
X16384650Y-5225950D02*
X16424650Y-5265950D01*
X16424650Y-5225950D02*
X16384650Y-5265950D01*
X16417800Y-5330700D02*
X16457800Y-5370700D01*
X16457800Y-5330700D02*
X16417800Y-5370700D01*
X16434120Y-10322880D02*
X16474120Y-10362880D01*
X16474120Y-10322880D02*
X16434120Y-10362880D01*
X16439200Y-5031050D02*
X16479200Y-5071050D01*
X16479200Y-5031050D02*
X16439200Y-5071050D01*
X16515400Y-9535480D02*
X16555400Y-9575480D01*
X16555400Y-9535480D02*
X16515400Y-9575480D01*
X16530640Y-12151680D02*
X16570640Y-12191680D01*
X16570640Y-12151680D02*
X16530640Y-12191680D01*
X16606840Y-7818440D02*
X16646840Y-7858440D01*
X16646840Y-7818440D02*
X16606840Y-7858440D01*
X16606840Y-11953560D02*
X16646840Y-11993560D01*
X16646840Y-11953560D02*
X16606840Y-11993560D01*
X16677960Y-6330000D02*
X16717960Y-6370000D01*
X16717960Y-6330000D02*
X16677960Y-6370000D01*
X16684450Y-11526840D02*
X16724450Y-11566840D01*
X16724450Y-11526840D02*
X16684450Y-11566840D01*
X16684450Y-11760520D02*
X16724450Y-11800520D01*
X16724450Y-11760520D02*
X16684450Y-11800520D01*
X16699120Y-16077680D02*
X16739120Y-16117680D01*
X16739120Y-16077680D02*
X16699120Y-16117680D01*
X16728550Y-4818700D02*
X16768550Y-4858700D01*
X16768550Y-4818700D02*
X16728550Y-4858700D01*
X16769400Y-9530400D02*
X16809400Y-9570400D01*
X16809400Y-9530400D02*
X16769400Y-9570400D01*
X16769400Y-10368600D02*
X16809400Y-10408600D01*
X16809400Y-10368600D02*
X16769400Y-10408600D01*
X16871000Y-11526840D02*
X16911000Y-11566840D01*
X16911000Y-11526840D02*
X16871000Y-11566840D01*
X16876080Y-11770680D02*
X16916080Y-11810680D01*
X16916080Y-11770680D02*
X16876080Y-11810680D01*
X16896400Y-9428800D02*
X16936400Y-9468800D01*
X16936400Y-9428800D02*
X16896400Y-9468800D01*
X16906560Y-7813360D02*
X16946560Y-7853360D01*
X16946560Y-7813360D02*
X16906560Y-7853360D01*
X16909100Y-16003650D02*
X16949100Y-16043650D01*
X16949100Y-16003650D02*
X16909100Y-16043650D01*
X16926880Y-6462080D02*
X16966880Y-6502080D01*
X16966880Y-6462080D02*
X16926880Y-6502080D01*
X16934500Y-2418400D02*
X16974500Y-2458400D01*
X16974500Y-2418400D02*
X16934500Y-2458400D01*
X16937040Y-11328720D02*
X16977040Y-11368720D01*
X16977040Y-11328720D02*
X16937040Y-11368720D01*
X16967520Y-9560880D02*
X17007520Y-9600880D01*
X17007520Y-9560880D02*
X16967520Y-9600880D01*
X16967520Y-10368600D02*
X17007520Y-10408600D01*
X17007520Y-10368600D02*
X16967520Y-10408600D01*
X17023400Y-4755200D02*
X17063400Y-4795200D01*
X17063400Y-4755200D02*
X17023400Y-4795200D01*
X17040444Y-6436216D02*
X17080444Y-6476216D01*
X17080444Y-6436216D02*
X17040444Y-6476216D01*
X17043720Y-7777800D02*
X17083720Y-7817800D01*
X17083720Y-7777800D02*
X17043720Y-7817800D01*
X17048800Y-4995850D02*
X17088800Y-5035850D01*
X17088800Y-4995850D02*
X17048800Y-5035850D01*
X17086900Y-15080300D02*
X17126900Y-15120300D01*
X17126900Y-15080300D02*
X17086900Y-15120300D01*
X17112300Y-14153200D02*
X17152300Y-14193200D01*
X17152300Y-14153200D02*
X17112300Y-14193200D01*
X17119920Y-9561850D02*
X17159920Y-9601850D01*
X17159920Y-9561850D02*
X17119920Y-9601850D01*
X17140240Y-6441760D02*
X17180240Y-6481760D01*
X17180240Y-6441760D02*
X17140240Y-6481760D01*
X17150400Y-5339400D02*
X17190400Y-5379400D01*
X17190400Y-5339400D02*
X17150400Y-5379400D01*
X17165640Y-6883720D02*
X17205640Y-6923720D01*
X17205640Y-6883720D02*
X17165640Y-6923720D01*
X17175800Y-3777300D02*
X17215800Y-3817300D01*
X17215800Y-3777300D02*
X17175800Y-3817300D01*
X17188500Y-4374200D02*
X17228500Y-4414200D01*
X17228500Y-4374200D02*
X17188500Y-4414200D01*
X17231680Y-10368600D02*
X17271680Y-10408600D01*
X17271680Y-10368600D02*
X17231680Y-10408600D01*
X17236760Y-9550720D02*
X17276760Y-9590720D01*
X17276760Y-9550720D02*
X17236760Y-9590720D01*
X17246090Y-6955670D02*
X17286090Y-6995670D01*
X17286090Y-6955670D02*
X17246090Y-6995670D01*
X17267063Y-6405789D02*
X17307063Y-6445789D01*
X17307063Y-6405789D02*
X17267063Y-6445789D01*
X17276877Y-3815923D02*
X17316877Y-3855923D01*
X17316877Y-3815923D02*
X17276877Y-3855923D01*
X17290100Y-4617250D02*
X17330100Y-4657250D01*
X17330100Y-4617250D02*
X17290100Y-4657250D01*
X17304130Y-10475280D02*
X17344130Y-10515280D01*
X17344130Y-10475280D02*
X17304130Y-10515280D01*
X17343440Y-5882960D02*
X17383440Y-5922960D01*
X17383440Y-5882960D02*
X17343440Y-5922960D01*
X17343440Y-7056440D02*
X17383440Y-7096440D01*
X17383440Y-7056440D02*
X17343440Y-7096440D01*
X17343440Y-9561850D02*
X17383440Y-9601850D01*
X17383440Y-9561850D02*
X17343440Y-9601850D01*
X17348520Y-10327960D02*
X17388520Y-10367960D01*
X17388520Y-10327960D02*
X17348520Y-10367960D01*
X17404400Y-14242100D02*
X17444400Y-14282100D01*
X17444400Y-14242100D02*
X17404400Y-14282100D01*
X17414826Y-14903914D02*
X17454826Y-14943914D01*
X17454826Y-14903914D02*
X17414826Y-14943914D01*
X17417100Y-15931200D02*
X17457100Y-15971200D01*
X17457100Y-15931200D02*
X17417100Y-15971200D01*
X17442500Y-5301300D02*
X17482500Y-5341300D01*
X17482500Y-5301300D02*
X17442500Y-5341300D01*
X17518700Y-14242100D02*
X17558700Y-14282100D01*
X17558700Y-14242100D02*
X17518700Y-14282100D01*
X17531400Y-4472350D02*
X17571400Y-4512350D01*
X17571400Y-4472350D02*
X17531400Y-4512350D01*
X17619091Y-14314673D02*
X17659091Y-14354673D01*
X17659091Y-14314673D02*
X17619091Y-14354673D01*
X17721900Y-15042200D02*
X17761900Y-15082200D01*
X17761900Y-15042200D02*
X17721900Y-15082200D01*
X17861600Y-14242100D02*
X17901600Y-14282100D01*
X17901600Y-14242100D02*
X17861600Y-14282100D01*
X18395000Y-5187000D02*
X18435000Y-5227000D01*
X18435000Y-5187000D02*
X18395000Y-5227000D01*
X18433100Y-5060000D02*
X18473100Y-5100000D01*
X18473100Y-5060000D02*
X18433100Y-5100000D01*
X18458500Y-5314000D02*
X18498500Y-5354000D01*
X18498500Y-5314000D02*
X18458500Y-5354000D01*
X18471200Y-4933000D02*
X18511200Y-4973000D01*
X18511200Y-4933000D02*
X18471200Y-4973000D01*
X18598200Y-5187000D02*
X18638200Y-5227000D01*
X18638200Y-5187000D02*
X18598200Y-5227000D01*
X18598200Y-5339400D02*
X18638200Y-5379400D01*
X18638200Y-5339400D02*
X18598200Y-5379400D01*
X18610900Y-5047300D02*
X18650900Y-5087300D01*
X18650900Y-5047300D02*
X18610900Y-5087300D01*
X18661700Y-3650300D02*
X18701700Y-3690300D01*
X18701700Y-3650300D02*
X18661700Y-3690300D01*
X18687100Y-4907600D02*
X18727100Y-4947600D01*
X18727100Y-4907600D02*
X18687100Y-4947600D01*
X18737900Y-5174300D02*
X18777900Y-5214300D01*
X18777900Y-5174300D02*
X18737900Y-5214300D01*
X18750600Y-5288600D02*
X18790600Y-5328600D01*
X18790600Y-5288600D02*
X18750600Y-5328600D01*
X18801400Y-5072700D02*
X18841400Y-5112700D01*
X18841400Y-5072700D02*
X18801400Y-5112700D01*
X18908550Y-14521500D02*
X18948550Y-14561500D01*
X18948550Y-14521500D02*
X18908550Y-14561500D01*
X19077690Y-3234310D02*
X19117690Y-3274310D01*
X19117690Y-3234310D02*
X19077690Y-3274310D01*
X19131600Y-4617250D02*
X19171600Y-4657250D01*
X19171600Y-4617250D02*
X19131600Y-4657250D01*
X19372900Y-16007400D02*
X19412900Y-16047400D01*
X19412900Y-16007400D02*
X19372900Y-16047400D01*
X19436400Y-14940600D02*
X19476400Y-14980600D01*
X19476400Y-14940600D02*
X19436400Y-14980600D01*
X19525300Y-2418400D02*
X19565300Y-2458400D01*
X19565300Y-2418400D02*
X19525300Y-2458400D01*
X19576100Y-2735900D02*
X19616100Y-2775900D01*
X19616100Y-2735900D02*
X19576100Y-2775900D01*
X19576100Y-4764150D02*
X19616100Y-4804150D01*
X19616100Y-4764150D02*
X19576100Y-4804150D01*
X19677610Y-4678910D02*
X19717610Y-4718910D01*
X19717610Y-4678910D02*
X19677610Y-4718910D01*
D10*
X5959500Y-7065000D02*
G75*
G03*
X5959500Y-7065000I-50000J0D01*
G01*
X7766520Y-15331440D02*
G75*
G03*
X7766520Y-15331440I-50000J0D01*
G01*
X15188400Y-13335000D02*
G75*
G03*
X15188400Y-13335000I-50000J0D01*
G01*
X16433000Y-5880100D02*
G75*
G03*
X16433000Y-5880100I-50000J0D01*
G01*
D13*
X7852600Y-2221000D02*
X7852600Y-2351000D01*
X7787600Y-2286000D02*
X7917600Y-2286000D01*
X8804600Y-2221000D02*
X8804600Y-2351000D01*
X8739600Y-2286000D02*
X8869600Y-2286000D01*
X10468800Y-2221000D02*
X10468800Y-2351000D01*
X10403800Y-2286000D02*
X10533800Y-2286000D01*
X11420800Y-2221000D02*
X11420800Y-2351000D01*
X11355800Y-2286000D02*
X11485800Y-2286000D01*
X14618200Y-9256800D02*
X14618200Y-9386800D01*
X14553200Y-9321800D02*
X14683200Y-9321800D01*
X15570200Y-9256800D02*
X15570200Y-9386800D01*
X15505200Y-9321800D02*
X15635200Y-9321800D01*
D14*
X5071298Y-2134498D02*
X5071298Y-2035502D01*
X4972302Y-2035502D01*
X4972302Y-2134498D01*
X5071298Y-2134498D01*
X5071298Y-2634498D02*
X5071298Y-2535502D01*
X4972302Y-2535502D01*
X4972302Y-2634498D01*
X5071298Y-2634498D01*
X5071298Y-3134498D02*
X5071298Y-3035502D01*
X4972302Y-3035502D01*
X4972302Y-3134498D01*
X5071298Y-3134498D01*
X5074898Y-14958498D02*
X5074898Y-14859502D01*
X4975902Y-14859502D01*
X4975902Y-14958498D01*
X5074898Y-14958498D01*
X5074898Y-15458498D02*
X5074898Y-15359502D01*
X4975902Y-15359502D01*
X4975902Y-15458498D01*
X5074898Y-15458498D01*
X5074898Y-15958498D02*
X5074898Y-15859502D01*
X4975902Y-15859502D01*
X4975902Y-15958498D01*
X5074898Y-15958498D01*
X18678998Y-2074498D02*
X18678998Y-1975502D01*
X18580002Y-1975502D01*
X18580002Y-2074498D01*
X18678998Y-2074498D01*
X18678998Y-2574498D02*
X18678998Y-2475502D01*
X18580002Y-2475502D01*
X18580002Y-2574498D01*
X18678998Y-2574498D01*
X18678998Y-3074498D02*
X18678998Y-2975502D01*
X18580002Y-2975502D01*
X18580002Y-3074498D01*
X18678998Y-3074498D01*
X18693098Y-14899098D02*
X18693098Y-14800102D01*
X18594102Y-14800102D01*
X18594102Y-14899098D01*
X18693098Y-14899098D01*
X18693098Y-15399098D02*
X18693098Y-15300102D01*
X18594102Y-15300102D01*
X18594102Y-15399098D01*
X18693098Y-15399098D01*
X18693098Y-15899098D02*
X18693098Y-15800102D01*
X18594102Y-15800102D01*
X18594102Y-15899098D01*
X18693098Y-15899098D01*
D11*
X2973577Y-17055084D02*
X2973577Y-16855084D01*
X2973577Y-16855084D02*
X3021196Y-16855084D01*
X3021196Y-16855084D02*
X3049767Y-16864608D01*
X3049767Y-16864608D02*
X3068815Y-16883655D01*
X3068815Y-16883655D02*
X3078339Y-16902703D01*
X3078339Y-16902703D02*
X3087862Y-16940798D01*
X3087862Y-16940798D02*
X3087862Y-16969370D01*
X3087862Y-16969370D02*
X3078339Y-17007465D01*
X3078339Y-17007465D02*
X3068815Y-17026512D01*
X3068815Y-17026512D02*
X3049767Y-17045560D01*
X3049767Y-17045560D02*
X3021196Y-17055084D01*
X3021196Y-17055084D02*
X2973577Y-17055084D01*
X3173577Y-17055084D02*
X3173577Y-16921750D01*
X3173577Y-16959846D02*
X3183101Y-16940798D01*
X3183101Y-16940798D02*
X3192624Y-16931274D01*
X3192624Y-16931274D02*
X3211672Y-16921750D01*
X3211672Y-16921750D02*
X3230720Y-16921750D01*
X3297386Y-17055084D02*
X3297386Y-16921750D01*
X3297386Y-16855084D02*
X3287862Y-16864608D01*
X3287862Y-16864608D02*
X3297386Y-16874131D01*
X3297386Y-16874131D02*
X3306910Y-16864608D01*
X3306910Y-16864608D02*
X3297386Y-16855084D01*
X3297386Y-16855084D02*
X3297386Y-16874131D01*
X3421196Y-17055084D02*
X3402148Y-17045560D01*
X3402148Y-17045560D02*
X3392624Y-17026512D01*
X3392624Y-17026512D02*
X3392624Y-16855084D01*
X3525958Y-17055084D02*
X3506910Y-17045560D01*
X3506910Y-17045560D02*
X3497386Y-17026512D01*
X3497386Y-17026512D02*
X3497386Y-16855084D01*
X3754529Y-17055084D02*
X3754529Y-16855084D01*
X3754529Y-16855084D02*
X3821196Y-16997941D01*
X3821196Y-16997941D02*
X3887862Y-16855084D01*
X3887862Y-16855084D02*
X3887862Y-17055084D01*
X4068815Y-17055084D02*
X4068815Y-16950322D01*
X4068815Y-16950322D02*
X4059291Y-16931274D01*
X4059291Y-16931274D02*
X4040243Y-16921750D01*
X4040243Y-16921750D02*
X4002148Y-16921750D01*
X4002148Y-16921750D02*
X3983101Y-16931274D01*
X4068815Y-17045560D02*
X4049767Y-17055084D01*
X4049767Y-17055084D02*
X4002148Y-17055084D01*
X4002148Y-17055084D02*
X3983101Y-17045560D01*
X3983101Y-17045560D02*
X3973577Y-17026512D01*
X3973577Y-17026512D02*
X3973577Y-17007465D01*
X3973577Y-17007465D02*
X3983101Y-16988417D01*
X3983101Y-16988417D02*
X4002148Y-16978893D01*
X4002148Y-16978893D02*
X4049767Y-16978893D01*
X4049767Y-16978893D02*
X4068815Y-16969370D01*
X4164053Y-16921750D02*
X4164053Y-17121750D01*
X4164053Y-16931274D02*
X4183101Y-16921750D01*
X4183101Y-16921750D02*
X4221196Y-16921750D01*
X4221196Y-16921750D02*
X4240244Y-16931274D01*
X4240244Y-16931274D02*
X4249767Y-16940798D01*
X4249767Y-16940798D02*
X4259291Y-16959846D01*
X4259291Y-16959846D02*
X4259291Y-17016989D01*
X4259291Y-17016989D02*
X4249767Y-17036036D01*
X4249767Y-17036036D02*
X4240244Y-17045560D01*
X4240244Y-17045560D02*
X4221196Y-17055084D01*
X4221196Y-17055084D02*
X4183101Y-17055084D01*
X4183101Y-17055084D02*
X4164053Y-17045560D01*
X4345005Y-17036036D02*
X4354529Y-17045560D01*
X4354529Y-17045560D02*
X4345005Y-17055084D01*
X4345005Y-17055084D02*
X4335482Y-17045560D01*
X4335482Y-17045560D02*
X4345005Y-17036036D01*
X4345005Y-17036036D02*
X4345005Y-17055084D01*
X4345005Y-16931274D02*
X4354529Y-16940798D01*
X4354529Y-16940798D02*
X4345005Y-16950322D01*
X4345005Y-16950322D02*
X4335482Y-16940798D01*
X4335482Y-16940798D02*
X4345005Y-16931274D01*
X4345005Y-16931274D02*
X4345005Y-16950322D01*
D12*
X2672800Y-17363600D02*
X2712800Y-17403600D01*
X2712800Y-17363600D02*
X2672800Y-17403600D01*
D11*
X3011672Y-17275084D02*
X3030720Y-17275084D01*
X3030720Y-17275084D02*
X3049767Y-17284608D01*
X3049767Y-17284608D02*
X3059291Y-17294131D01*
X3059291Y-17294131D02*
X3068815Y-17313179D01*
X3068815Y-17313179D02*
X3078339Y-17351274D01*
X3078339Y-17351274D02*
X3078339Y-17398893D01*
X3078339Y-17398893D02*
X3068815Y-17436989D01*
X3068815Y-17436989D02*
X3059291Y-17456036D01*
X3059291Y-17456036D02*
X3049767Y-17465560D01*
X3049767Y-17465560D02*
X3030720Y-17475084D01*
X3030720Y-17475084D02*
X3011672Y-17475084D01*
X3011672Y-17475084D02*
X2992624Y-17465560D01*
X2992624Y-17465560D02*
X2983101Y-17456036D01*
X2983101Y-17456036D02*
X2973577Y-17436989D01*
X2973577Y-17436989D02*
X2964053Y-17398893D01*
X2964053Y-17398893D02*
X2964053Y-17351274D01*
X2964053Y-17351274D02*
X2973577Y-17313179D01*
X2973577Y-17313179D02*
X2983101Y-17294131D01*
X2983101Y-17294131D02*
X2992624Y-17284608D01*
X2992624Y-17284608D02*
X3011672Y-17275084D01*
X3164053Y-17456036D02*
X3173577Y-17465560D01*
X3173577Y-17465560D02*
X3164053Y-17475084D01*
X3164053Y-17475084D02*
X3154529Y-17465560D01*
X3154529Y-17465560D02*
X3164053Y-17456036D01*
X3164053Y-17456036D02*
X3164053Y-17475084D01*
X3345005Y-17341750D02*
X3345005Y-17475084D01*
X3297386Y-17265560D02*
X3249767Y-17408417D01*
X3249767Y-17408417D02*
X3373577Y-17408417D01*
X3487862Y-17275084D02*
X3506910Y-17275084D01*
X3506910Y-17275084D02*
X3525958Y-17284608D01*
X3525958Y-17284608D02*
X3535482Y-17294131D01*
X3535482Y-17294131D02*
X3545005Y-17313179D01*
X3545005Y-17313179D02*
X3554529Y-17351274D01*
X3554529Y-17351274D02*
X3554529Y-17398893D01*
X3554529Y-17398893D02*
X3545005Y-17436989D01*
X3545005Y-17436989D02*
X3535482Y-17456036D01*
X3535482Y-17456036D02*
X3525958Y-17465560D01*
X3525958Y-17465560D02*
X3506910Y-17475084D01*
X3506910Y-17475084D02*
X3487862Y-17475084D01*
X3487862Y-17475084D02*
X3468815Y-17465560D01*
X3468815Y-17465560D02*
X3459291Y-17456036D01*
X3459291Y-17456036D02*
X3449767Y-17436989D01*
X3449767Y-17436989D02*
X3440243Y-17398893D01*
X3440243Y-17398893D02*
X3440243Y-17351274D01*
X3440243Y-17351274D02*
X3449767Y-17313179D01*
X3449767Y-17313179D02*
X3459291Y-17294131D01*
X3459291Y-17294131D02*
X3468815Y-17284608D01*
X3468815Y-17284608D02*
X3487862Y-17275084D01*
X3678339Y-17275084D02*
X3697386Y-17275084D01*
X3697386Y-17275084D02*
X3716434Y-17284608D01*
X3716434Y-17284608D02*
X3725958Y-17294131D01*
X3725958Y-17294131D02*
X3735482Y-17313179D01*
X3735482Y-17313179D02*
X3745005Y-17351274D01*
X3745005Y-17351274D02*
X3745005Y-17398893D01*
X3745005Y-17398893D02*
X3735482Y-17436989D01*
X3735482Y-17436989D02*
X3725958Y-17456036D01*
X3725958Y-17456036D02*
X3716434Y-17465560D01*
X3716434Y-17465560D02*
X3697386Y-17475084D01*
X3697386Y-17475084D02*
X3678339Y-17475084D01*
X3678339Y-17475084D02*
X3659291Y-17465560D01*
X3659291Y-17465560D02*
X3649767Y-17456036D01*
X3649767Y-17456036D02*
X3640243Y-17436989D01*
X3640243Y-17436989D02*
X3630720Y-17398893D01*
X3630720Y-17398893D02*
X3630720Y-17351274D01*
X3630720Y-17351274D02*
X3640243Y-17313179D01*
X3640243Y-17313179D02*
X3649767Y-17294131D01*
X3649767Y-17294131D02*
X3659291Y-17284608D01*
X3659291Y-17284608D02*
X3678339Y-17275084D01*
X3830720Y-17475084D02*
X3830720Y-17341750D01*
X3830720Y-17360798D02*
X3840243Y-17351274D01*
X3840243Y-17351274D02*
X3859291Y-17341750D01*
X3859291Y-17341750D02*
X3887863Y-17341750D01*
X3887863Y-17341750D02*
X3906910Y-17351274D01*
X3906910Y-17351274D02*
X3916434Y-17370322D01*
X3916434Y-17370322D02*
X3916434Y-17475084D01*
X3916434Y-17370322D02*
X3925958Y-17351274D01*
X3925958Y-17351274D02*
X3945005Y-17341750D01*
X3945005Y-17341750D02*
X3973577Y-17341750D01*
X3973577Y-17341750D02*
X3992624Y-17351274D01*
X3992624Y-17351274D02*
X4002148Y-17370322D01*
X4002148Y-17370322D02*
X4002148Y-17475084D01*
X4097386Y-17475084D02*
X4097386Y-17341750D01*
X4097386Y-17360798D02*
X4106910Y-17351274D01*
X4106910Y-17351274D02*
X4125958Y-17341750D01*
X4125958Y-17341750D02*
X4154529Y-17341750D01*
X4154529Y-17341750D02*
X4173577Y-17351274D01*
X4173577Y-17351274D02*
X4183101Y-17370322D01*
X4183101Y-17370322D02*
X4183101Y-17475084D01*
X4183101Y-17370322D02*
X4192624Y-17351274D01*
X4192624Y-17351274D02*
X4211672Y-17341750D01*
X4211672Y-17341750D02*
X4240244Y-17341750D01*
X4240244Y-17341750D02*
X4259291Y-17351274D01*
X4259291Y-17351274D02*
X4268815Y-17370322D01*
X4268815Y-17370322D02*
X4268815Y-17475084D01*
X4659291Y-17265560D02*
X4487863Y-17522703D01*
X4916434Y-17275084D02*
X4935482Y-17275084D01*
X4935482Y-17275084D02*
X4954529Y-17284608D01*
X4954529Y-17284608D02*
X4964053Y-17294131D01*
X4964053Y-17294131D02*
X4973577Y-17313179D01*
X4973577Y-17313179D02*
X4983101Y-17351274D01*
X4983101Y-17351274D02*
X4983101Y-17398893D01*
X4983101Y-17398893D02*
X4973577Y-17436989D01*
X4973577Y-17436989D02*
X4964053Y-17456036D01*
X4964053Y-17456036D02*
X4954529Y-17465560D01*
X4954529Y-17465560D02*
X4935482Y-17475084D01*
X4935482Y-17475084D02*
X4916434Y-17475084D01*
X4916434Y-17475084D02*
X4897387Y-17465560D01*
X4897387Y-17465560D02*
X4887863Y-17456036D01*
X4887863Y-17456036D02*
X4878339Y-17436989D01*
X4878339Y-17436989D02*
X4868815Y-17398893D01*
X4868815Y-17398893D02*
X4868815Y-17351274D01*
X4868815Y-17351274D02*
X4878339Y-17313179D01*
X4878339Y-17313179D02*
X4887863Y-17294131D01*
X4887863Y-17294131D02*
X4897387Y-17284608D01*
X4897387Y-17284608D02*
X4916434Y-17275084D01*
X5068815Y-17456036D02*
X5078339Y-17465560D01*
X5078339Y-17465560D02*
X5068815Y-17475084D01*
X5068815Y-17475084D02*
X5059291Y-17465560D01*
X5059291Y-17465560D02*
X5068815Y-17456036D01*
X5068815Y-17456036D02*
X5068815Y-17475084D01*
X5202148Y-17275084D02*
X5221196Y-17275084D01*
X5221196Y-17275084D02*
X5240244Y-17284608D01*
X5240244Y-17284608D02*
X5249768Y-17294131D01*
X5249768Y-17294131D02*
X5259291Y-17313179D01*
X5259291Y-17313179D02*
X5268815Y-17351274D01*
X5268815Y-17351274D02*
X5268815Y-17398893D01*
X5268815Y-17398893D02*
X5259291Y-17436989D01*
X5259291Y-17436989D02*
X5249768Y-17456036D01*
X5249768Y-17456036D02*
X5240244Y-17465560D01*
X5240244Y-17465560D02*
X5221196Y-17475084D01*
X5221196Y-17475084D02*
X5202148Y-17475084D01*
X5202148Y-17475084D02*
X5183101Y-17465560D01*
X5183101Y-17465560D02*
X5173577Y-17456036D01*
X5173577Y-17456036D02*
X5164053Y-17436989D01*
X5164053Y-17436989D02*
X5154529Y-17398893D01*
X5154529Y-17398893D02*
X5154529Y-17351274D01*
X5154529Y-17351274D02*
X5164053Y-17313179D01*
X5164053Y-17313179D02*
X5173577Y-17294131D01*
X5173577Y-17294131D02*
X5183101Y-17284608D01*
X5183101Y-17284608D02*
X5202148Y-17275084D01*
X5459291Y-17475084D02*
X5345006Y-17475084D01*
X5402148Y-17475084D02*
X5402148Y-17275084D01*
X5402148Y-17275084D02*
X5383101Y-17303655D01*
X5383101Y-17303655D02*
X5364053Y-17322703D01*
X5364053Y-17322703D02*
X5345006Y-17332227D01*
X5640244Y-17275084D02*
X5545006Y-17275084D01*
X5545006Y-17275084D02*
X5535482Y-17370322D01*
X5535482Y-17370322D02*
X5545006Y-17360798D01*
X5545006Y-17360798D02*
X5564053Y-17351274D01*
X5564053Y-17351274D02*
X5611672Y-17351274D01*
X5611672Y-17351274D02*
X5630720Y-17360798D01*
X5630720Y-17360798D02*
X5640244Y-17370322D01*
X5640244Y-17370322D02*
X5649767Y-17389370D01*
X5649767Y-17389370D02*
X5649767Y-17436989D01*
X5649767Y-17436989D02*
X5640244Y-17456036D01*
X5640244Y-17456036D02*
X5630720Y-17465560D01*
X5630720Y-17465560D02*
X5611672Y-17475084D01*
X5611672Y-17475084D02*
X5564053Y-17475084D01*
X5564053Y-17475084D02*
X5545006Y-17465560D01*
X5545006Y-17465560D02*
X5535482Y-17456036D01*
X5716434Y-17275084D02*
X5849767Y-17275084D01*
X5849767Y-17275084D02*
X5764053Y-17475084D01*
X5916434Y-17275084D02*
X5916434Y-17313179D01*
X5992625Y-17275084D02*
X5992625Y-17313179D01*
X6287863Y-17551274D02*
X6278339Y-17541750D01*
X6278339Y-17541750D02*
X6259291Y-17513179D01*
X6259291Y-17513179D02*
X6249768Y-17494131D01*
X6249768Y-17494131D02*
X6240244Y-17465560D01*
X6240244Y-17465560D02*
X6230720Y-17417941D01*
X6230720Y-17417941D02*
X6230720Y-17379846D01*
X6230720Y-17379846D02*
X6240244Y-17332227D01*
X6240244Y-17332227D02*
X6249768Y-17303655D01*
X6249768Y-17303655D02*
X6259291Y-17284608D01*
X6259291Y-17284608D02*
X6278339Y-17256036D01*
X6278339Y-17256036D02*
X6287863Y-17246512D01*
X6345006Y-17275084D02*
X6468815Y-17275084D01*
X6468815Y-17275084D02*
X6402148Y-17351274D01*
X6402148Y-17351274D02*
X6430720Y-17351274D01*
X6430720Y-17351274D02*
X6449768Y-17360798D01*
X6449768Y-17360798D02*
X6459291Y-17370322D01*
X6459291Y-17370322D02*
X6468815Y-17389370D01*
X6468815Y-17389370D02*
X6468815Y-17436989D01*
X6468815Y-17436989D02*
X6459291Y-17456036D01*
X6459291Y-17456036D02*
X6449768Y-17465560D01*
X6449768Y-17465560D02*
X6430720Y-17475084D01*
X6430720Y-17475084D02*
X6373577Y-17475084D01*
X6373577Y-17475084D02*
X6354529Y-17465560D01*
X6354529Y-17465560D02*
X6345006Y-17456036D01*
X6564053Y-17475084D02*
X6602148Y-17475084D01*
X6602148Y-17475084D02*
X6621196Y-17465560D01*
X6621196Y-17465560D02*
X6630720Y-17456036D01*
X6630720Y-17456036D02*
X6649768Y-17427465D01*
X6649768Y-17427465D02*
X6659291Y-17389370D01*
X6659291Y-17389370D02*
X6659291Y-17313179D01*
X6659291Y-17313179D02*
X6649768Y-17294131D01*
X6649768Y-17294131D02*
X6640244Y-17284608D01*
X6640244Y-17284608D02*
X6621196Y-17275084D01*
X6621196Y-17275084D02*
X6583101Y-17275084D01*
X6583101Y-17275084D02*
X6564053Y-17284608D01*
X6564053Y-17284608D02*
X6554529Y-17294131D01*
X6554529Y-17294131D02*
X6545006Y-17313179D01*
X6545006Y-17313179D02*
X6545006Y-17360798D01*
X6545006Y-17360798D02*
X6554529Y-17379846D01*
X6554529Y-17379846D02*
X6564053Y-17389370D01*
X6564053Y-17389370D02*
X6583101Y-17398893D01*
X6583101Y-17398893D02*
X6621196Y-17398893D01*
X6621196Y-17398893D02*
X6640244Y-17389370D01*
X6640244Y-17389370D02*
X6649768Y-17379846D01*
X6649768Y-17379846D02*
X6659291Y-17360798D01*
X6725958Y-17275084D02*
X6859291Y-17275084D01*
X6859291Y-17275084D02*
X6773577Y-17475084D01*
X7087863Y-17475084D02*
X7087863Y-17275084D01*
X7173577Y-17475084D02*
X7173577Y-17370322D01*
X7173577Y-17370322D02*
X7164053Y-17351274D01*
X7164053Y-17351274D02*
X7145006Y-17341750D01*
X7145006Y-17341750D02*
X7116434Y-17341750D01*
X7116434Y-17341750D02*
X7097387Y-17351274D01*
X7097387Y-17351274D02*
X7087863Y-17360798D01*
X7297387Y-17475084D02*
X7278339Y-17465560D01*
X7278339Y-17465560D02*
X7268815Y-17456036D01*
X7268815Y-17456036D02*
X7259291Y-17436989D01*
X7259291Y-17436989D02*
X7259291Y-17379846D01*
X7259291Y-17379846D02*
X7268815Y-17360798D01*
X7268815Y-17360798D02*
X7278339Y-17351274D01*
X7278339Y-17351274D02*
X7297387Y-17341750D01*
X7297387Y-17341750D02*
X7325958Y-17341750D01*
X7325958Y-17341750D02*
X7345006Y-17351274D01*
X7345006Y-17351274D02*
X7354530Y-17360798D01*
X7354530Y-17360798D02*
X7364053Y-17379846D01*
X7364053Y-17379846D02*
X7364053Y-17436989D01*
X7364053Y-17436989D02*
X7354530Y-17456036D01*
X7354530Y-17456036D02*
X7345006Y-17465560D01*
X7345006Y-17465560D02*
X7325958Y-17475084D01*
X7325958Y-17475084D02*
X7297387Y-17475084D01*
X7478339Y-17475084D02*
X7459291Y-17465560D01*
X7459291Y-17465560D02*
X7449768Y-17446512D01*
X7449768Y-17446512D02*
X7449768Y-17275084D01*
X7630720Y-17465560D02*
X7611672Y-17475084D01*
X7611672Y-17475084D02*
X7573577Y-17475084D01*
X7573577Y-17475084D02*
X7554530Y-17465560D01*
X7554530Y-17465560D02*
X7545006Y-17446512D01*
X7545006Y-17446512D02*
X7545006Y-17370322D01*
X7545006Y-17370322D02*
X7554530Y-17351274D01*
X7554530Y-17351274D02*
X7573577Y-17341750D01*
X7573577Y-17341750D02*
X7611672Y-17341750D01*
X7611672Y-17341750D02*
X7630720Y-17351274D01*
X7630720Y-17351274D02*
X7640244Y-17370322D01*
X7640244Y-17370322D02*
X7640244Y-17389370D01*
X7640244Y-17389370D02*
X7545006Y-17408417D01*
X7716434Y-17465560D02*
X7735482Y-17475084D01*
X7735482Y-17475084D02*
X7773577Y-17475084D01*
X7773577Y-17475084D02*
X7792625Y-17465560D01*
X7792625Y-17465560D02*
X7802149Y-17446512D01*
X7802149Y-17446512D02*
X7802149Y-17436989D01*
X7802149Y-17436989D02*
X7792625Y-17417941D01*
X7792625Y-17417941D02*
X7773577Y-17408417D01*
X7773577Y-17408417D02*
X7745006Y-17408417D01*
X7745006Y-17408417D02*
X7725958Y-17398893D01*
X7725958Y-17398893D02*
X7716434Y-17379846D01*
X7716434Y-17379846D02*
X7716434Y-17370322D01*
X7716434Y-17370322D02*
X7725958Y-17351274D01*
X7725958Y-17351274D02*
X7745006Y-17341750D01*
X7745006Y-17341750D02*
X7773577Y-17341750D01*
X7773577Y-17341750D02*
X7792625Y-17351274D01*
X7868815Y-17551274D02*
X7878339Y-17541750D01*
X7878339Y-17541750D02*
X7897387Y-17513179D01*
X7897387Y-17513179D02*
X7906911Y-17494131D01*
X7906911Y-17494131D02*
X7916434Y-17465560D01*
X7916434Y-17465560D02*
X7925958Y-17417941D01*
X7925958Y-17417941D02*
X7925958Y-17379846D01*
X7925958Y-17379846D02*
X7916434Y-17332227D01*
X7916434Y-17332227D02*
X7906911Y-17303655D01*
X7906911Y-17303655D02*
X7897387Y-17284608D01*
X7897387Y-17284608D02*
X7878339Y-17256036D01*
X7878339Y-17256036D02*
X7868815Y-17246512D01*
D10*
X2712800Y-17647600D02*
G75*
G03*
X2712800Y-17647600I-50000J0D01*
G01*
D11*
X3078339Y-17739084D02*
X2964053Y-17739084D01*
X3021196Y-17739084D02*
X3021196Y-17539084D01*
X3021196Y-17539084D02*
X3002148Y-17567655D01*
X3002148Y-17567655D02*
X2983101Y-17586703D01*
X2983101Y-17586703D02*
X2964053Y-17596227D01*
X3164053Y-17720036D02*
X3173577Y-17729560D01*
X3173577Y-17729560D02*
X3164053Y-17739084D01*
X3164053Y-17739084D02*
X3154529Y-17729560D01*
X3154529Y-17729560D02*
X3164053Y-17720036D01*
X3164053Y-17720036D02*
X3164053Y-17739084D01*
X3297386Y-17539084D02*
X3316434Y-17539084D01*
X3316434Y-17539084D02*
X3335482Y-17548608D01*
X3335482Y-17548608D02*
X3345005Y-17558131D01*
X3345005Y-17558131D02*
X3354529Y-17577179D01*
X3354529Y-17577179D02*
X3364053Y-17615274D01*
X3364053Y-17615274D02*
X3364053Y-17662893D01*
X3364053Y-17662893D02*
X3354529Y-17700989D01*
X3354529Y-17700989D02*
X3345005Y-17720036D01*
X3345005Y-17720036D02*
X3335482Y-17729560D01*
X3335482Y-17729560D02*
X3316434Y-17739084D01*
X3316434Y-17739084D02*
X3297386Y-17739084D01*
X3297386Y-17739084D02*
X3278339Y-17729560D01*
X3278339Y-17729560D02*
X3268815Y-17720036D01*
X3268815Y-17720036D02*
X3259291Y-17700989D01*
X3259291Y-17700989D02*
X3249767Y-17662893D01*
X3249767Y-17662893D02*
X3249767Y-17615274D01*
X3249767Y-17615274D02*
X3259291Y-17577179D01*
X3259291Y-17577179D02*
X3268815Y-17558131D01*
X3268815Y-17558131D02*
X3278339Y-17548608D01*
X3278339Y-17548608D02*
X3297386Y-17539084D01*
X3487862Y-17539084D02*
X3506910Y-17539084D01*
X3506910Y-17539084D02*
X3525958Y-17548608D01*
X3525958Y-17548608D02*
X3535482Y-17558131D01*
X3535482Y-17558131D02*
X3545005Y-17577179D01*
X3545005Y-17577179D02*
X3554529Y-17615274D01*
X3554529Y-17615274D02*
X3554529Y-17662893D01*
X3554529Y-17662893D02*
X3545005Y-17700989D01*
X3545005Y-17700989D02*
X3535482Y-17720036D01*
X3535482Y-17720036D02*
X3525958Y-17729560D01*
X3525958Y-17729560D02*
X3506910Y-17739084D01*
X3506910Y-17739084D02*
X3487862Y-17739084D01*
X3487862Y-17739084D02*
X3468815Y-17729560D01*
X3468815Y-17729560D02*
X3459291Y-17720036D01*
X3459291Y-17720036D02*
X3449767Y-17700989D01*
X3449767Y-17700989D02*
X3440243Y-17662893D01*
X3440243Y-17662893D02*
X3440243Y-17615274D01*
X3440243Y-17615274D02*
X3449767Y-17577179D01*
X3449767Y-17577179D02*
X3459291Y-17558131D01*
X3459291Y-17558131D02*
X3468815Y-17548608D01*
X3468815Y-17548608D02*
X3487862Y-17539084D01*
X3678339Y-17539084D02*
X3697386Y-17539084D01*
X3697386Y-17539084D02*
X3716434Y-17548608D01*
X3716434Y-17548608D02*
X3725958Y-17558131D01*
X3725958Y-17558131D02*
X3735482Y-17577179D01*
X3735482Y-17577179D02*
X3745005Y-17615274D01*
X3745005Y-17615274D02*
X3745005Y-17662893D01*
X3745005Y-17662893D02*
X3735482Y-17700989D01*
X3735482Y-17700989D02*
X3725958Y-17720036D01*
X3725958Y-17720036D02*
X3716434Y-17729560D01*
X3716434Y-17729560D02*
X3697386Y-17739084D01*
X3697386Y-17739084D02*
X3678339Y-17739084D01*
X3678339Y-17739084D02*
X3659291Y-17729560D01*
X3659291Y-17729560D02*
X3649767Y-17720036D01*
X3649767Y-17720036D02*
X3640243Y-17700989D01*
X3640243Y-17700989D02*
X3630720Y-17662893D01*
X3630720Y-17662893D02*
X3630720Y-17615274D01*
X3630720Y-17615274D02*
X3640243Y-17577179D01*
X3640243Y-17577179D02*
X3649767Y-17558131D01*
X3649767Y-17558131D02*
X3659291Y-17548608D01*
X3659291Y-17548608D02*
X3678339Y-17539084D01*
X3830720Y-17739084D02*
X3830720Y-17605750D01*
X3830720Y-17624798D02*
X3840243Y-17615274D01*
X3840243Y-17615274D02*
X3859291Y-17605750D01*
X3859291Y-17605750D02*
X3887863Y-17605750D01*
X3887863Y-17605750D02*
X3906910Y-17615274D01*
X3906910Y-17615274D02*
X3916434Y-17634322D01*
X3916434Y-17634322D02*
X3916434Y-17739084D01*
X3916434Y-17634322D02*
X3925958Y-17615274D01*
X3925958Y-17615274D02*
X3945005Y-17605750D01*
X3945005Y-17605750D02*
X3973577Y-17605750D01*
X3973577Y-17605750D02*
X3992624Y-17615274D01*
X3992624Y-17615274D02*
X4002148Y-17634322D01*
X4002148Y-17634322D02*
X4002148Y-17739084D01*
X4097386Y-17739084D02*
X4097386Y-17605750D01*
X4097386Y-17624798D02*
X4106910Y-17615274D01*
X4106910Y-17615274D02*
X4125958Y-17605750D01*
X4125958Y-17605750D02*
X4154529Y-17605750D01*
X4154529Y-17605750D02*
X4173577Y-17615274D01*
X4173577Y-17615274D02*
X4183101Y-17634322D01*
X4183101Y-17634322D02*
X4183101Y-17739084D01*
X4183101Y-17634322D02*
X4192624Y-17615274D01*
X4192624Y-17615274D02*
X4211672Y-17605750D01*
X4211672Y-17605750D02*
X4240244Y-17605750D01*
X4240244Y-17605750D02*
X4259291Y-17615274D01*
X4259291Y-17615274D02*
X4268815Y-17634322D01*
X4268815Y-17634322D02*
X4268815Y-17739084D01*
X4659291Y-17529560D02*
X4487863Y-17786703D01*
X4916434Y-17539084D02*
X4935482Y-17539084D01*
X4935482Y-17539084D02*
X4954529Y-17548608D01*
X4954529Y-17548608D02*
X4964053Y-17558131D01*
X4964053Y-17558131D02*
X4973577Y-17577179D01*
X4973577Y-17577179D02*
X4983101Y-17615274D01*
X4983101Y-17615274D02*
X4983101Y-17662893D01*
X4983101Y-17662893D02*
X4973577Y-17700989D01*
X4973577Y-17700989D02*
X4964053Y-17720036D01*
X4964053Y-17720036D02*
X4954529Y-17729560D01*
X4954529Y-17729560D02*
X4935482Y-17739084D01*
X4935482Y-17739084D02*
X4916434Y-17739084D01*
X4916434Y-17739084D02*
X4897387Y-17729560D01*
X4897387Y-17729560D02*
X4887863Y-17720036D01*
X4887863Y-17720036D02*
X4878339Y-17700989D01*
X4878339Y-17700989D02*
X4868815Y-17662893D01*
X4868815Y-17662893D02*
X4868815Y-17615274D01*
X4868815Y-17615274D02*
X4878339Y-17577179D01*
X4878339Y-17577179D02*
X4887863Y-17558131D01*
X4887863Y-17558131D02*
X4897387Y-17548608D01*
X4897387Y-17548608D02*
X4916434Y-17539084D01*
X5068815Y-17720036D02*
X5078339Y-17729560D01*
X5078339Y-17729560D02*
X5068815Y-17739084D01*
X5068815Y-17739084D02*
X5059291Y-17729560D01*
X5059291Y-17729560D02*
X5068815Y-17720036D01*
X5068815Y-17720036D02*
X5068815Y-17739084D01*
X5202148Y-17539084D02*
X5221196Y-17539084D01*
X5221196Y-17539084D02*
X5240244Y-17548608D01*
X5240244Y-17548608D02*
X5249768Y-17558131D01*
X5249768Y-17558131D02*
X5259291Y-17577179D01*
X5259291Y-17577179D02*
X5268815Y-17615274D01*
X5268815Y-17615274D02*
X5268815Y-17662893D01*
X5268815Y-17662893D02*
X5259291Y-17700989D01*
X5259291Y-17700989D02*
X5249768Y-17720036D01*
X5249768Y-17720036D02*
X5240244Y-17729560D01*
X5240244Y-17729560D02*
X5221196Y-17739084D01*
X5221196Y-17739084D02*
X5202148Y-17739084D01*
X5202148Y-17739084D02*
X5183101Y-17729560D01*
X5183101Y-17729560D02*
X5173577Y-17720036D01*
X5173577Y-17720036D02*
X5164053Y-17700989D01*
X5164053Y-17700989D02*
X5154529Y-17662893D01*
X5154529Y-17662893D02*
X5154529Y-17615274D01*
X5154529Y-17615274D02*
X5164053Y-17577179D01*
X5164053Y-17577179D02*
X5173577Y-17558131D01*
X5173577Y-17558131D02*
X5183101Y-17548608D01*
X5183101Y-17548608D02*
X5202148Y-17539084D01*
X5335482Y-17539084D02*
X5459291Y-17539084D01*
X5459291Y-17539084D02*
X5392625Y-17615274D01*
X5392625Y-17615274D02*
X5421196Y-17615274D01*
X5421196Y-17615274D02*
X5440244Y-17624798D01*
X5440244Y-17624798D02*
X5449768Y-17634322D01*
X5449768Y-17634322D02*
X5459291Y-17653370D01*
X5459291Y-17653370D02*
X5459291Y-17700989D01*
X5459291Y-17700989D02*
X5449768Y-17720036D01*
X5449768Y-17720036D02*
X5440244Y-17729560D01*
X5440244Y-17729560D02*
X5421196Y-17739084D01*
X5421196Y-17739084D02*
X5364053Y-17739084D01*
X5364053Y-17739084D02*
X5345006Y-17729560D01*
X5345006Y-17729560D02*
X5335482Y-17720036D01*
X5554529Y-17739084D02*
X5592625Y-17739084D01*
X5592625Y-17739084D02*
X5611672Y-17729560D01*
X5611672Y-17729560D02*
X5621196Y-17720036D01*
X5621196Y-17720036D02*
X5640244Y-17691465D01*
X5640244Y-17691465D02*
X5649767Y-17653370D01*
X5649767Y-17653370D02*
X5649767Y-17577179D01*
X5649767Y-17577179D02*
X5640244Y-17558131D01*
X5640244Y-17558131D02*
X5630720Y-17548608D01*
X5630720Y-17548608D02*
X5611672Y-17539084D01*
X5611672Y-17539084D02*
X5573577Y-17539084D01*
X5573577Y-17539084D02*
X5554529Y-17548608D01*
X5554529Y-17548608D02*
X5545006Y-17558131D01*
X5545006Y-17558131D02*
X5535482Y-17577179D01*
X5535482Y-17577179D02*
X5535482Y-17624798D01*
X5535482Y-17624798D02*
X5545006Y-17643846D01*
X5545006Y-17643846D02*
X5554529Y-17653370D01*
X5554529Y-17653370D02*
X5573577Y-17662893D01*
X5573577Y-17662893D02*
X5611672Y-17662893D01*
X5611672Y-17662893D02*
X5630720Y-17653370D01*
X5630720Y-17653370D02*
X5640244Y-17643846D01*
X5640244Y-17643846D02*
X5649767Y-17624798D01*
X5821196Y-17605750D02*
X5821196Y-17739084D01*
X5773577Y-17529560D02*
X5725958Y-17672417D01*
X5725958Y-17672417D02*
X5849767Y-17672417D01*
X5916434Y-17539084D02*
X5916434Y-17577179D01*
X5992625Y-17539084D02*
X5992625Y-17577179D01*
X6287863Y-17815274D02*
X6278339Y-17805750D01*
X6278339Y-17805750D02*
X6259291Y-17777179D01*
X6259291Y-17777179D02*
X6249768Y-17758131D01*
X6249768Y-17758131D02*
X6240244Y-17729560D01*
X6240244Y-17729560D02*
X6230720Y-17681941D01*
X6230720Y-17681941D02*
X6230720Y-17643846D01*
X6230720Y-17643846D02*
X6240244Y-17596227D01*
X6240244Y-17596227D02*
X6249768Y-17567655D01*
X6249768Y-17567655D02*
X6259291Y-17548608D01*
X6259291Y-17548608D02*
X6278339Y-17520036D01*
X6278339Y-17520036D02*
X6287863Y-17510512D01*
X6449768Y-17605750D02*
X6449768Y-17739084D01*
X6402148Y-17529560D02*
X6354529Y-17672417D01*
X6354529Y-17672417D02*
X6478339Y-17672417D01*
X6706910Y-17739084D02*
X6706910Y-17539084D01*
X6792625Y-17739084D02*
X6792625Y-17634322D01*
X6792625Y-17634322D02*
X6783101Y-17615274D01*
X6783101Y-17615274D02*
X6764053Y-17605750D01*
X6764053Y-17605750D02*
X6735482Y-17605750D01*
X6735482Y-17605750D02*
X6716434Y-17615274D01*
X6716434Y-17615274D02*
X6706910Y-17624798D01*
X6916434Y-17739084D02*
X6897387Y-17729560D01*
X6897387Y-17729560D02*
X6887863Y-17720036D01*
X6887863Y-17720036D02*
X6878339Y-17700989D01*
X6878339Y-17700989D02*
X6878339Y-17643846D01*
X6878339Y-17643846D02*
X6887863Y-17624798D01*
X6887863Y-17624798D02*
X6897387Y-17615274D01*
X6897387Y-17615274D02*
X6916434Y-17605750D01*
X6916434Y-17605750D02*
X6945006Y-17605750D01*
X6945006Y-17605750D02*
X6964053Y-17615274D01*
X6964053Y-17615274D02*
X6973577Y-17624798D01*
X6973577Y-17624798D02*
X6983101Y-17643846D01*
X6983101Y-17643846D02*
X6983101Y-17700989D01*
X6983101Y-17700989D02*
X6973577Y-17720036D01*
X6973577Y-17720036D02*
X6964053Y-17729560D01*
X6964053Y-17729560D02*
X6945006Y-17739084D01*
X6945006Y-17739084D02*
X6916434Y-17739084D01*
X7097387Y-17739084D02*
X7078339Y-17729560D01*
X7078339Y-17729560D02*
X7068815Y-17710512D01*
X7068815Y-17710512D02*
X7068815Y-17539084D01*
X7249768Y-17729560D02*
X7230720Y-17739084D01*
X7230720Y-17739084D02*
X7192625Y-17739084D01*
X7192625Y-17739084D02*
X7173577Y-17729560D01*
X7173577Y-17729560D02*
X7164053Y-17710512D01*
X7164053Y-17710512D02*
X7164053Y-17634322D01*
X7164053Y-17634322D02*
X7173577Y-17615274D01*
X7173577Y-17615274D02*
X7192625Y-17605750D01*
X7192625Y-17605750D02*
X7230720Y-17605750D01*
X7230720Y-17605750D02*
X7249768Y-17615274D01*
X7249768Y-17615274D02*
X7259291Y-17634322D01*
X7259291Y-17634322D02*
X7259291Y-17653370D01*
X7259291Y-17653370D02*
X7164053Y-17672417D01*
X7335482Y-17729560D02*
X7354530Y-17739084D01*
X7354530Y-17739084D02*
X7392625Y-17739084D01*
X7392625Y-17739084D02*
X7411672Y-17729560D01*
X7411672Y-17729560D02*
X7421196Y-17710512D01*
X7421196Y-17710512D02*
X7421196Y-17700989D01*
X7421196Y-17700989D02*
X7411672Y-17681941D01*
X7411672Y-17681941D02*
X7392625Y-17672417D01*
X7392625Y-17672417D02*
X7364053Y-17672417D01*
X7364053Y-17672417D02*
X7345006Y-17662893D01*
X7345006Y-17662893D02*
X7335482Y-17643846D01*
X7335482Y-17643846D02*
X7335482Y-17634322D01*
X7335482Y-17634322D02*
X7345006Y-17615274D01*
X7345006Y-17615274D02*
X7364053Y-17605750D01*
X7364053Y-17605750D02*
X7392625Y-17605750D01*
X7392625Y-17605750D02*
X7411672Y-17615274D01*
X7487863Y-17815274D02*
X7497387Y-17805750D01*
X7497387Y-17805750D02*
X7516434Y-17777179D01*
X7516434Y-17777179D02*
X7525958Y-17758131D01*
X7525958Y-17758131D02*
X7535482Y-17729560D01*
X7535482Y-17729560D02*
X7545006Y-17681941D01*
X7545006Y-17681941D02*
X7545006Y-17643846D01*
X7545006Y-17643846D02*
X7535482Y-17596227D01*
X7535482Y-17596227D02*
X7525958Y-17567655D01*
X7525958Y-17567655D02*
X7516434Y-17548608D01*
X7516434Y-17548608D02*
X7497387Y-17520036D01*
X7497387Y-17520036D02*
X7487863Y-17510512D01*
D13*
X2647800Y-17846600D02*
X2647800Y-17976600D01*
X2582800Y-17911600D02*
X2712800Y-17911600D01*
D11*
X3078339Y-18003084D02*
X2964053Y-18003084D01*
X3021196Y-18003084D02*
X3021196Y-17803084D01*
X3021196Y-17803084D02*
X3002148Y-17831655D01*
X3002148Y-17831655D02*
X2983101Y-17850703D01*
X2983101Y-17850703D02*
X2964053Y-17860227D01*
X3164053Y-17984036D02*
X3173577Y-17993560D01*
X3173577Y-17993560D02*
X3164053Y-18003084D01*
X3164053Y-18003084D02*
X3154529Y-17993560D01*
X3154529Y-17993560D02*
X3164053Y-17984036D01*
X3164053Y-17984036D02*
X3164053Y-18003084D01*
X3240243Y-17803084D02*
X3364053Y-17803084D01*
X3364053Y-17803084D02*
X3297386Y-17879274D01*
X3297386Y-17879274D02*
X3325958Y-17879274D01*
X3325958Y-17879274D02*
X3345005Y-17888798D01*
X3345005Y-17888798D02*
X3354529Y-17898322D01*
X3354529Y-17898322D02*
X3364053Y-17917370D01*
X3364053Y-17917370D02*
X3364053Y-17964989D01*
X3364053Y-17964989D02*
X3354529Y-17984036D01*
X3354529Y-17984036D02*
X3345005Y-17993560D01*
X3345005Y-17993560D02*
X3325958Y-18003084D01*
X3325958Y-18003084D02*
X3268815Y-18003084D01*
X3268815Y-18003084D02*
X3249767Y-17993560D01*
X3249767Y-17993560D02*
X3240243Y-17984036D01*
X3487862Y-17803084D02*
X3506910Y-17803084D01*
X3506910Y-17803084D02*
X3525958Y-17812608D01*
X3525958Y-17812608D02*
X3535482Y-17822131D01*
X3535482Y-17822131D02*
X3545005Y-17841179D01*
X3545005Y-17841179D02*
X3554529Y-17879274D01*
X3554529Y-17879274D02*
X3554529Y-17926893D01*
X3554529Y-17926893D02*
X3545005Y-17964989D01*
X3545005Y-17964989D02*
X3535482Y-17984036D01*
X3535482Y-17984036D02*
X3525958Y-17993560D01*
X3525958Y-17993560D02*
X3506910Y-18003084D01*
X3506910Y-18003084D02*
X3487862Y-18003084D01*
X3487862Y-18003084D02*
X3468815Y-17993560D01*
X3468815Y-17993560D02*
X3459291Y-17984036D01*
X3459291Y-17984036D02*
X3449767Y-17964989D01*
X3449767Y-17964989D02*
X3440243Y-17926893D01*
X3440243Y-17926893D02*
X3440243Y-17879274D01*
X3440243Y-17879274D02*
X3449767Y-17841179D01*
X3449767Y-17841179D02*
X3459291Y-17822131D01*
X3459291Y-17822131D02*
X3468815Y-17812608D01*
X3468815Y-17812608D02*
X3487862Y-17803084D01*
X3678339Y-17803084D02*
X3697386Y-17803084D01*
X3697386Y-17803084D02*
X3716434Y-17812608D01*
X3716434Y-17812608D02*
X3725958Y-17822131D01*
X3725958Y-17822131D02*
X3735482Y-17841179D01*
X3735482Y-17841179D02*
X3745005Y-17879274D01*
X3745005Y-17879274D02*
X3745005Y-17926893D01*
X3745005Y-17926893D02*
X3735482Y-17964989D01*
X3735482Y-17964989D02*
X3725958Y-17984036D01*
X3725958Y-17984036D02*
X3716434Y-17993560D01*
X3716434Y-17993560D02*
X3697386Y-18003084D01*
X3697386Y-18003084D02*
X3678339Y-18003084D01*
X3678339Y-18003084D02*
X3659291Y-17993560D01*
X3659291Y-17993560D02*
X3649767Y-17984036D01*
X3649767Y-17984036D02*
X3640243Y-17964989D01*
X3640243Y-17964989D02*
X3630720Y-17926893D01*
X3630720Y-17926893D02*
X3630720Y-17879274D01*
X3630720Y-17879274D02*
X3640243Y-17841179D01*
X3640243Y-17841179D02*
X3649767Y-17822131D01*
X3649767Y-17822131D02*
X3659291Y-17812608D01*
X3659291Y-17812608D02*
X3678339Y-17803084D01*
X3830720Y-18003084D02*
X3830720Y-17869750D01*
X3830720Y-17888798D02*
X3840243Y-17879274D01*
X3840243Y-17879274D02*
X3859291Y-17869750D01*
X3859291Y-17869750D02*
X3887863Y-17869750D01*
X3887863Y-17869750D02*
X3906910Y-17879274D01*
X3906910Y-17879274D02*
X3916434Y-17898322D01*
X3916434Y-17898322D02*
X3916434Y-18003084D01*
X3916434Y-17898322D02*
X3925958Y-17879274D01*
X3925958Y-17879274D02*
X3945005Y-17869750D01*
X3945005Y-17869750D02*
X3973577Y-17869750D01*
X3973577Y-17869750D02*
X3992624Y-17879274D01*
X3992624Y-17879274D02*
X4002148Y-17898322D01*
X4002148Y-17898322D02*
X4002148Y-18003084D01*
X4097386Y-18003084D02*
X4097386Y-17869750D01*
X4097386Y-17888798D02*
X4106910Y-17879274D01*
X4106910Y-17879274D02*
X4125958Y-17869750D01*
X4125958Y-17869750D02*
X4154529Y-17869750D01*
X4154529Y-17869750D02*
X4173577Y-17879274D01*
X4173577Y-17879274D02*
X4183101Y-17898322D01*
X4183101Y-17898322D02*
X4183101Y-18003084D01*
X4183101Y-17898322D02*
X4192624Y-17879274D01*
X4192624Y-17879274D02*
X4211672Y-17869750D01*
X4211672Y-17869750D02*
X4240244Y-17869750D01*
X4240244Y-17869750D02*
X4259291Y-17879274D01*
X4259291Y-17879274D02*
X4268815Y-17898322D01*
X4268815Y-17898322D02*
X4268815Y-18003084D01*
X4659291Y-17793560D02*
X4487863Y-18050703D01*
X4916434Y-17803084D02*
X4935482Y-17803084D01*
X4935482Y-17803084D02*
X4954529Y-17812608D01*
X4954529Y-17812608D02*
X4964053Y-17822131D01*
X4964053Y-17822131D02*
X4973577Y-17841179D01*
X4973577Y-17841179D02*
X4983101Y-17879274D01*
X4983101Y-17879274D02*
X4983101Y-17926893D01*
X4983101Y-17926893D02*
X4973577Y-17964989D01*
X4973577Y-17964989D02*
X4964053Y-17984036D01*
X4964053Y-17984036D02*
X4954529Y-17993560D01*
X4954529Y-17993560D02*
X4935482Y-18003084D01*
X4935482Y-18003084D02*
X4916434Y-18003084D01*
X4916434Y-18003084D02*
X4897387Y-17993560D01*
X4897387Y-17993560D02*
X4887863Y-17984036D01*
X4887863Y-17984036D02*
X4878339Y-17964989D01*
X4878339Y-17964989D02*
X4868815Y-17926893D01*
X4868815Y-17926893D02*
X4868815Y-17879274D01*
X4868815Y-17879274D02*
X4878339Y-17841179D01*
X4878339Y-17841179D02*
X4887863Y-17822131D01*
X4887863Y-17822131D02*
X4897387Y-17812608D01*
X4897387Y-17812608D02*
X4916434Y-17803084D01*
X5068815Y-17984036D02*
X5078339Y-17993560D01*
X5078339Y-17993560D02*
X5068815Y-18003084D01*
X5068815Y-18003084D02*
X5059291Y-17993560D01*
X5059291Y-17993560D02*
X5068815Y-17984036D01*
X5068815Y-17984036D02*
X5068815Y-18003084D01*
X5202148Y-17803084D02*
X5221196Y-17803084D01*
X5221196Y-17803084D02*
X5240244Y-17812608D01*
X5240244Y-17812608D02*
X5249768Y-17822131D01*
X5249768Y-17822131D02*
X5259291Y-17841179D01*
X5259291Y-17841179D02*
X5268815Y-17879274D01*
X5268815Y-17879274D02*
X5268815Y-17926893D01*
X5268815Y-17926893D02*
X5259291Y-17964989D01*
X5259291Y-17964989D02*
X5249768Y-17984036D01*
X5249768Y-17984036D02*
X5240244Y-17993560D01*
X5240244Y-17993560D02*
X5221196Y-18003084D01*
X5221196Y-18003084D02*
X5202148Y-18003084D01*
X5202148Y-18003084D02*
X5183101Y-17993560D01*
X5183101Y-17993560D02*
X5173577Y-17984036D01*
X5173577Y-17984036D02*
X5164053Y-17964989D01*
X5164053Y-17964989D02*
X5154529Y-17926893D01*
X5154529Y-17926893D02*
X5154529Y-17879274D01*
X5154529Y-17879274D02*
X5164053Y-17841179D01*
X5164053Y-17841179D02*
X5173577Y-17822131D01*
X5173577Y-17822131D02*
X5183101Y-17812608D01*
X5183101Y-17812608D02*
X5202148Y-17803084D01*
X5449768Y-17803084D02*
X5354529Y-17803084D01*
X5354529Y-17803084D02*
X5345006Y-17898322D01*
X5345006Y-17898322D02*
X5354529Y-17888798D01*
X5354529Y-17888798D02*
X5373577Y-17879274D01*
X5373577Y-17879274D02*
X5421196Y-17879274D01*
X5421196Y-17879274D02*
X5440244Y-17888798D01*
X5440244Y-17888798D02*
X5449768Y-17898322D01*
X5449768Y-17898322D02*
X5459291Y-17917370D01*
X5459291Y-17917370D02*
X5459291Y-17964989D01*
X5459291Y-17964989D02*
X5449768Y-17984036D01*
X5449768Y-17984036D02*
X5440244Y-17993560D01*
X5440244Y-17993560D02*
X5421196Y-18003084D01*
X5421196Y-18003084D02*
X5373577Y-18003084D01*
X5373577Y-18003084D02*
X5354529Y-17993560D01*
X5354529Y-17993560D02*
X5345006Y-17984036D01*
X5649767Y-18003084D02*
X5535482Y-18003084D01*
X5592625Y-18003084D02*
X5592625Y-17803084D01*
X5592625Y-17803084D02*
X5573577Y-17831655D01*
X5573577Y-17831655D02*
X5554529Y-17850703D01*
X5554529Y-17850703D02*
X5535482Y-17860227D01*
X5725958Y-17822131D02*
X5735482Y-17812608D01*
X5735482Y-17812608D02*
X5754529Y-17803084D01*
X5754529Y-17803084D02*
X5802148Y-17803084D01*
X5802148Y-17803084D02*
X5821196Y-17812608D01*
X5821196Y-17812608D02*
X5830720Y-17822131D01*
X5830720Y-17822131D02*
X5840244Y-17841179D01*
X5840244Y-17841179D02*
X5840244Y-17860227D01*
X5840244Y-17860227D02*
X5830720Y-17888798D01*
X5830720Y-17888798D02*
X5716434Y-18003084D01*
X5716434Y-18003084D02*
X5840244Y-18003084D01*
X5916434Y-17803084D02*
X5916434Y-17841179D01*
X5992625Y-17803084D02*
X5992625Y-17841179D01*
X6287863Y-18079274D02*
X6278339Y-18069750D01*
X6278339Y-18069750D02*
X6259291Y-18041179D01*
X6259291Y-18041179D02*
X6249768Y-18022131D01*
X6249768Y-18022131D02*
X6240244Y-17993560D01*
X6240244Y-17993560D02*
X6230720Y-17945941D01*
X6230720Y-17945941D02*
X6230720Y-17907846D01*
X6230720Y-17907846D02*
X6240244Y-17860227D01*
X6240244Y-17860227D02*
X6249768Y-17831655D01*
X6249768Y-17831655D02*
X6259291Y-17812608D01*
X6259291Y-17812608D02*
X6278339Y-17784036D01*
X6278339Y-17784036D02*
X6287863Y-17774512D01*
X6449768Y-17803084D02*
X6411672Y-17803084D01*
X6411672Y-17803084D02*
X6392625Y-17812608D01*
X6392625Y-17812608D02*
X6383101Y-17822131D01*
X6383101Y-17822131D02*
X6364053Y-17850703D01*
X6364053Y-17850703D02*
X6354529Y-17888798D01*
X6354529Y-17888798D02*
X6354529Y-17964989D01*
X6354529Y-17964989D02*
X6364053Y-17984036D01*
X6364053Y-17984036D02*
X6373577Y-17993560D01*
X6373577Y-17993560D02*
X6392625Y-18003084D01*
X6392625Y-18003084D02*
X6430720Y-18003084D01*
X6430720Y-18003084D02*
X6449768Y-17993560D01*
X6449768Y-17993560D02*
X6459291Y-17984036D01*
X6459291Y-17984036D02*
X6468815Y-17964989D01*
X6468815Y-17964989D02*
X6468815Y-17917370D01*
X6468815Y-17917370D02*
X6459291Y-17898322D01*
X6459291Y-17898322D02*
X6449768Y-17888798D01*
X6449768Y-17888798D02*
X6430720Y-17879274D01*
X6430720Y-17879274D02*
X6392625Y-17879274D01*
X6392625Y-17879274D02*
X6373577Y-17888798D01*
X6373577Y-17888798D02*
X6364053Y-17898322D01*
X6364053Y-17898322D02*
X6354529Y-17917370D01*
X6706910Y-18003084D02*
X6706910Y-17803084D01*
X6792625Y-18003084D02*
X6792625Y-17898322D01*
X6792625Y-17898322D02*
X6783101Y-17879274D01*
X6783101Y-17879274D02*
X6764053Y-17869750D01*
X6764053Y-17869750D02*
X6735482Y-17869750D01*
X6735482Y-17869750D02*
X6716434Y-17879274D01*
X6716434Y-17879274D02*
X6706910Y-17888798D01*
X6916434Y-18003084D02*
X6897387Y-17993560D01*
X6897387Y-17993560D02*
X6887863Y-17984036D01*
X6887863Y-17984036D02*
X6878339Y-17964989D01*
X6878339Y-17964989D02*
X6878339Y-17907846D01*
X6878339Y-17907846D02*
X6887863Y-17888798D01*
X6887863Y-17888798D02*
X6897387Y-17879274D01*
X6897387Y-17879274D02*
X6916434Y-17869750D01*
X6916434Y-17869750D02*
X6945006Y-17869750D01*
X6945006Y-17869750D02*
X6964053Y-17879274D01*
X6964053Y-17879274D02*
X6973577Y-17888798D01*
X6973577Y-17888798D02*
X6983101Y-17907846D01*
X6983101Y-17907846D02*
X6983101Y-17964989D01*
X6983101Y-17964989D02*
X6973577Y-17984036D01*
X6973577Y-17984036D02*
X6964053Y-17993560D01*
X6964053Y-17993560D02*
X6945006Y-18003084D01*
X6945006Y-18003084D02*
X6916434Y-18003084D01*
X7097387Y-18003084D02*
X7078339Y-17993560D01*
X7078339Y-17993560D02*
X7068815Y-17974512D01*
X7068815Y-17974512D02*
X7068815Y-17803084D01*
X7249768Y-17993560D02*
X7230720Y-18003084D01*
X7230720Y-18003084D02*
X7192625Y-18003084D01*
X7192625Y-18003084D02*
X7173577Y-17993560D01*
X7173577Y-17993560D02*
X7164053Y-17974512D01*
X7164053Y-17974512D02*
X7164053Y-17898322D01*
X7164053Y-17898322D02*
X7173577Y-17879274D01*
X7173577Y-17879274D02*
X7192625Y-17869750D01*
X7192625Y-17869750D02*
X7230720Y-17869750D01*
X7230720Y-17869750D02*
X7249768Y-17879274D01*
X7249768Y-17879274D02*
X7259291Y-17898322D01*
X7259291Y-17898322D02*
X7259291Y-17917370D01*
X7259291Y-17917370D02*
X7164053Y-17936417D01*
X7335482Y-17993560D02*
X7354530Y-18003084D01*
X7354530Y-18003084D02*
X7392625Y-18003084D01*
X7392625Y-18003084D02*
X7411672Y-17993560D01*
X7411672Y-17993560D02*
X7421196Y-17974512D01*
X7421196Y-17974512D02*
X7421196Y-17964989D01*
X7421196Y-17964989D02*
X7411672Y-17945941D01*
X7411672Y-17945941D02*
X7392625Y-17936417D01*
X7392625Y-17936417D02*
X7364053Y-17936417D01*
X7364053Y-17936417D02*
X7345006Y-17926893D01*
X7345006Y-17926893D02*
X7335482Y-17907846D01*
X7335482Y-17907846D02*
X7335482Y-17898322D01*
X7335482Y-17898322D02*
X7345006Y-17879274D01*
X7345006Y-17879274D02*
X7364053Y-17869750D01*
X7364053Y-17869750D02*
X7392625Y-17869750D01*
X7392625Y-17869750D02*
X7411672Y-17879274D01*
X7487863Y-18079274D02*
X7497387Y-18069750D01*
X7497387Y-18069750D02*
X7516434Y-18041179D01*
X7516434Y-18041179D02*
X7525958Y-18022131D01*
X7525958Y-18022131D02*
X7535482Y-17993560D01*
X7535482Y-17993560D02*
X7545006Y-17945941D01*
X7545006Y-17945941D02*
X7545006Y-17907846D01*
X7545006Y-17907846D02*
X7535482Y-17860227D01*
X7535482Y-17860227D02*
X7525958Y-17831655D01*
X7525958Y-17831655D02*
X7516434Y-17812608D01*
X7516434Y-17812608D02*
X7497387Y-17784036D01*
X7497387Y-17784036D02*
X7487863Y-17774512D01*
D14*
X2692298Y-18225098D02*
X2692298Y-18126102D01*
X2593302Y-18126102D01*
X2593302Y-18225098D01*
X2692298Y-18225098D01*
D11*
X3078339Y-18267084D02*
X2964053Y-18267084D01*
X3021196Y-18267084D02*
X3021196Y-18067084D01*
X3021196Y-18067084D02*
X3002148Y-18095655D01*
X3002148Y-18095655D02*
X2983101Y-18114703D01*
X2983101Y-18114703D02*
X2964053Y-18124227D01*
X3164053Y-18248036D02*
X3173577Y-18257560D01*
X3173577Y-18257560D02*
X3164053Y-18267084D01*
X3164053Y-18267084D02*
X3154529Y-18257560D01*
X3154529Y-18257560D02*
X3164053Y-18248036D01*
X3164053Y-18248036D02*
X3164053Y-18267084D01*
X3345005Y-18133750D02*
X3345005Y-18267084D01*
X3297386Y-18057560D02*
X3249767Y-18200417D01*
X3249767Y-18200417D02*
X3373577Y-18200417D01*
X3487862Y-18067084D02*
X3506910Y-18067084D01*
X3506910Y-18067084D02*
X3525958Y-18076608D01*
X3525958Y-18076608D02*
X3535482Y-18086131D01*
X3535482Y-18086131D02*
X3545005Y-18105179D01*
X3545005Y-18105179D02*
X3554529Y-18143274D01*
X3554529Y-18143274D02*
X3554529Y-18190893D01*
X3554529Y-18190893D02*
X3545005Y-18228989D01*
X3545005Y-18228989D02*
X3535482Y-18248036D01*
X3535482Y-18248036D02*
X3525958Y-18257560D01*
X3525958Y-18257560D02*
X3506910Y-18267084D01*
X3506910Y-18267084D02*
X3487862Y-18267084D01*
X3487862Y-18267084D02*
X3468815Y-18257560D01*
X3468815Y-18257560D02*
X3459291Y-18248036D01*
X3459291Y-18248036D02*
X3449767Y-18228989D01*
X3449767Y-18228989D02*
X3440243Y-18190893D01*
X3440243Y-18190893D02*
X3440243Y-18143274D01*
X3440243Y-18143274D02*
X3449767Y-18105179D01*
X3449767Y-18105179D02*
X3459291Y-18086131D01*
X3459291Y-18086131D02*
X3468815Y-18076608D01*
X3468815Y-18076608D02*
X3487862Y-18067084D01*
X3678339Y-18067084D02*
X3697386Y-18067084D01*
X3697386Y-18067084D02*
X3716434Y-18076608D01*
X3716434Y-18076608D02*
X3725958Y-18086131D01*
X3725958Y-18086131D02*
X3735482Y-18105179D01*
X3735482Y-18105179D02*
X3745005Y-18143274D01*
X3745005Y-18143274D02*
X3745005Y-18190893D01*
X3745005Y-18190893D02*
X3735482Y-18228989D01*
X3735482Y-18228989D02*
X3725958Y-18248036D01*
X3725958Y-18248036D02*
X3716434Y-18257560D01*
X3716434Y-18257560D02*
X3697386Y-18267084D01*
X3697386Y-18267084D02*
X3678339Y-18267084D01*
X3678339Y-18267084D02*
X3659291Y-18257560D01*
X3659291Y-18257560D02*
X3649767Y-18248036D01*
X3649767Y-18248036D02*
X3640243Y-18228989D01*
X3640243Y-18228989D02*
X3630720Y-18190893D01*
X3630720Y-18190893D02*
X3630720Y-18143274D01*
X3630720Y-18143274D02*
X3640243Y-18105179D01*
X3640243Y-18105179D02*
X3649767Y-18086131D01*
X3649767Y-18086131D02*
X3659291Y-18076608D01*
X3659291Y-18076608D02*
X3678339Y-18067084D01*
X3830720Y-18267084D02*
X3830720Y-18133750D01*
X3830720Y-18152798D02*
X3840243Y-18143274D01*
X3840243Y-18143274D02*
X3859291Y-18133750D01*
X3859291Y-18133750D02*
X3887863Y-18133750D01*
X3887863Y-18133750D02*
X3906910Y-18143274D01*
X3906910Y-18143274D02*
X3916434Y-18162322D01*
X3916434Y-18162322D02*
X3916434Y-18267084D01*
X3916434Y-18162322D02*
X3925958Y-18143274D01*
X3925958Y-18143274D02*
X3945005Y-18133750D01*
X3945005Y-18133750D02*
X3973577Y-18133750D01*
X3973577Y-18133750D02*
X3992624Y-18143274D01*
X3992624Y-18143274D02*
X4002148Y-18162322D01*
X4002148Y-18162322D02*
X4002148Y-18267084D01*
X4097386Y-18267084D02*
X4097386Y-18133750D01*
X4097386Y-18152798D02*
X4106910Y-18143274D01*
X4106910Y-18143274D02*
X4125958Y-18133750D01*
X4125958Y-18133750D02*
X4154529Y-18133750D01*
X4154529Y-18133750D02*
X4173577Y-18143274D01*
X4173577Y-18143274D02*
X4183101Y-18162322D01*
X4183101Y-18162322D02*
X4183101Y-18267084D01*
X4183101Y-18162322D02*
X4192624Y-18143274D01*
X4192624Y-18143274D02*
X4211672Y-18133750D01*
X4211672Y-18133750D02*
X4240244Y-18133750D01*
X4240244Y-18133750D02*
X4259291Y-18143274D01*
X4259291Y-18143274D02*
X4268815Y-18162322D01*
X4268815Y-18162322D02*
X4268815Y-18267084D01*
X4659291Y-18057560D02*
X4487863Y-18314703D01*
X4916434Y-18067084D02*
X4935482Y-18067084D01*
X4935482Y-18067084D02*
X4954529Y-18076608D01*
X4954529Y-18076608D02*
X4964053Y-18086131D01*
X4964053Y-18086131D02*
X4973577Y-18105179D01*
X4973577Y-18105179D02*
X4983101Y-18143274D01*
X4983101Y-18143274D02*
X4983101Y-18190893D01*
X4983101Y-18190893D02*
X4973577Y-18228989D01*
X4973577Y-18228989D02*
X4964053Y-18248036D01*
X4964053Y-18248036D02*
X4954529Y-18257560D01*
X4954529Y-18257560D02*
X4935482Y-18267084D01*
X4935482Y-18267084D02*
X4916434Y-18267084D01*
X4916434Y-18267084D02*
X4897387Y-18257560D01*
X4897387Y-18257560D02*
X4887863Y-18248036D01*
X4887863Y-18248036D02*
X4878339Y-18228989D01*
X4878339Y-18228989D02*
X4868815Y-18190893D01*
X4868815Y-18190893D02*
X4868815Y-18143274D01*
X4868815Y-18143274D02*
X4878339Y-18105179D01*
X4878339Y-18105179D02*
X4887863Y-18086131D01*
X4887863Y-18086131D02*
X4897387Y-18076608D01*
X4897387Y-18076608D02*
X4916434Y-18067084D01*
X5068815Y-18248036D02*
X5078339Y-18257560D01*
X5078339Y-18257560D02*
X5068815Y-18267084D01*
X5068815Y-18267084D02*
X5059291Y-18257560D01*
X5059291Y-18257560D02*
X5068815Y-18248036D01*
X5068815Y-18248036D02*
X5068815Y-18267084D01*
X5202148Y-18067084D02*
X5221196Y-18067084D01*
X5221196Y-18067084D02*
X5240244Y-18076608D01*
X5240244Y-18076608D02*
X5249768Y-18086131D01*
X5249768Y-18086131D02*
X5259291Y-18105179D01*
X5259291Y-18105179D02*
X5268815Y-18143274D01*
X5268815Y-18143274D02*
X5268815Y-18190893D01*
X5268815Y-18190893D02*
X5259291Y-18228989D01*
X5259291Y-18228989D02*
X5249768Y-18248036D01*
X5249768Y-18248036D02*
X5240244Y-18257560D01*
X5240244Y-18257560D02*
X5221196Y-18267084D01*
X5221196Y-18267084D02*
X5202148Y-18267084D01*
X5202148Y-18267084D02*
X5183101Y-18257560D01*
X5183101Y-18257560D02*
X5173577Y-18248036D01*
X5173577Y-18248036D02*
X5164053Y-18228989D01*
X5164053Y-18228989D02*
X5154529Y-18190893D01*
X5154529Y-18190893D02*
X5154529Y-18143274D01*
X5154529Y-18143274D02*
X5164053Y-18105179D01*
X5164053Y-18105179D02*
X5173577Y-18086131D01*
X5173577Y-18086131D02*
X5183101Y-18076608D01*
X5183101Y-18076608D02*
X5202148Y-18067084D01*
X5449768Y-18067084D02*
X5354529Y-18067084D01*
X5354529Y-18067084D02*
X5345006Y-18162322D01*
X5345006Y-18162322D02*
X5354529Y-18152798D01*
X5354529Y-18152798D02*
X5373577Y-18143274D01*
X5373577Y-18143274D02*
X5421196Y-18143274D01*
X5421196Y-18143274D02*
X5440244Y-18152798D01*
X5440244Y-18152798D02*
X5449768Y-18162322D01*
X5449768Y-18162322D02*
X5459291Y-18181370D01*
X5459291Y-18181370D02*
X5459291Y-18228989D01*
X5459291Y-18228989D02*
X5449768Y-18248036D01*
X5449768Y-18248036D02*
X5440244Y-18257560D01*
X5440244Y-18257560D02*
X5421196Y-18267084D01*
X5421196Y-18267084D02*
X5373577Y-18267084D01*
X5373577Y-18267084D02*
X5354529Y-18257560D01*
X5354529Y-18257560D02*
X5345006Y-18248036D01*
X5640244Y-18067084D02*
X5545006Y-18067084D01*
X5545006Y-18067084D02*
X5535482Y-18162322D01*
X5535482Y-18162322D02*
X5545006Y-18152798D01*
X5545006Y-18152798D02*
X5564053Y-18143274D01*
X5564053Y-18143274D02*
X5611672Y-18143274D01*
X5611672Y-18143274D02*
X5630720Y-18152798D01*
X5630720Y-18152798D02*
X5640244Y-18162322D01*
X5640244Y-18162322D02*
X5649767Y-18181370D01*
X5649767Y-18181370D02*
X5649767Y-18228989D01*
X5649767Y-18228989D02*
X5640244Y-18248036D01*
X5640244Y-18248036D02*
X5630720Y-18257560D01*
X5630720Y-18257560D02*
X5611672Y-18267084D01*
X5611672Y-18267084D02*
X5564053Y-18267084D01*
X5564053Y-18267084D02*
X5545006Y-18257560D01*
X5545006Y-18257560D02*
X5535482Y-18248036D01*
X5840244Y-18267084D02*
X5725958Y-18267084D01*
X5783101Y-18267084D02*
X5783101Y-18067084D01*
X5783101Y-18067084D02*
X5764053Y-18095655D01*
X5764053Y-18095655D02*
X5745006Y-18114703D01*
X5745006Y-18114703D02*
X5725958Y-18124227D01*
X5916434Y-18067084D02*
X5916434Y-18105179D01*
X5992625Y-18067084D02*
X5992625Y-18105179D01*
X6287863Y-18343274D02*
X6278339Y-18333750D01*
X6278339Y-18333750D02*
X6259291Y-18305179D01*
X6259291Y-18305179D02*
X6249768Y-18286131D01*
X6249768Y-18286131D02*
X6240244Y-18257560D01*
X6240244Y-18257560D02*
X6230720Y-18209941D01*
X6230720Y-18209941D02*
X6230720Y-18171846D01*
X6230720Y-18171846D02*
X6240244Y-18124227D01*
X6240244Y-18124227D02*
X6249768Y-18095655D01*
X6249768Y-18095655D02*
X6259291Y-18076608D01*
X6259291Y-18076608D02*
X6278339Y-18048036D01*
X6278339Y-18048036D02*
X6287863Y-18038512D01*
X6468815Y-18267084D02*
X6354529Y-18267084D01*
X6411672Y-18267084D02*
X6411672Y-18067084D01*
X6411672Y-18067084D02*
X6392625Y-18095655D01*
X6392625Y-18095655D02*
X6373577Y-18114703D01*
X6373577Y-18114703D02*
X6354529Y-18124227D01*
X6545006Y-18086131D02*
X6554529Y-18076608D01*
X6554529Y-18076608D02*
X6573577Y-18067084D01*
X6573577Y-18067084D02*
X6621196Y-18067084D01*
X6621196Y-18067084D02*
X6640244Y-18076608D01*
X6640244Y-18076608D02*
X6649768Y-18086131D01*
X6649768Y-18086131D02*
X6659291Y-18105179D01*
X6659291Y-18105179D02*
X6659291Y-18124227D01*
X6659291Y-18124227D02*
X6649768Y-18152798D01*
X6649768Y-18152798D02*
X6535482Y-18267084D01*
X6535482Y-18267084D02*
X6659291Y-18267084D01*
X6897387Y-18267084D02*
X6897387Y-18067084D01*
X6983101Y-18267084D02*
X6983101Y-18162322D01*
X6983101Y-18162322D02*
X6973577Y-18143274D01*
X6973577Y-18143274D02*
X6954530Y-18133750D01*
X6954530Y-18133750D02*
X6925958Y-18133750D01*
X6925958Y-18133750D02*
X6906910Y-18143274D01*
X6906910Y-18143274D02*
X6897387Y-18152798D01*
X7106910Y-18267084D02*
X7087863Y-18257560D01*
X7087863Y-18257560D02*
X7078339Y-18248036D01*
X7078339Y-18248036D02*
X7068815Y-18228989D01*
X7068815Y-18228989D02*
X7068815Y-18171846D01*
X7068815Y-18171846D02*
X7078339Y-18152798D01*
X7078339Y-18152798D02*
X7087863Y-18143274D01*
X7087863Y-18143274D02*
X7106910Y-18133750D01*
X7106910Y-18133750D02*
X7135482Y-18133750D01*
X7135482Y-18133750D02*
X7154530Y-18143274D01*
X7154530Y-18143274D02*
X7164053Y-18152798D01*
X7164053Y-18152798D02*
X7173577Y-18171846D01*
X7173577Y-18171846D02*
X7173577Y-18228989D01*
X7173577Y-18228989D02*
X7164053Y-18248036D01*
X7164053Y-18248036D02*
X7154530Y-18257560D01*
X7154530Y-18257560D02*
X7135482Y-18267084D01*
X7135482Y-18267084D02*
X7106910Y-18267084D01*
X7287863Y-18267084D02*
X7268815Y-18257560D01*
X7268815Y-18257560D02*
X7259291Y-18238512D01*
X7259291Y-18238512D02*
X7259291Y-18067084D01*
X7440244Y-18257560D02*
X7421196Y-18267084D01*
X7421196Y-18267084D02*
X7383101Y-18267084D01*
X7383101Y-18267084D02*
X7364053Y-18257560D01*
X7364053Y-18257560D02*
X7354530Y-18238512D01*
X7354530Y-18238512D02*
X7354530Y-18162322D01*
X7354530Y-18162322D02*
X7364053Y-18143274D01*
X7364053Y-18143274D02*
X7383101Y-18133750D01*
X7383101Y-18133750D02*
X7421196Y-18133750D01*
X7421196Y-18133750D02*
X7440244Y-18143274D01*
X7440244Y-18143274D02*
X7449768Y-18162322D01*
X7449768Y-18162322D02*
X7449768Y-18181370D01*
X7449768Y-18181370D02*
X7354530Y-18200417D01*
X7525958Y-18257560D02*
X7545006Y-18267084D01*
X7545006Y-18267084D02*
X7583101Y-18267084D01*
X7583101Y-18267084D02*
X7602149Y-18257560D01*
X7602149Y-18257560D02*
X7611672Y-18238512D01*
X7611672Y-18238512D02*
X7611672Y-18228989D01*
X7611672Y-18228989D02*
X7602149Y-18209941D01*
X7602149Y-18209941D02*
X7583101Y-18200417D01*
X7583101Y-18200417D02*
X7554530Y-18200417D01*
X7554530Y-18200417D02*
X7535482Y-18190893D01*
X7535482Y-18190893D02*
X7525958Y-18171846D01*
X7525958Y-18171846D02*
X7525958Y-18162322D01*
X7525958Y-18162322D02*
X7535482Y-18143274D01*
X7535482Y-18143274D02*
X7554530Y-18133750D01*
X7554530Y-18133750D02*
X7583101Y-18133750D01*
X7583101Y-18133750D02*
X7602149Y-18143274D01*
X7678339Y-18343274D02*
X7687863Y-18333750D01*
X7687863Y-18333750D02*
X7706911Y-18305179D01*
X7706911Y-18305179D02*
X7716434Y-18286131D01*
X7716434Y-18286131D02*
X7725958Y-18257560D01*
X7725958Y-18257560D02*
X7735482Y-18209941D01*
X7735482Y-18209941D02*
X7735482Y-18171846D01*
X7735482Y-18171846D02*
X7725958Y-18124227D01*
X7725958Y-18124227D02*
X7716434Y-18095655D01*
X7716434Y-18095655D02*
X7706911Y-18076608D01*
X7706911Y-18076608D02*
X7687863Y-18048036D01*
X7687863Y-18048036D02*
X7678339Y-18038512D01*
M02*
