M48
INCH,TZ
T1C0.0157
T2C0.0394
T3C0.0512
T4C0.0551
%
G90
G05
T1
X14150Y-6600
X14650Y-6550
X14737Y-48156
X14750Y-59100
X15000Y-13800
X15250Y-55550
X15350Y-6550
X15420Y-63580
X15550Y-9900
X15950Y-6550
X16450Y-6550
X17000Y-6550
X17500Y-31940
X17960Y-45320
X18000Y-15050
X18704Y-14104
X20750Y-19350
X20907Y-55950
X21200Y-48800
X21350Y-18700
X21420Y-31960
X21541Y-8209
X21580Y-45280
X21850Y-18450
X22012Y-57549
X22174Y-15424
X22200Y-53215
X22600Y-61360
X22800Y-11650
X22850Y-17850
X23500Y-9450
X23565Y-13200
X23750Y-21450
X23800Y-54950
X23800Y-55950
X23800Y-63050
X23854Y-59150
X25850Y-19700
X26050Y-19200
X26300Y-17450
X26650Y-20300
X26699Y-8200
X26700Y-59400
X26900Y-9300
X27033Y-53950
X27050Y-53450
X27475Y-59575
X27650Y-26400
X27950Y-7522
X28400Y-57700
X28550Y-56150
X28720Y-33320
X28800Y-24600
X29302Y-24950
X29580Y-55647
X30231Y-59496
X30560Y-32900
X30650Y-24500
X30680Y-55371
X30740Y-33655
X30849Y-27201
X31000Y-26468
X31275Y-55372
X31300Y-25550
X31350Y-24550
X31880Y-32800
X31900Y-33300
X31920Y-33940
X32450Y-54900
X32600Y-56050
X32650Y-25300
X32650Y-55450
X32750Y-57650
X32900Y-34280
X32900Y-34840
X32980Y-36580
X32998Y-35342
X33000Y-35760
X33160Y-36160
X33440Y-59255
X33500Y-27800
X33550Y-23500
X34220Y-60740
X34500Y-22250
X34621Y-14980
X35000Y-53950
X35000Y-54718
X35240Y-59540
X35298Y-57998
X35300Y-14350
X35380Y-28700
X35400Y-27260
X35424Y-59159
X35450Y-53850
X35450Y-54750
X35720Y-60840
X35760Y-60000
X35780Y-57920
X36000Y-17750
X36060Y-27740
X36280Y-59520
X36360Y-58520
X36800Y-59440
X36880Y-27340
X37033Y-22395
X37160Y-57760
X37260Y-53360
X37260Y-61044
X37620Y-56940
X37700Y-54718
X37800Y-21650
X37800Y-23060
X37920Y-41820
X38200Y-53960
X38240Y-56951
X38550Y-22400
X38600Y-54900
X38620Y-57460
X38720Y-55680
X38750Y-17700
X38760Y-59640
X38780Y-46020
X38780Y-53660
X38800Y-47018
X39180Y-39720
X39200Y-53840
X39540Y-53380
X40920Y-58045
X41500Y-56935
X41840Y-58045
X42000Y-56900
X42080Y-55540
X42260Y-25800
X42480Y-56935
X42620Y-55120
X42646Y-49060
X43120Y-48620
X43300Y-21950
X43357Y-46787
X43400Y-24840
X43420Y-45180
X43500Y-57380
X43680Y-48700
X43700Y-46980
X43880Y-27000
X43965Y-36549
X43980Y-35480
X44020Y-58260
X44140Y-39500
X44140Y-45200
X44140Y-46840
X44140Y-48720
X44300Y-27920
X44500Y-21450
X44580Y-24800
X44600Y-37480
X44640Y-49060
X44800Y-45040
X44840Y-40040
X44860Y-36200
X44860Y-56720
X44940Y-38740
X45080Y-28660
X45120Y-48080
X45340Y-37260
X45520Y-41640
X45740Y-35600
X45760Y-46860
X45800Y-48017
X45860Y-43200
X46100Y-41280
X46242Y-42762
X46700Y-7583
X46720Y-29060
X46780Y-46900
X46800Y-45160
X46886Y-24540
X46896Y-26824
X46971Y-23409
X47022Y-22334
X47212Y-21640
X47280Y-48780
X47300Y-34980
X47380Y-37620
X47400Y-18350
X47400Y-39880
X47400Y-41660
X47400Y-43400
X47400Y-48040
X47460Y-56720
X47500Y-47003
X47700Y-14450
X47800Y-50800
X47900Y-55580
X48150Y-17664
X48150Y-18550
X48200Y-27960
X48200Y-30460
X48220Y-55220
X48300Y-36600
X48555Y-55013
X48560Y-25880
X48640Y-56280
X48840Y-54720
X48850Y-34850
X48900Y-17600
X48940Y-55940
X49072Y-47820
X49167Y-54449
X49208Y-55652
X49400Y-48037
X49500Y-55360
X49612Y-19212
X49720Y-54400
X49745Y-42914
X49774Y-48234
X49800Y-7550
X49920Y-55283
X50020Y-24840
X50085Y-14600
X50520Y-55320
X50600Y-30560
X50680Y-50182
X50800Y-54400
X50800Y-61252
X51000Y-61680
X51220Y-54417
X51482Y-48431
X51520Y-22860
X51760Y-48720
X52340Y-49340
X52431Y-48109
X52450Y-20250
X52640Y-22500
X52680Y-41120
X52680Y-49612
X52840Y-48360
X53332Y-17989
X53357Y-46387
X53660Y-46672
X53760Y-50460
X53836Y-49973
X53950Y-17614
X54008Y-41100
X54017Y-20571
X54040Y-49540
X54250Y-22700
X54640Y-44120
X54660Y-42440
X54740Y-45380
X54780Y-18320
X54781Y-41100
X54782Y-44760
X55120Y-49540
X55140Y-50480
X55200Y-15350
X55480Y-44740
X55540Y-46380
X55560Y-42380
X55560Y-44020
X55620Y-48160
X55660Y-15500
X55683Y-16554
X55750Y-62500
X55820Y-45080
X56320Y-41040
X56520Y-48120
X56560Y-47420
X56650Y-21500
X56750Y-22150
X56750Y-22150
X56940Y-48166
X57150Y-20831
X57320Y-58620
X57340Y-58180
X57353Y-59140
X57550Y-20500
X57650Y-21983
X57720Y-60140
X57800Y-49600
X57800Y-54250
X57815Y-60665
X57900Y-50480
X57960Y-59140
X58020Y-58180
X58250Y-61100
X58260Y-47020
X58380Y-59440
X58528Y-54200
X58561Y-46680
X58620Y-49620
X59050Y-54350
X59550Y-8900
X59650Y-56600
X59815Y-58095
X59860Y-62460
X59960Y-49342
X60200Y-54800
X60400Y-8950
X60520Y-61960
X61000Y-8950
X61060Y-62060
X61121Y-54500
X61280Y-59700
X61400Y-48349
X61700Y-8950
X61780Y-62345
X61940Y-44349
X62500Y-8950
X63150Y-9000
X63200Y-56590
X63600Y-54400
X63747Y-21197
X63950Y-8950
X63950Y-61100
X64300Y-53000
X64386Y-54950
X64386Y-55900
X64386Y-56400
X64585Y-20653
X64716Y-21066
X64780Y-40720
X64800Y-19886
X65100Y-37620
X65160Y-47920
X65460Y-30860
X65460Y-47140
X65740Y-25000
X65766Y-45460
X65766Y-46380
X65823Y-63377
X65939Y-19050
X66100Y-37600
X66100Y-40900
X66500Y-45460
X66520Y-46420
X66600Y-37200
X66640Y-30840
X66650Y-63085
X66720Y-25520
X66750Y-9600
X66760Y-44680
X66880Y-37720
X66880Y-40900
X67100Y-18800
X67167Y-25418
X67180Y-30700
X67200Y-19747
X67350Y-59450
X67450Y-55800
X67480Y-37724
X67560Y-25440
X67600Y-21100
X67660Y-27180
X67700Y-14950
X67750Y-17300
X67920Y-40900
X67940Y-37680
X67977Y-27463
X68059Y-25298
X68098Y-15102
X68150Y-18257
X68205Y-41320
X68360Y-23240
X68360Y-27860
X68360Y-37724
X68380Y-40740
X68600Y-56150
X68641Y-58756
X68650Y-62800
X68750Y-20950
X69050Y-56150
X69100Y-17686
X69445Y-56436
X69850Y-59300
X70400Y-56150
X72500Y-20500
X72650Y-20000
X72750Y-21000
X72800Y-19500
X73300Y-20500
X73300Y-21100
X73350Y-19950
X73550Y-14450
X73650Y-19400
X73850Y-20450
X73900Y-20900
X74100Y-20050
X74522Y-57250
X75188Y-12812
X75400Y-18257
X76350Y-63100
X76600Y-58900
X76950Y-9600
X77150Y-10850
X77150Y-18835
X77550Y-18500
T2
X23266Y-27815
X30380Y-60360
X59600Y-52500
X64500Y-23150
T3
X30916Y-9000
X34664Y-9000
X41216Y-9000
X44964Y-9000
X57552Y-36700
X61300Y-36700
T4
X19771Y-8209
X19771Y-10177
X19771Y-12146
X19785Y-58697
X19785Y-60665
X19785Y-62634
X73344Y-7972
X73344Y-9941
X73344Y-11909
X73400Y-58463
X73400Y-60431
X73400Y-62400
T0
M30
