%TF.GenerationSoftware,KiCad,Pcbnew,7.0.8*%
%TF.CreationDate,2023-11-03T15:58:09-04:00*%
%TF.ProjectId,GoodBotControlBoard,476f6f64-426f-4744-936f-6e74726f6c42,rev?*%
%TF.SameCoordinates,Original*%
%TF.FileFunction,Drillmap*%
%TF.FilePolarity,Positive*%
%FSLAX45Y45*%
G04 Gerber Fmt 4.5, Leading zero omitted, Abs format (unit mm)*
G04 Created by KiCad (PCBNEW 7.0.8) date 2023-11-03 15:58:09*
%MOMM*%
%LPD*%
G01*
G04 APERTURE LIST*
%ADD10C,0.100000*%
%ADD11C,0.200000*%
%ADD12C,0.040000*%
%ADD13C,0.130000*%
%ADD14C,0.140000*%
G04 APERTURE END LIST*
D10*
X20497800Y-16738600D02*
X2717800Y-16738600D01*
X20497800Y-1295400D02*
X20497800Y-16738600D01*
X2717800Y-1295400D02*
X20497800Y-1295400D01*
X2717800Y-16738600D02*
X2717800Y-1295400D01*
D11*
D12*
X3302320Y-1575120D02*
X3342320Y-1615120D01*
X3342320Y-1575120D02*
X3302320Y-1615120D01*
X3348040Y-1427800D02*
X3388040Y-1467800D01*
X3388040Y-1427800D02*
X3348040Y-1467800D01*
X3398840Y-1559880D02*
X3438840Y-1599880D01*
X3438840Y-1559880D02*
X3398840Y-1599880D01*
X3429320Y-1676720D02*
X3469320Y-1716720D01*
X3469320Y-1676720D02*
X3429320Y-1716720D01*
X3454720Y-1437960D02*
X3494720Y-1477960D01*
X3494720Y-1437960D02*
X3454720Y-1477960D01*
X3490280Y-1534480D02*
X3530280Y-1574480D01*
X3530280Y-1534480D02*
X3490280Y-1574480D01*
X3556320Y-1595440D02*
X3596320Y-1635440D01*
X3596320Y-1595440D02*
X3556320Y-1635440D01*
X3571560Y-1417640D02*
X3611560Y-1457640D01*
X3611560Y-1417640D02*
X3571560Y-1457640D01*
X3914460Y-3690940D02*
X3954460Y-3730940D01*
X3954460Y-3690940D02*
X3914460Y-3730940D01*
X4074480Y-14107480D02*
X4114480Y-14147480D01*
X4114480Y-14107480D02*
X4074480Y-14147480D01*
X4104960Y-4320860D02*
X4144960Y-4360860D01*
X4144960Y-4320860D02*
X4104960Y-4360860D01*
X4160840Y-15296200D02*
X4200840Y-15336200D01*
X4200840Y-15296200D02*
X4160840Y-15336200D01*
X4658680Y-2781620D02*
X4698680Y-2821620D01*
X4698680Y-2781620D02*
X4658680Y-2821620D01*
X4978720Y-5377500D02*
X5018720Y-5417500D01*
X5018720Y-5377500D02*
X4978720Y-5417500D01*
X5153980Y-5230180D02*
X5193980Y-5270180D01*
X5193980Y-5230180D02*
X5153980Y-5270180D01*
X5435920Y-3840520D02*
X5475920Y-3880520D01*
X5475920Y-3840520D02*
X5435920Y-3880520D01*
X5562920Y-13284520D02*
X5602920Y-13324520D01*
X5602920Y-13284520D02*
X5562920Y-13324520D01*
X5664520Y-2296480D02*
X5704520Y-2336480D01*
X5704520Y-2296480D02*
X5664520Y-2336480D01*
X5710240Y-4704400D02*
X5750240Y-4744400D01*
X5750240Y-4704400D02*
X5710240Y-4744400D01*
X5715720Y-14054540D02*
X5755720Y-14094540D01*
X5755720Y-14054540D02*
X5715720Y-14094540D01*
X5791520Y-3538540D02*
X5831520Y-3578540D01*
X5831520Y-3538540D02*
X5791520Y-3578540D01*
X5837700Y-15017260D02*
X5877700Y-15057260D01*
X5877700Y-15017260D02*
X5837700Y-15057260D01*
X5844860Y-5446080D02*
X5884860Y-5486080D01*
X5884860Y-5446080D02*
X5844860Y-5486080D01*
X5849940Y-2682560D02*
X5889940Y-2722560D01*
X5889940Y-2682560D02*
X5849940Y-2722560D01*
X5849940Y-14328460D02*
X5889940Y-14368460D01*
X5889940Y-14328460D02*
X5849940Y-14368460D01*
X5956050Y-2758760D02*
X5996050Y-2798760D01*
X5996050Y-2758760D02*
X5956050Y-2798760D01*
X6228400Y-16318490D02*
X6268400Y-16358490D01*
X6268400Y-16318490D02*
X6228400Y-16358490D01*
X6285330Y-4972150D02*
X6325330Y-5012150D01*
X6325330Y-4972150D02*
X6285330Y-5012150D01*
X6418900Y-7023420D02*
X6458900Y-7063420D01*
X6458900Y-7023420D02*
X6418900Y-7063420D01*
X6423980Y-6792280D02*
X6463980Y-6832280D01*
X6463980Y-6792280D02*
X6423980Y-6832280D01*
X6434140Y-6642420D02*
X6474140Y-6682420D01*
X6474140Y-6642420D02*
X6434140Y-6682420D01*
X6441760Y-16390940D02*
X6481760Y-16430940D01*
X6481760Y-16390940D02*
X6441760Y-16430940D01*
X6512880Y-5501960D02*
X6552880Y-5541960D01*
X6552880Y-5501960D02*
X6512880Y-5541960D01*
X6517960Y-13937300D02*
X6557960Y-13977300D01*
X6557960Y-13937300D02*
X6517960Y-13977300D01*
X6525950Y-3406460D02*
X6565950Y-3446460D01*
X6565950Y-3406460D02*
X6525950Y-3446460D01*
X6535450Y-4506212D02*
X6575450Y-4546212D01*
X6575450Y-4506212D02*
X6535450Y-4546212D01*
X6548440Y-14082080D02*
X6588440Y-14122080D01*
X6588440Y-14082080D02*
X6548440Y-14122080D01*
X6589080Y-13566460D02*
X6629080Y-13606460D01*
X6629080Y-13566460D02*
X6589080Y-13606460D01*
X6594160Y-4191320D02*
X6634160Y-4231320D01*
X6634160Y-4191320D02*
X6594160Y-4231320D01*
X6601780Y-2504760D02*
X6641780Y-2544760D01*
X6641780Y-2504760D02*
X6601780Y-2544760D01*
X6637340Y-5349560D02*
X6677340Y-5389560D01*
X6677340Y-5349560D02*
X6637340Y-5389560D01*
X6647500Y-13342940D02*
X6687500Y-13382940D01*
X6687500Y-13342940D02*
X6647500Y-13382940D01*
X6703380Y-5429510D02*
X6743380Y-5469510D01*
X6743380Y-5429510D02*
X6703380Y-5469510D01*
X6783114Y-5736634D02*
X6823114Y-5776634D01*
X6823114Y-5736634D02*
X6783114Y-5776634D01*
X6872230Y-8255320D02*
X6912230Y-8295320D01*
X6912230Y-8255320D02*
X6872230Y-8295320D01*
X6938902Y-5891831D02*
X6978902Y-5931831D01*
X6978902Y-5891831D02*
X6938902Y-5931831D01*
X6944680Y-8146100D02*
X6984680Y-8186100D01*
X6984680Y-8146100D02*
X6944680Y-8186100D01*
X7004450Y-3505520D02*
X7044450Y-3545520D01*
X7044450Y-3505520D02*
X7004450Y-3545520D01*
X7011311Y-5819381D02*
X7051311Y-5859381D01*
X7051311Y-5819381D02*
X7011311Y-5859381D01*
X7092000Y-5748340D02*
X7132000Y-5788340D01*
X7132000Y-5748340D02*
X7092000Y-5788340D01*
X7130100Y-5623880D02*
X7170100Y-5663880D01*
X7170100Y-5623880D02*
X7130100Y-5663880D01*
X7171170Y-14246750D02*
X7211170Y-14286750D01*
X7211170Y-14246750D02*
X7171170Y-14286750D01*
X7199050Y-5177100D02*
X7239050Y-5217100D01*
X7239050Y-5177100D02*
X7199050Y-5217100D01*
X7251180Y-5434220D02*
X7291180Y-5474220D01*
X7291180Y-5434220D02*
X7251180Y-5474220D01*
X7323140Y-5080320D02*
X7363140Y-5120320D01*
X7363140Y-5080320D02*
X7323140Y-5120320D01*
X7385769Y-14466210D02*
X7425769Y-14506210D01*
X7425769Y-14466210D02*
X7385769Y-14506210D01*
X7467965Y-5588015D02*
X7507965Y-5628015D01*
X7507965Y-5588015D02*
X7467965Y-5628015D01*
X7569520Y-6434140D02*
X7609520Y-6474140D01*
X7609520Y-6434140D02*
X7569520Y-6474140D01*
X7574600Y-14306250D02*
X7614600Y-14346250D01*
X7614600Y-14306250D02*
X7574600Y-14346250D01*
X7633020Y-5494340D02*
X7673020Y-5534340D01*
X7673020Y-5494340D02*
X7633020Y-5534340D01*
X7655880Y-5792890D02*
X7695880Y-5832890D01*
X7695880Y-5792890D02*
X7655880Y-5832890D01*
X7706680Y-6078540D02*
X7746680Y-6118540D01*
X7746680Y-6078540D02*
X7706680Y-6118540D01*
X7800660Y-4468180D02*
X7840660Y-4508180D01*
X7840660Y-4468180D02*
X7800660Y-4508180D01*
X7810820Y-5938290D02*
X7850820Y-5978290D01*
X7850820Y-5938290D02*
X7810820Y-5978290D01*
X7833680Y-4772980D02*
X7873680Y-4812980D01*
X7873680Y-4772980D02*
X7833680Y-4812980D01*
X7848920Y-5507040D02*
X7888920Y-5547040D01*
X7888920Y-5507040D02*
X7848920Y-5547040D01*
X7917500Y-5964240D02*
X7957500Y-6004240D01*
X7957500Y-5964240D02*
X7917500Y-6004240D01*
X7923650Y-14052275D02*
X7963650Y-14092275D01*
X7963650Y-14052275D02*
X7923650Y-14092275D01*
X7986080Y-10577109D02*
X8026080Y-10617109D01*
X8026080Y-10577109D02*
X7986080Y-10617109D01*
X8047470Y-14133310D02*
X8087470Y-14173310D01*
X8087470Y-14133310D02*
X8047470Y-14173310D01*
X8057200Y-7582220D02*
X8097200Y-7622220D01*
X8097200Y-7582220D02*
X8057200Y-7622220D01*
X8166850Y-7719810D02*
X8206850Y-7759810D01*
X8206850Y-7719810D02*
X8166850Y-7759810D01*
X8296630Y-14285050D02*
X8336630Y-14325050D01*
X8336630Y-14285050D02*
X8296630Y-14325050D01*
X8303580Y-14582460D02*
X8343580Y-14622460D01*
X8343580Y-14582460D02*
X8303580Y-14622460D01*
X8588060Y-5847400D02*
X8628060Y-5887400D01*
X8628060Y-5847400D02*
X8588060Y-5887400D01*
X8603300Y-5722940D02*
X8643300Y-5762940D01*
X8643300Y-5722940D02*
X8603300Y-5762940D01*
X8613460Y-5964240D02*
X8653460Y-6004240D01*
X8653460Y-5964240D02*
X8613460Y-6004240D01*
X8687120Y-6975160D02*
X8727120Y-7015160D01*
X8727120Y-6975160D02*
X8687120Y-7015160D01*
X8890320Y-3746820D02*
X8930320Y-3786820D01*
X8930320Y-3746820D02*
X8890320Y-3786820D01*
X8910640Y-3602040D02*
X8950640Y-3642040D01*
X8950640Y-3602040D02*
X8910640Y-3642040D01*
X9225600Y-10567059D02*
X9265600Y-10607059D01*
X9265600Y-10567059D02*
X9225600Y-10607059D01*
X9243380Y-10150160D02*
X9283380Y-10190160D01*
X9283380Y-10150160D02*
X9243380Y-10190160D01*
X9245920Y-4450400D02*
X9285920Y-4490400D01*
X9285920Y-4450400D02*
X9245920Y-4490400D01*
X9372920Y-10879140D02*
X9412920Y-10919140D01*
X9412920Y-10879140D02*
X9372920Y-10919140D01*
X9395780Y-15004100D02*
X9435780Y-15044100D01*
X9435780Y-15004100D02*
X9395780Y-15044100D01*
X9410018Y-5602558D02*
X9450018Y-5642558D01*
X9450018Y-5602558D02*
X9410018Y-5642558D01*
X9510080Y-5496880D02*
X9550080Y-5536880D01*
X9550080Y-5496880D02*
X9510080Y-5536880D01*
X9548180Y-4379280D02*
X9588180Y-4419280D01*
X9588180Y-4379280D02*
X9548180Y-4419280D01*
X9632412Y-5832572D02*
X9672412Y-5872572D01*
X9672412Y-5832572D02*
X9632412Y-5872572D01*
X9695500Y-11346500D02*
X9735500Y-11386500D01*
X9735500Y-11346500D02*
X9695500Y-11386500D01*
X9748840Y-5733230D02*
X9788840Y-5773230D01*
X9788840Y-5733230D02*
X9748840Y-5773230D01*
X9797100Y-10797860D02*
X9837100Y-10837860D01*
X9837100Y-10797860D02*
X9797100Y-10837860D01*
X9814319Y-6119250D02*
X9854319Y-6159250D01*
X9854319Y-6119250D02*
X9814319Y-6159250D01*
X9814880Y-3772220D02*
X9854880Y-3812220D01*
X9854880Y-3772220D02*
X9814880Y-3812220D01*
X10175560Y-5590860D02*
X10215560Y-5630860D01*
X10215560Y-5590860D02*
X10175560Y-5630860D01*
X10190800Y-7551740D02*
X10230800Y-7591740D01*
X10230800Y-7551740D02*
X10190800Y-7591740D01*
X10200960Y-12078020D02*
X10240960Y-12118020D01*
X10240960Y-12078020D02*
X10200960Y-12118020D01*
X10218740Y-12245660D02*
X10258740Y-12285660D01*
X10258740Y-12245660D02*
X10218740Y-12285660D01*
X10251760Y-5651820D02*
X10291760Y-5691820D01*
X10291760Y-5651820D02*
X10251760Y-5691820D01*
X10307640Y-5705160D02*
X10347640Y-5745160D01*
X10347640Y-5705160D02*
X10307640Y-5745160D01*
X10556560Y-15057440D02*
X10596560Y-15097440D01*
X10596560Y-15057440D02*
X10556560Y-15097440D01*
X10805480Y-12621580D02*
X10845480Y-12661580D01*
X10845480Y-12621580D02*
X10805480Y-12661580D01*
X10835790Y-12441240D02*
X10875790Y-12481240D01*
X10875790Y-12441240D02*
X10835790Y-12481240D01*
X10843580Y-4104960D02*
X10883580Y-4144960D01*
X10883580Y-4104960D02*
X10843580Y-4144960D01*
X10871520Y-14747560D02*
X10911520Y-14787560D01*
X10911520Y-14747560D02*
X10871520Y-14787560D01*
X10908290Y-12349800D02*
X10948290Y-12389800D01*
X10948290Y-12349800D02*
X10908290Y-12389800D01*
X10929940Y-5900740D02*
X10969940Y-5940740D01*
X10969940Y-5900740D02*
X10929940Y-5940740D01*
X10945180Y-5443540D02*
X10985180Y-5483540D01*
X10985180Y-5443540D02*
X10945180Y-5483540D01*
X10980740Y-12474260D02*
X11020740Y-12514260D01*
X11020740Y-12474260D02*
X10980740Y-12514260D01*
X10988360Y-7533960D02*
X11028360Y-7573960D01*
X11028360Y-7533960D02*
X10988360Y-7573960D01*
X11023920Y-15347000D02*
X11063920Y-15387000D01*
X11063920Y-15347000D02*
X11023920Y-15387000D01*
X11059480Y-12624120D02*
X11099480Y-12664120D01*
X11099480Y-12624120D02*
X11059480Y-12664120D01*
X11145840Y-12164380D02*
X11185840Y-12204380D01*
X11185840Y-12164380D02*
X11145840Y-12204380D01*
X11201720Y-15352080D02*
X11241720Y-15392080D01*
X11241720Y-15352080D02*
X11201720Y-15392080D01*
X11201720Y-15783880D02*
X11241720Y-15823880D01*
X11241720Y-15783880D02*
X11201720Y-15823880D01*
X11293160Y-12004360D02*
X11333160Y-12044360D01*
X11333160Y-12004360D02*
X11293160Y-12044360D01*
X11380866Y-12170806D02*
X11420866Y-12210806D01*
X11420866Y-12170806D02*
X11380866Y-12210806D01*
X11397300Y-6436680D02*
X11437300Y-6476680D01*
X11437300Y-6436680D02*
X11397300Y-6476680D01*
X11417190Y-10309750D02*
X11457190Y-10349750D01*
X11457190Y-10309750D02*
X11417190Y-10349750D01*
X11435400Y-5679760D02*
X11475400Y-5719760D01*
X11475400Y-5679760D02*
X11435400Y-5719760D01*
X11580180Y-12001820D02*
X11620180Y-12041820D01*
X11620180Y-12001820D02*
X11580180Y-12041820D01*
X11653209Y-10469569D02*
X11693209Y-10509569D01*
X11693209Y-10469569D02*
X11653209Y-10509569D01*
X11717340Y-5402900D02*
X11757340Y-5442900D01*
X11757340Y-5402900D02*
X11717340Y-5442900D01*
X11765600Y-10612440D02*
X11805600Y-10652440D01*
X11805600Y-10612440D02*
X11765600Y-10652440D01*
X11791000Y-10418570D02*
X11831000Y-10458570D01*
X11831000Y-10418570D02*
X11791000Y-10458570D01*
X11943400Y-14137960D02*
X11983400Y-14177960D01*
X11983400Y-14137960D02*
X11943400Y-14177960D01*
X11986580Y-4595180D02*
X12026580Y-4635180D01*
X12026580Y-4595180D02*
X11986580Y-4635180D01*
X12182160Y-6843080D02*
X12222160Y-6883080D01*
X12222160Y-6843080D02*
X12182160Y-6883080D01*
X12240324Y-4443896D02*
X12280324Y-4483896D01*
X12280324Y-4443896D02*
X12240324Y-4483896D01*
X12293920Y-4785680D02*
X12333920Y-4825680D01*
X12333920Y-4785680D02*
X12293920Y-4825680D01*
X12334560Y-5265740D02*
X12374560Y-5305740D01*
X12374560Y-5265740D02*
X12334560Y-5305740D01*
X12370120Y-11750360D02*
X12410120Y-11790360D01*
X12410120Y-11750360D02*
X12370120Y-11790360D01*
X12395520Y-5618800D02*
X12435520Y-5658800D01*
X12435520Y-5618800D02*
X12395520Y-5658800D01*
X12395816Y-4288404D02*
X12435816Y-4328404D01*
X12435816Y-4288404D02*
X12395816Y-4328404D01*
X12431080Y-3558860D02*
X12471080Y-3598860D01*
X12471080Y-3558860D02*
X12431080Y-3598860D01*
X12433620Y-4767900D02*
X12473620Y-4807900D01*
X12473620Y-4767900D02*
X12433620Y-4807900D01*
X12497120Y-11653840D02*
X12537120Y-11693840D01*
X12537120Y-11653840D02*
X12497120Y-11693840D01*
X12553000Y-4767900D02*
X12593000Y-4807900D01*
X12593000Y-4767900D02*
X12553000Y-4807900D01*
X12588560Y-14097320D02*
X12628560Y-14137320D01*
X12628560Y-14097320D02*
X12588560Y-14137320D01*
X12702860Y-3502980D02*
X12742860Y-3542980D01*
X12742860Y-3502980D02*
X12702860Y-3542980D01*
X12796840Y-3210880D02*
X12836840Y-3250880D01*
X12836840Y-3210880D02*
X12796840Y-3250880D01*
X12850180Y-1534480D02*
X12890180Y-1574480D01*
X12890180Y-1534480D02*
X12850180Y-1574480D01*
X12867960Y-1661480D02*
X12907960Y-1701480D01*
X12907960Y-1661480D02*
X12867960Y-1701480D01*
X12870500Y-2682560D02*
X12910500Y-2722560D01*
X12910500Y-2682560D02*
X12870500Y-2722560D01*
X12875580Y-13294680D02*
X12915580Y-13334680D01*
X12915580Y-13294680D02*
X12875580Y-13334680D01*
X12898440Y-16068360D02*
X12938440Y-16108360D01*
X12938440Y-16068360D02*
X12898440Y-16108360D01*
X12974640Y-10505760D02*
X13014640Y-10545760D01*
X13014640Y-10505760D02*
X12974640Y-10545760D01*
X12982260Y-12024680D02*
X13022260Y-12064680D01*
X13022260Y-12024680D02*
X12982260Y-12064680D01*
X13010200Y-16114080D02*
X13050200Y-16154080D01*
X13050200Y-16114080D02*
X13010200Y-16154080D01*
X13022900Y-11501440D02*
X13062900Y-11541440D01*
X13062900Y-11501440D02*
X13022900Y-11541440D01*
X13254040Y-15326680D02*
X13294040Y-15366680D01*
X13294040Y-15326680D02*
X13254040Y-15366680D01*
X13256580Y-5105720D02*
X13296580Y-5145720D01*
X13296580Y-5105720D02*
X13256580Y-5145720D01*
X13276900Y-16083600D02*
X13316900Y-16123600D01*
X13316900Y-16083600D02*
X13276900Y-16123600D01*
X13373420Y-2464120D02*
X13413420Y-2504120D01*
X13413420Y-2464120D02*
X13373420Y-2504120D01*
X13403900Y-11874820D02*
X13443900Y-11914820D01*
X13443900Y-11874820D02*
X13403900Y-11914820D01*
X13439460Y-5002830D02*
X13479460Y-5042830D01*
X13479460Y-5002830D02*
X13439460Y-5042830D01*
X13454700Y-11420160D02*
X13494700Y-11460160D01*
X13494700Y-11420160D02*
X13454700Y-11460160D01*
X13462320Y-10592120D02*
X13502320Y-10632120D01*
X13502320Y-10592120D02*
X13462320Y-10632120D01*
X13492800Y-15103160D02*
X13532800Y-15143160D01*
X13532800Y-15103160D02*
X13492800Y-15143160D01*
X13505500Y-5329240D02*
X13545500Y-5369240D01*
X13545500Y-5329240D02*
X13505500Y-5369240D01*
X13513120Y-2827560D02*
X13553120Y-2867560D01*
X13553120Y-2827560D02*
X13513120Y-2867560D01*
X13538520Y-15321600D02*
X13578520Y-15361600D01*
X13578520Y-15321600D02*
X13538520Y-15361600D01*
X13623904Y-4604745D02*
X13663904Y-4644745D01*
X13663904Y-4604745D02*
X13623904Y-4644745D01*
X13635040Y-15251810D02*
X13675040Y-15291810D01*
X13675040Y-15251810D02*
X13635040Y-15291810D01*
X13642660Y-4496120D02*
X13682660Y-4536120D01*
X13682660Y-4496120D02*
X13642660Y-4536120D01*
X13735044Y-5181546D02*
X13775044Y-5221546D01*
X13775044Y-5181546D02*
X13735044Y-5221546D01*
X13776933Y-4628434D02*
X13816933Y-4668434D01*
X13816933Y-4628434D02*
X13776933Y-4668434D01*
X13795060Y-10752140D02*
X13835060Y-10792140D01*
X13835060Y-10752140D02*
X13795060Y-10792140D01*
X13828080Y-10569260D02*
X13868080Y-10609260D01*
X13868080Y-10569260D02*
X13828080Y-10609260D01*
X13899200Y-15500730D02*
X13939200Y-15540730D01*
X13939200Y-15500730D02*
X13899200Y-15540730D01*
X14033544Y-5897924D02*
X14073544Y-5937924D01*
X14073544Y-5897924D02*
X14033544Y-5937924D01*
X14110020Y-3490280D02*
X14150020Y-3530280D01*
X14150020Y-3490280D02*
X14110020Y-3530280D01*
X14186220Y-4821240D02*
X14226220Y-4861240D01*
X14226220Y-4821240D02*
X14186220Y-4861240D01*
X14204000Y-5250500D02*
X14244000Y-5290500D01*
X14244000Y-5250500D02*
X14204000Y-5290500D01*
X14204000Y-5580700D02*
X14244000Y-5620700D01*
X14244000Y-5580700D02*
X14204000Y-5620700D01*
X14214160Y-10442260D02*
X14254160Y-10482260D01*
X14254160Y-10442260D02*
X14214160Y-10482260D01*
X14226860Y-4229420D02*
X14266860Y-4269420D01*
X14266860Y-4229420D02*
X14226860Y-4269420D01*
X14272580Y-4821240D02*
X14312580Y-4861240D01*
X14312580Y-4821240D02*
X14272580Y-4861240D01*
X14336080Y-5278440D02*
X14376080Y-5318440D01*
X14376080Y-5278440D02*
X14336080Y-5318440D01*
X14356400Y-14478320D02*
X14396400Y-14518320D01*
X14396400Y-14478320D02*
X14356400Y-14518320D01*
X14361480Y-15106910D02*
X14401480Y-15146910D01*
X14401480Y-15106910D02*
X14361480Y-15146910D01*
X14430060Y-5474020D02*
X14470060Y-5514020D01*
X14470060Y-5474020D02*
X14430060Y-5514020D01*
X14432600Y-6384070D02*
X14472600Y-6424070D01*
X14472600Y-6384070D02*
X14432600Y-6424070D01*
X14508800Y-14493560D02*
X14548800Y-14533560D01*
X14548800Y-14493560D02*
X14508800Y-14533560D01*
X14534200Y-14049060D02*
X14574200Y-14089060D01*
X14574200Y-14049060D02*
X14534200Y-14089060D01*
X14574840Y-5462450D02*
X14614840Y-5502450D01*
X14614840Y-5462450D02*
X14574840Y-5502450D01*
X14668820Y-13452160D02*
X14708820Y-13492160D01*
X14708820Y-13452160D02*
X14668820Y-13492160D01*
X14742480Y-10023160D02*
X14782480Y-10063160D01*
X14782480Y-10023160D02*
X14742480Y-10063160D01*
X14833920Y-13800140D02*
X14873920Y-13840140D01*
X14873920Y-13800140D02*
X14833920Y-13840140D01*
X14849160Y-14662530D02*
X14889160Y-14702530D01*
X14889160Y-14662530D02*
X14849160Y-14702530D01*
X14892340Y-13419140D02*
X14932340Y-13459140D01*
X14932340Y-13419140D02*
X14892340Y-13459140D01*
X14899960Y-15113320D02*
X14939960Y-15153320D01*
X14939960Y-15113320D02*
X14899960Y-15153320D01*
X14998590Y-11147950D02*
X15038590Y-11187950D01*
X15038590Y-11147950D02*
X14998590Y-11187950D01*
X15073890Y-10465120D02*
X15113890Y-10505120D01*
X15113890Y-10465120D02*
X15073890Y-10505120D01*
X15222540Y-9670100D02*
X15262540Y-9710100D01*
X15262540Y-9670100D02*
X15222540Y-9710100D01*
X15247940Y-10759760D02*
X15287940Y-10799760D01*
X15287940Y-10759760D02*
X15247940Y-10799760D01*
X15301280Y-13642660D02*
X15341280Y-13682660D01*
X15341280Y-13642660D02*
X15301280Y-13682660D01*
X15320390Y-11145840D02*
X15360390Y-11185840D01*
X15360390Y-11145840D02*
X15320390Y-11185840D01*
X15418120Y-13535980D02*
X15458120Y-13575980D01*
X15458120Y-13535980D02*
X15418120Y-13575980D01*
X15758480Y-6322380D02*
X15798480Y-6362380D01*
X15798480Y-6322380D02*
X15758480Y-6362380D01*
X15766100Y-13495340D02*
X15806100Y-13535340D01*
X15806100Y-13495340D02*
X15766100Y-13535340D01*
X15877860Y-13787440D02*
X15917860Y-13827440D01*
X15917860Y-13787440D02*
X15877860Y-13827440D01*
X15928660Y-5938840D02*
X15968660Y-5978840D01*
X15968660Y-5938840D02*
X15928660Y-5978840D01*
X15966760Y-6116640D02*
X16006760Y-6156640D01*
X16006760Y-6116640D02*
X15966760Y-6156640D01*
X16040420Y-14087160D02*
X16080420Y-14127160D01*
X16080420Y-14087160D02*
X16040420Y-14127160D01*
X16068598Y-13912563D02*
X16108598Y-13952563D01*
X16108598Y-13912563D02*
X16068598Y-13952563D01*
X16097420Y-5606100D02*
X16137420Y-5646100D01*
X16137420Y-5606100D02*
X16097420Y-5646100D01*
X16218220Y-13937300D02*
X16258220Y-13977300D01*
X16258220Y-13937300D02*
X16218220Y-13977300D01*
X16383320Y-6045520D02*
X16423320Y-6085520D01*
X16423320Y-6045520D02*
X16383320Y-6085520D01*
X16398560Y-5750880D02*
X16438560Y-5790880D01*
X16438560Y-5750880D02*
X16398560Y-5790880D01*
X16413800Y-14310680D02*
X16453800Y-14350680D01*
X16453800Y-14310680D02*
X16413800Y-14350680D01*
X16599220Y-2580960D02*
X16639220Y-2620960D01*
X16639220Y-2580960D02*
X16599220Y-2620960D01*
X16637320Y-12926380D02*
X16677320Y-12966380D01*
X16677320Y-12926380D02*
X16637320Y-12966380D01*
X16642270Y-6604320D02*
X16682270Y-6644320D01*
X16682270Y-6604320D02*
X16642270Y-6644320D01*
X16651730Y-4867790D02*
X16691730Y-4907790D01*
X16691730Y-4867790D02*
X16651730Y-4907790D01*
X16680500Y-6723700D02*
X16720500Y-6763700D01*
X16720500Y-6723700D02*
X16680500Y-6763700D01*
X16708440Y-5298760D02*
X16748440Y-5338760D01*
X16748440Y-5298760D02*
X16708440Y-5338760D01*
X16742270Y-6810060D02*
X16782270Y-6850060D01*
X16782270Y-6810060D02*
X16742270Y-6850060D01*
X16792260Y-8966520D02*
X16832260Y-9006520D01*
X16832260Y-8966520D02*
X16792260Y-9006520D01*
X16792270Y-6901500D02*
X16832270Y-6941500D01*
X16832270Y-6901500D02*
X16792270Y-6941500D01*
X16797340Y-9845360D02*
X16837340Y-9885360D01*
X16837340Y-9845360D02*
X16797340Y-9885360D01*
X16842270Y-7010720D02*
X16882270Y-7050720D01*
X16882270Y-7010720D02*
X16842270Y-7050720D01*
X16911640Y-7117400D02*
X16951640Y-7157400D01*
X16951640Y-7117400D02*
X16911640Y-7157400D01*
X16916720Y-5151440D02*
X16956720Y-5191440D01*
X16956720Y-5151440D02*
X16916720Y-5191440D01*
X16975140Y-16129320D02*
X17015140Y-16169320D01*
X17015140Y-16129320D02*
X16975140Y-16169320D01*
X17028480Y-4414840D02*
X17068480Y-4454840D01*
X17068480Y-4414840D02*
X17028480Y-4454840D01*
X17084360Y-5400360D02*
X17124360Y-5440360D01*
X17124360Y-5400360D02*
X17084360Y-5440360D01*
X17114840Y-5753420D02*
X17154840Y-5793420D01*
X17154840Y-5753420D02*
X17114840Y-5793420D01*
X17142780Y-3696020D02*
X17182780Y-3736020D01*
X17182780Y-3696020D02*
X17142780Y-3736020D01*
X17145320Y-14031280D02*
X17185320Y-14071280D01*
X17185320Y-14031280D02*
X17145320Y-14071280D01*
X17170720Y-6050600D02*
X17210720Y-6090600D01*
X17210720Y-6050600D02*
X17170720Y-6090600D01*
X17178340Y-4552000D02*
X17218340Y-4592000D01*
X17218340Y-4552000D02*
X17178340Y-4592000D01*
X17277400Y-14364020D02*
X17317400Y-14404020D01*
X17317400Y-14364020D02*
X17277400Y-14404020D01*
X17300260Y-15321600D02*
X17340260Y-15361600D01*
X17340260Y-15321600D02*
X17300260Y-15361600D01*
X17437420Y-5667060D02*
X17477420Y-5707060D01*
X17477420Y-5667060D02*
X17437420Y-5707060D01*
X17439960Y-5875340D02*
X17479960Y-5915340D01*
X17479960Y-5875340D02*
X17439960Y-5915340D01*
X17533940Y-5961700D02*
X17573940Y-6001700D01*
X17573940Y-5961700D02*
X17533940Y-6001700D01*
X17879380Y-5141280D02*
X17919380Y-5181280D01*
X17919380Y-5141280D02*
X17879380Y-5181280D01*
X18984280Y-14249720D02*
X19024280Y-14289720D01*
X19024280Y-14249720D02*
X18984280Y-14289720D01*
X19177320Y-16134400D02*
X19217320Y-16174400D01*
X19217320Y-16134400D02*
X19177320Y-16174400D01*
X19281460Y-14899960D02*
X19321460Y-14939960D01*
X19321460Y-14899960D02*
X19281460Y-14939960D01*
X19405920Y-3706180D02*
X19445920Y-3746180D01*
X19445920Y-3706180D02*
X19405920Y-3746180D01*
X19484660Y-2641920D02*
X19524660Y-2681920D01*
X19524660Y-2641920D02*
X19484660Y-2681920D01*
D10*
X6834340Y-6951980D02*
G75*
G03*
X6834340Y-6951980I-50000J0D01*
G01*
X6858200Y-7941300D02*
G75*
G03*
X6858200Y-7941300I-50000J0D01*
G01*
X7112200Y-7941300D02*
G75*
G03*
X7112200Y-7941300I-50000J0D01*
G01*
X7366200Y-7941300D02*
G75*
G03*
X7366200Y-7941300I-50000J0D01*
G01*
X7614120Y-9941560D02*
G75*
G03*
X7614120Y-9941560I-50000J0D01*
G01*
X7620200Y-7941300D02*
G75*
G03*
X7620200Y-7941300I-50000J0D01*
G01*
X7766520Y-15331440D02*
G75*
G03*
X7766520Y-15331440I-50000J0D01*
G01*
X7868120Y-9941560D02*
G75*
G03*
X7868120Y-9941560I-50000J0D01*
G01*
X7874200Y-7941300D02*
G75*
G03*
X7874200Y-7941300I-50000J0D01*
G01*
X8122120Y-9941560D02*
G75*
G03*
X8122120Y-9941560I-50000J0D01*
G01*
X8128200Y-7941300D02*
G75*
G03*
X8128200Y-7941300I-50000J0D01*
G01*
X8382200Y-7941300D02*
G75*
G03*
X8382200Y-7941300I-50000J0D01*
G01*
X8879040Y-8940800D02*
G75*
G03*
X8879040Y-8940800I-50000J0D01*
G01*
X9133040Y-8940800D02*
G75*
G03*
X9133040Y-8940800I-50000J0D01*
G01*
X9270200Y-14066520D02*
G75*
G03*
X9270200Y-14066520I-50000J0D01*
G01*
X9387040Y-8940800D02*
G75*
G03*
X9387040Y-8940800I-50000J0D01*
G01*
X9524200Y-14066520D02*
G75*
G03*
X9524200Y-14066520I-50000J0D01*
G01*
X9641040Y-8940800D02*
G75*
G03*
X9641040Y-8940800I-50000J0D01*
G01*
X9656280Y-15600680D02*
G75*
G03*
X9656280Y-15600680I-50000J0D01*
G01*
X9778200Y-14066520D02*
G75*
G03*
X9778200Y-14066520I-50000J0D01*
G01*
X9895040Y-8940800D02*
G75*
G03*
X9895040Y-8940800I-50000J0D01*
G01*
X9910280Y-15600680D02*
G75*
G03*
X9910280Y-15600680I-50000J0D01*
G01*
X10032200Y-14066520D02*
G75*
G03*
X10032200Y-14066520I-50000J0D01*
G01*
X10149040Y-8940800D02*
G75*
G03*
X10149040Y-8940800I-50000J0D01*
G01*
X10164280Y-15600680D02*
G75*
G03*
X10164280Y-15600680I-50000J0D01*
G01*
X10286200Y-14066520D02*
G75*
G03*
X10286200Y-14066520I-50000J0D01*
G01*
X10403040Y-8940800D02*
G75*
G03*
X10403040Y-8940800I-50000J0D01*
G01*
X10418280Y-15600680D02*
G75*
G03*
X10418280Y-15600680I-50000J0D01*
G01*
X10657040Y-8940800D02*
G75*
G03*
X10657040Y-8940800I-50000J0D01*
G01*
X10672280Y-15600680D02*
G75*
G03*
X10672280Y-15600680I-50000J0D01*
G01*
X10926280Y-15600680D02*
G75*
G03*
X10926280Y-15600680I-50000J0D01*
G01*
X10966920Y-8427720D02*
G75*
G03*
X10966920Y-8427720I-50000J0D01*
G01*
X11180280Y-15600680D02*
G75*
G03*
X11180280Y-15600680I-50000J0D01*
G01*
X11220920Y-8427720D02*
G75*
G03*
X11220920Y-8427720I-50000J0D01*
G01*
X11293040Y-9860280D02*
G75*
G03*
X11293040Y-9860280I-50000J0D01*
G01*
X11474920Y-8427720D02*
G75*
G03*
X11474920Y-8427720I-50000J0D01*
G01*
X11500500Y-14760000D02*
G75*
G03*
X11500500Y-14760000I-50000J0D01*
G01*
X11547040Y-9860280D02*
G75*
G03*
X11547040Y-9860280I-50000J0D01*
G01*
X11728920Y-8427720D02*
G75*
G03*
X11728920Y-8427720I-50000J0D01*
G01*
X11754500Y-14760000D02*
G75*
G03*
X11754500Y-14760000I-50000J0D01*
G01*
X11801040Y-9860280D02*
G75*
G03*
X11801040Y-9860280I-50000J0D01*
G01*
X11982920Y-8427720D02*
G75*
G03*
X11982920Y-8427720I-50000J0D01*
G01*
X12008500Y-14760000D02*
G75*
G03*
X12008500Y-14760000I-50000J0D01*
G01*
X12055040Y-9860280D02*
G75*
G03*
X12055040Y-9860280I-50000J0D01*
G01*
X12262500Y-14760000D02*
G75*
G03*
X12262500Y-14760000I-50000J0D01*
G01*
X12516500Y-14760000D02*
G75*
G03*
X12516500Y-14760000I-50000J0D01*
G01*
X13705040Y-12578080D02*
G75*
G03*
X13705040Y-12578080I-50000J0D01*
G01*
X13715200Y-11551920D02*
G75*
G03*
X13715200Y-11551920I-50000J0D01*
G01*
X13852360Y-10982960D02*
G75*
G03*
X13852360Y-10982960I-50000J0D01*
G01*
X13959040Y-12578080D02*
G75*
G03*
X13959040Y-12578080I-50000J0D01*
G01*
X13969200Y-11551920D02*
G75*
G03*
X13969200Y-11551920I-50000J0D01*
G01*
X14030160Y-14284960D02*
G75*
G03*
X14030160Y-14284960I-50000J0D01*
G01*
X14106360Y-10982960D02*
G75*
G03*
X14106360Y-10982960I-50000J0D01*
G01*
X14121100Y-10266680D02*
G75*
G03*
X14121100Y-10266680I-50000J0D01*
G01*
X14213040Y-12578080D02*
G75*
G03*
X14213040Y-12578080I-50000J0D01*
G01*
X14223200Y-11551920D02*
G75*
G03*
X14223200Y-11551920I-50000J0D01*
G01*
X14360360Y-10982960D02*
G75*
G03*
X14360360Y-10982960I-50000J0D01*
G01*
X14375100Y-10266680D02*
G75*
G03*
X14375100Y-10266680I-50000J0D01*
G01*
X14467040Y-12578080D02*
G75*
G03*
X14467040Y-12578080I-50000J0D01*
G01*
X14477200Y-11551920D02*
G75*
G03*
X14477200Y-11551920I-50000J0D01*
G01*
X14563560Y-14869160D02*
G75*
G03*
X14563560Y-14869160I-50000J0D01*
G01*
X14614360Y-10982960D02*
G75*
G03*
X14614360Y-10982960I-50000J0D01*
G01*
X14629100Y-10266680D02*
G75*
G03*
X14629100Y-10266680I-50000J0D01*
G01*
X14721040Y-12578080D02*
G75*
G03*
X14721040Y-12578080I-50000J0D01*
G01*
X14731200Y-11551920D02*
G75*
G03*
X14731200Y-11551920I-50000J0D01*
G01*
X14817560Y-14869160D02*
G75*
G03*
X14817560Y-14869160I-50000J0D01*
G01*
X14868360Y-10982960D02*
G75*
G03*
X14868360Y-10982960I-50000J0D01*
G01*
X14883100Y-10266680D02*
G75*
G03*
X14883100Y-10266680I-50000J0D01*
G01*
X15071560Y-14869160D02*
G75*
G03*
X15071560Y-14869160I-50000J0D01*
G01*
X15137100Y-10266680D02*
G75*
G03*
X15137100Y-10266680I-50000J0D01*
G01*
X15325560Y-14869160D02*
G75*
G03*
X15325560Y-14869160I-50000J0D01*
G01*
X15391100Y-10266680D02*
G75*
G03*
X15391100Y-10266680I-50000J0D01*
G01*
X15579560Y-14869160D02*
G75*
G03*
X15579560Y-14869160I-50000J0D01*
G01*
X15645100Y-10266680D02*
G75*
G03*
X15645100Y-10266680I-50000J0D01*
G01*
X15833560Y-14869160D02*
G75*
G03*
X15833560Y-14869160I-50000J0D01*
G01*
X16087560Y-14869160D02*
G75*
G03*
X16087560Y-14869160I-50000J0D01*
G01*
X16446720Y-6620120D02*
G75*
G03*
X16446720Y-6620120I-50000J0D01*
G01*
D13*
X7648440Y-2657880D02*
X7648440Y-2787880D01*
X7583440Y-2722880D02*
X7713440Y-2722880D01*
X8600440Y-2657880D02*
X8600440Y-2787880D01*
X8535440Y-2722880D02*
X8665440Y-2722880D01*
X10541000Y-2657880D02*
X10541000Y-2787880D01*
X10476000Y-2722880D02*
X10606000Y-2722880D01*
X11493000Y-2657880D02*
X11493000Y-2787880D01*
X11428000Y-2722880D02*
X11558000Y-2722880D01*
X15133320Y-8438920D02*
X15133320Y-8568920D01*
X15068320Y-8503920D02*
X15198320Y-8503920D01*
X15133320Y-9390920D02*
X15133320Y-9520920D01*
X15068320Y-9455920D02*
X15198320Y-9455920D01*
D14*
X4951698Y-14278578D02*
X4951698Y-14179582D01*
X4852702Y-14179582D01*
X4852702Y-14278578D01*
X4951698Y-14278578D01*
X4951698Y-14778578D02*
X4951698Y-14679582D01*
X4852702Y-14679582D01*
X4852702Y-14778578D01*
X4951698Y-14778578D01*
X4951698Y-15278578D02*
X4951698Y-15179582D01*
X4852702Y-15179582D01*
X4852702Y-15278578D01*
X4951698Y-15278578D01*
X4987258Y-2651218D02*
X4987258Y-2552222D01*
X4888262Y-2552222D01*
X4888262Y-2651218D01*
X4987258Y-2651218D01*
X4987258Y-3151218D02*
X4987258Y-3052222D01*
X4888262Y-3052222D01*
X4888262Y-3151218D01*
X4987258Y-3151218D01*
X4987258Y-3651218D02*
X4987258Y-3552222D01*
X4888262Y-3552222D01*
X4888262Y-3651218D01*
X4987258Y-3651218D01*
X18652458Y-14232858D02*
X18652458Y-14133862D01*
X18553462Y-14133862D01*
X18553462Y-14232858D01*
X18652458Y-14232858D01*
X18652458Y-14732858D02*
X18652458Y-14633862D01*
X18553462Y-14633862D01*
X18553462Y-14732858D01*
X18652458Y-14732858D01*
X18652458Y-15232858D02*
X18652458Y-15133862D01*
X18553462Y-15133862D01*
X18553462Y-15232858D01*
X18652458Y-15232858D01*
X18678998Y-2074498D02*
X18678998Y-1975502D01*
X18580002Y-1975502D01*
X18580002Y-2074498D01*
X18678998Y-2074498D01*
X18678998Y-2574498D02*
X18678998Y-2475502D01*
X18580002Y-2475502D01*
X18580002Y-2574498D01*
X18678998Y-2574498D01*
X18678998Y-3074498D02*
X18678998Y-2975502D01*
X18580002Y-2975502D01*
X18580002Y-3074498D01*
X18678998Y-3074498D01*
D11*
X2973577Y-17055084D02*
X2973577Y-16855084D01*
X2973577Y-16855084D02*
X3021196Y-16855084D01*
X3021196Y-16855084D02*
X3049767Y-16864608D01*
X3049767Y-16864608D02*
X3068815Y-16883655D01*
X3068815Y-16883655D02*
X3078339Y-16902703D01*
X3078339Y-16902703D02*
X3087862Y-16940798D01*
X3087862Y-16940798D02*
X3087862Y-16969370D01*
X3087862Y-16969370D02*
X3078339Y-17007465D01*
X3078339Y-17007465D02*
X3068815Y-17026512D01*
X3068815Y-17026512D02*
X3049767Y-17045560D01*
X3049767Y-17045560D02*
X3021196Y-17055084D01*
X3021196Y-17055084D02*
X2973577Y-17055084D01*
X3173577Y-17055084D02*
X3173577Y-16921750D01*
X3173577Y-16959846D02*
X3183101Y-16940798D01*
X3183101Y-16940798D02*
X3192624Y-16931274D01*
X3192624Y-16931274D02*
X3211672Y-16921750D01*
X3211672Y-16921750D02*
X3230720Y-16921750D01*
X3297386Y-17055084D02*
X3297386Y-16921750D01*
X3297386Y-16855084D02*
X3287862Y-16864608D01*
X3287862Y-16864608D02*
X3297386Y-16874131D01*
X3297386Y-16874131D02*
X3306910Y-16864608D01*
X3306910Y-16864608D02*
X3297386Y-16855084D01*
X3297386Y-16855084D02*
X3297386Y-16874131D01*
X3421196Y-17055084D02*
X3402148Y-17045560D01*
X3402148Y-17045560D02*
X3392624Y-17026512D01*
X3392624Y-17026512D02*
X3392624Y-16855084D01*
X3525958Y-17055084D02*
X3506910Y-17045560D01*
X3506910Y-17045560D02*
X3497386Y-17026512D01*
X3497386Y-17026512D02*
X3497386Y-16855084D01*
X3754529Y-17055084D02*
X3754529Y-16855084D01*
X3754529Y-16855084D02*
X3821196Y-16997941D01*
X3821196Y-16997941D02*
X3887862Y-16855084D01*
X3887862Y-16855084D02*
X3887862Y-17055084D01*
X4068815Y-17055084D02*
X4068815Y-16950322D01*
X4068815Y-16950322D02*
X4059291Y-16931274D01*
X4059291Y-16931274D02*
X4040243Y-16921750D01*
X4040243Y-16921750D02*
X4002148Y-16921750D01*
X4002148Y-16921750D02*
X3983101Y-16931274D01*
X4068815Y-17045560D02*
X4049767Y-17055084D01*
X4049767Y-17055084D02*
X4002148Y-17055084D01*
X4002148Y-17055084D02*
X3983101Y-17045560D01*
X3983101Y-17045560D02*
X3973577Y-17026512D01*
X3973577Y-17026512D02*
X3973577Y-17007465D01*
X3973577Y-17007465D02*
X3983101Y-16988417D01*
X3983101Y-16988417D02*
X4002148Y-16978893D01*
X4002148Y-16978893D02*
X4049767Y-16978893D01*
X4049767Y-16978893D02*
X4068815Y-16969370D01*
X4164053Y-16921750D02*
X4164053Y-17121750D01*
X4164053Y-16931274D02*
X4183101Y-16921750D01*
X4183101Y-16921750D02*
X4221196Y-16921750D01*
X4221196Y-16921750D02*
X4240244Y-16931274D01*
X4240244Y-16931274D02*
X4249767Y-16940798D01*
X4249767Y-16940798D02*
X4259291Y-16959846D01*
X4259291Y-16959846D02*
X4259291Y-17016989D01*
X4259291Y-17016989D02*
X4249767Y-17036036D01*
X4249767Y-17036036D02*
X4240244Y-17045560D01*
X4240244Y-17045560D02*
X4221196Y-17055084D01*
X4221196Y-17055084D02*
X4183101Y-17055084D01*
X4183101Y-17055084D02*
X4164053Y-17045560D01*
X4345005Y-17036036D02*
X4354529Y-17045560D01*
X4354529Y-17045560D02*
X4345005Y-17055084D01*
X4345005Y-17055084D02*
X4335482Y-17045560D01*
X4335482Y-17045560D02*
X4345005Y-17036036D01*
X4345005Y-17036036D02*
X4345005Y-17055084D01*
X4345005Y-16931274D02*
X4354529Y-16940798D01*
X4354529Y-16940798D02*
X4345005Y-16950322D01*
X4345005Y-16950322D02*
X4335482Y-16940798D01*
X4335482Y-16940798D02*
X4345005Y-16931274D01*
X4345005Y-16931274D02*
X4345005Y-16950322D01*
D12*
X2672800Y-17363600D02*
X2712800Y-17403600D01*
X2712800Y-17363600D02*
X2672800Y-17403600D01*
D11*
X3011672Y-17275084D02*
X3030720Y-17275084D01*
X3030720Y-17275084D02*
X3049767Y-17284608D01*
X3049767Y-17284608D02*
X3059291Y-17294131D01*
X3059291Y-17294131D02*
X3068815Y-17313179D01*
X3068815Y-17313179D02*
X3078339Y-17351274D01*
X3078339Y-17351274D02*
X3078339Y-17398893D01*
X3078339Y-17398893D02*
X3068815Y-17436989D01*
X3068815Y-17436989D02*
X3059291Y-17456036D01*
X3059291Y-17456036D02*
X3049767Y-17465560D01*
X3049767Y-17465560D02*
X3030720Y-17475084D01*
X3030720Y-17475084D02*
X3011672Y-17475084D01*
X3011672Y-17475084D02*
X2992624Y-17465560D01*
X2992624Y-17465560D02*
X2983101Y-17456036D01*
X2983101Y-17456036D02*
X2973577Y-17436989D01*
X2973577Y-17436989D02*
X2964053Y-17398893D01*
X2964053Y-17398893D02*
X2964053Y-17351274D01*
X2964053Y-17351274D02*
X2973577Y-17313179D01*
X2973577Y-17313179D02*
X2983101Y-17294131D01*
X2983101Y-17294131D02*
X2992624Y-17284608D01*
X2992624Y-17284608D02*
X3011672Y-17275084D01*
X3164053Y-17456036D02*
X3173577Y-17465560D01*
X3173577Y-17465560D02*
X3164053Y-17475084D01*
X3164053Y-17475084D02*
X3154529Y-17465560D01*
X3154529Y-17465560D02*
X3164053Y-17456036D01*
X3164053Y-17456036D02*
X3164053Y-17475084D01*
X3345005Y-17341750D02*
X3345005Y-17475084D01*
X3297386Y-17265560D02*
X3249767Y-17408417D01*
X3249767Y-17408417D02*
X3373577Y-17408417D01*
X3487862Y-17275084D02*
X3506910Y-17275084D01*
X3506910Y-17275084D02*
X3525958Y-17284608D01*
X3525958Y-17284608D02*
X3535482Y-17294131D01*
X3535482Y-17294131D02*
X3545005Y-17313179D01*
X3545005Y-17313179D02*
X3554529Y-17351274D01*
X3554529Y-17351274D02*
X3554529Y-17398893D01*
X3554529Y-17398893D02*
X3545005Y-17436989D01*
X3545005Y-17436989D02*
X3535482Y-17456036D01*
X3535482Y-17456036D02*
X3525958Y-17465560D01*
X3525958Y-17465560D02*
X3506910Y-17475084D01*
X3506910Y-17475084D02*
X3487862Y-17475084D01*
X3487862Y-17475084D02*
X3468815Y-17465560D01*
X3468815Y-17465560D02*
X3459291Y-17456036D01*
X3459291Y-17456036D02*
X3449767Y-17436989D01*
X3449767Y-17436989D02*
X3440243Y-17398893D01*
X3440243Y-17398893D02*
X3440243Y-17351274D01*
X3440243Y-17351274D02*
X3449767Y-17313179D01*
X3449767Y-17313179D02*
X3459291Y-17294131D01*
X3459291Y-17294131D02*
X3468815Y-17284608D01*
X3468815Y-17284608D02*
X3487862Y-17275084D01*
X3678339Y-17275084D02*
X3697386Y-17275084D01*
X3697386Y-17275084D02*
X3716434Y-17284608D01*
X3716434Y-17284608D02*
X3725958Y-17294131D01*
X3725958Y-17294131D02*
X3735482Y-17313179D01*
X3735482Y-17313179D02*
X3745005Y-17351274D01*
X3745005Y-17351274D02*
X3745005Y-17398893D01*
X3745005Y-17398893D02*
X3735482Y-17436989D01*
X3735482Y-17436989D02*
X3725958Y-17456036D01*
X3725958Y-17456036D02*
X3716434Y-17465560D01*
X3716434Y-17465560D02*
X3697386Y-17475084D01*
X3697386Y-17475084D02*
X3678339Y-17475084D01*
X3678339Y-17475084D02*
X3659291Y-17465560D01*
X3659291Y-17465560D02*
X3649767Y-17456036D01*
X3649767Y-17456036D02*
X3640243Y-17436989D01*
X3640243Y-17436989D02*
X3630720Y-17398893D01*
X3630720Y-17398893D02*
X3630720Y-17351274D01*
X3630720Y-17351274D02*
X3640243Y-17313179D01*
X3640243Y-17313179D02*
X3649767Y-17294131D01*
X3649767Y-17294131D02*
X3659291Y-17284608D01*
X3659291Y-17284608D02*
X3678339Y-17275084D01*
X3830720Y-17475084D02*
X3830720Y-17341750D01*
X3830720Y-17360798D02*
X3840243Y-17351274D01*
X3840243Y-17351274D02*
X3859291Y-17341750D01*
X3859291Y-17341750D02*
X3887863Y-17341750D01*
X3887863Y-17341750D02*
X3906910Y-17351274D01*
X3906910Y-17351274D02*
X3916434Y-17370322D01*
X3916434Y-17370322D02*
X3916434Y-17475084D01*
X3916434Y-17370322D02*
X3925958Y-17351274D01*
X3925958Y-17351274D02*
X3945005Y-17341750D01*
X3945005Y-17341750D02*
X3973577Y-17341750D01*
X3973577Y-17341750D02*
X3992624Y-17351274D01*
X3992624Y-17351274D02*
X4002148Y-17370322D01*
X4002148Y-17370322D02*
X4002148Y-17475084D01*
X4097386Y-17475084D02*
X4097386Y-17341750D01*
X4097386Y-17360798D02*
X4106910Y-17351274D01*
X4106910Y-17351274D02*
X4125958Y-17341750D01*
X4125958Y-17341750D02*
X4154529Y-17341750D01*
X4154529Y-17341750D02*
X4173577Y-17351274D01*
X4173577Y-17351274D02*
X4183101Y-17370322D01*
X4183101Y-17370322D02*
X4183101Y-17475084D01*
X4183101Y-17370322D02*
X4192624Y-17351274D01*
X4192624Y-17351274D02*
X4211672Y-17341750D01*
X4211672Y-17341750D02*
X4240244Y-17341750D01*
X4240244Y-17341750D02*
X4259291Y-17351274D01*
X4259291Y-17351274D02*
X4268815Y-17370322D01*
X4268815Y-17370322D02*
X4268815Y-17475084D01*
X4659291Y-17265560D02*
X4487863Y-17522703D01*
X4916434Y-17275084D02*
X4935482Y-17275084D01*
X4935482Y-17275084D02*
X4954529Y-17284608D01*
X4954529Y-17284608D02*
X4964053Y-17294131D01*
X4964053Y-17294131D02*
X4973577Y-17313179D01*
X4973577Y-17313179D02*
X4983101Y-17351274D01*
X4983101Y-17351274D02*
X4983101Y-17398893D01*
X4983101Y-17398893D02*
X4973577Y-17436989D01*
X4973577Y-17436989D02*
X4964053Y-17456036D01*
X4964053Y-17456036D02*
X4954529Y-17465560D01*
X4954529Y-17465560D02*
X4935482Y-17475084D01*
X4935482Y-17475084D02*
X4916434Y-17475084D01*
X4916434Y-17475084D02*
X4897387Y-17465560D01*
X4897387Y-17465560D02*
X4887863Y-17456036D01*
X4887863Y-17456036D02*
X4878339Y-17436989D01*
X4878339Y-17436989D02*
X4868815Y-17398893D01*
X4868815Y-17398893D02*
X4868815Y-17351274D01*
X4868815Y-17351274D02*
X4878339Y-17313179D01*
X4878339Y-17313179D02*
X4887863Y-17294131D01*
X4887863Y-17294131D02*
X4897387Y-17284608D01*
X4897387Y-17284608D02*
X4916434Y-17275084D01*
X5068815Y-17456036D02*
X5078339Y-17465560D01*
X5078339Y-17465560D02*
X5068815Y-17475084D01*
X5068815Y-17475084D02*
X5059291Y-17465560D01*
X5059291Y-17465560D02*
X5068815Y-17456036D01*
X5068815Y-17456036D02*
X5068815Y-17475084D01*
X5202148Y-17275084D02*
X5221196Y-17275084D01*
X5221196Y-17275084D02*
X5240244Y-17284608D01*
X5240244Y-17284608D02*
X5249768Y-17294131D01*
X5249768Y-17294131D02*
X5259291Y-17313179D01*
X5259291Y-17313179D02*
X5268815Y-17351274D01*
X5268815Y-17351274D02*
X5268815Y-17398893D01*
X5268815Y-17398893D02*
X5259291Y-17436989D01*
X5259291Y-17436989D02*
X5249768Y-17456036D01*
X5249768Y-17456036D02*
X5240244Y-17465560D01*
X5240244Y-17465560D02*
X5221196Y-17475084D01*
X5221196Y-17475084D02*
X5202148Y-17475084D01*
X5202148Y-17475084D02*
X5183101Y-17465560D01*
X5183101Y-17465560D02*
X5173577Y-17456036D01*
X5173577Y-17456036D02*
X5164053Y-17436989D01*
X5164053Y-17436989D02*
X5154529Y-17398893D01*
X5154529Y-17398893D02*
X5154529Y-17351274D01*
X5154529Y-17351274D02*
X5164053Y-17313179D01*
X5164053Y-17313179D02*
X5173577Y-17294131D01*
X5173577Y-17294131D02*
X5183101Y-17284608D01*
X5183101Y-17284608D02*
X5202148Y-17275084D01*
X5459291Y-17475084D02*
X5345006Y-17475084D01*
X5402148Y-17475084D02*
X5402148Y-17275084D01*
X5402148Y-17275084D02*
X5383101Y-17303655D01*
X5383101Y-17303655D02*
X5364053Y-17322703D01*
X5364053Y-17322703D02*
X5345006Y-17332227D01*
X5640244Y-17275084D02*
X5545006Y-17275084D01*
X5545006Y-17275084D02*
X5535482Y-17370322D01*
X5535482Y-17370322D02*
X5545006Y-17360798D01*
X5545006Y-17360798D02*
X5564053Y-17351274D01*
X5564053Y-17351274D02*
X5611672Y-17351274D01*
X5611672Y-17351274D02*
X5630720Y-17360798D01*
X5630720Y-17360798D02*
X5640244Y-17370322D01*
X5640244Y-17370322D02*
X5649767Y-17389370D01*
X5649767Y-17389370D02*
X5649767Y-17436989D01*
X5649767Y-17436989D02*
X5640244Y-17456036D01*
X5640244Y-17456036D02*
X5630720Y-17465560D01*
X5630720Y-17465560D02*
X5611672Y-17475084D01*
X5611672Y-17475084D02*
X5564053Y-17475084D01*
X5564053Y-17475084D02*
X5545006Y-17465560D01*
X5545006Y-17465560D02*
X5535482Y-17456036D01*
X5716434Y-17275084D02*
X5849767Y-17275084D01*
X5849767Y-17275084D02*
X5764053Y-17475084D01*
X5916434Y-17275084D02*
X5916434Y-17313179D01*
X5992625Y-17275084D02*
X5992625Y-17313179D01*
X6287863Y-17551274D02*
X6278339Y-17541750D01*
X6278339Y-17541750D02*
X6259291Y-17513179D01*
X6259291Y-17513179D02*
X6249768Y-17494131D01*
X6249768Y-17494131D02*
X6240244Y-17465560D01*
X6240244Y-17465560D02*
X6230720Y-17417941D01*
X6230720Y-17417941D02*
X6230720Y-17379846D01*
X6230720Y-17379846D02*
X6240244Y-17332227D01*
X6240244Y-17332227D02*
X6249768Y-17303655D01*
X6249768Y-17303655D02*
X6259291Y-17284608D01*
X6259291Y-17284608D02*
X6278339Y-17256036D01*
X6278339Y-17256036D02*
X6287863Y-17246512D01*
X6354529Y-17294131D02*
X6364053Y-17284608D01*
X6364053Y-17284608D02*
X6383101Y-17275084D01*
X6383101Y-17275084D02*
X6430720Y-17275084D01*
X6430720Y-17275084D02*
X6449768Y-17284608D01*
X6449768Y-17284608D02*
X6459291Y-17294131D01*
X6459291Y-17294131D02*
X6468815Y-17313179D01*
X6468815Y-17313179D02*
X6468815Y-17332227D01*
X6468815Y-17332227D02*
X6459291Y-17360798D01*
X6459291Y-17360798D02*
X6345006Y-17475084D01*
X6345006Y-17475084D02*
X6468815Y-17475084D01*
X6640244Y-17341750D02*
X6640244Y-17475084D01*
X6592625Y-17265560D02*
X6545006Y-17408417D01*
X6545006Y-17408417D02*
X6668815Y-17408417D01*
X6725958Y-17275084D02*
X6849768Y-17275084D01*
X6849768Y-17275084D02*
X6783101Y-17351274D01*
X6783101Y-17351274D02*
X6811672Y-17351274D01*
X6811672Y-17351274D02*
X6830720Y-17360798D01*
X6830720Y-17360798D02*
X6840244Y-17370322D01*
X6840244Y-17370322D02*
X6849768Y-17389370D01*
X6849768Y-17389370D02*
X6849768Y-17436989D01*
X6849768Y-17436989D02*
X6840244Y-17456036D01*
X6840244Y-17456036D02*
X6830720Y-17465560D01*
X6830720Y-17465560D02*
X6811672Y-17475084D01*
X6811672Y-17475084D02*
X6754529Y-17475084D01*
X6754529Y-17475084D02*
X6735482Y-17465560D01*
X6735482Y-17465560D02*
X6725958Y-17456036D01*
X7087863Y-17475084D02*
X7087863Y-17275084D01*
X7173577Y-17475084D02*
X7173577Y-17370322D01*
X7173577Y-17370322D02*
X7164053Y-17351274D01*
X7164053Y-17351274D02*
X7145006Y-17341750D01*
X7145006Y-17341750D02*
X7116434Y-17341750D01*
X7116434Y-17341750D02*
X7097387Y-17351274D01*
X7097387Y-17351274D02*
X7087863Y-17360798D01*
X7297387Y-17475084D02*
X7278339Y-17465560D01*
X7278339Y-17465560D02*
X7268815Y-17456036D01*
X7268815Y-17456036D02*
X7259291Y-17436989D01*
X7259291Y-17436989D02*
X7259291Y-17379846D01*
X7259291Y-17379846D02*
X7268815Y-17360798D01*
X7268815Y-17360798D02*
X7278339Y-17351274D01*
X7278339Y-17351274D02*
X7297387Y-17341750D01*
X7297387Y-17341750D02*
X7325958Y-17341750D01*
X7325958Y-17341750D02*
X7345006Y-17351274D01*
X7345006Y-17351274D02*
X7354530Y-17360798D01*
X7354530Y-17360798D02*
X7364053Y-17379846D01*
X7364053Y-17379846D02*
X7364053Y-17436989D01*
X7364053Y-17436989D02*
X7354530Y-17456036D01*
X7354530Y-17456036D02*
X7345006Y-17465560D01*
X7345006Y-17465560D02*
X7325958Y-17475084D01*
X7325958Y-17475084D02*
X7297387Y-17475084D01*
X7478339Y-17475084D02*
X7459291Y-17465560D01*
X7459291Y-17465560D02*
X7449768Y-17446512D01*
X7449768Y-17446512D02*
X7449768Y-17275084D01*
X7630720Y-17465560D02*
X7611672Y-17475084D01*
X7611672Y-17475084D02*
X7573577Y-17475084D01*
X7573577Y-17475084D02*
X7554530Y-17465560D01*
X7554530Y-17465560D02*
X7545006Y-17446512D01*
X7545006Y-17446512D02*
X7545006Y-17370322D01*
X7545006Y-17370322D02*
X7554530Y-17351274D01*
X7554530Y-17351274D02*
X7573577Y-17341750D01*
X7573577Y-17341750D02*
X7611672Y-17341750D01*
X7611672Y-17341750D02*
X7630720Y-17351274D01*
X7630720Y-17351274D02*
X7640244Y-17370322D01*
X7640244Y-17370322D02*
X7640244Y-17389370D01*
X7640244Y-17389370D02*
X7545006Y-17408417D01*
X7716434Y-17465560D02*
X7735482Y-17475084D01*
X7735482Y-17475084D02*
X7773577Y-17475084D01*
X7773577Y-17475084D02*
X7792625Y-17465560D01*
X7792625Y-17465560D02*
X7802149Y-17446512D01*
X7802149Y-17446512D02*
X7802149Y-17436989D01*
X7802149Y-17436989D02*
X7792625Y-17417941D01*
X7792625Y-17417941D02*
X7773577Y-17408417D01*
X7773577Y-17408417D02*
X7745006Y-17408417D01*
X7745006Y-17408417D02*
X7725958Y-17398893D01*
X7725958Y-17398893D02*
X7716434Y-17379846D01*
X7716434Y-17379846D02*
X7716434Y-17370322D01*
X7716434Y-17370322D02*
X7725958Y-17351274D01*
X7725958Y-17351274D02*
X7745006Y-17341750D01*
X7745006Y-17341750D02*
X7773577Y-17341750D01*
X7773577Y-17341750D02*
X7792625Y-17351274D01*
X7868815Y-17551274D02*
X7878339Y-17541750D01*
X7878339Y-17541750D02*
X7897387Y-17513179D01*
X7897387Y-17513179D02*
X7906911Y-17494131D01*
X7906911Y-17494131D02*
X7916434Y-17465560D01*
X7916434Y-17465560D02*
X7925958Y-17417941D01*
X7925958Y-17417941D02*
X7925958Y-17379846D01*
X7925958Y-17379846D02*
X7916434Y-17332227D01*
X7916434Y-17332227D02*
X7906911Y-17303655D01*
X7906911Y-17303655D02*
X7897387Y-17284608D01*
X7897387Y-17284608D02*
X7878339Y-17256036D01*
X7878339Y-17256036D02*
X7868815Y-17246512D01*
D10*
X2712800Y-17647600D02*
G75*
G03*
X2712800Y-17647600I-50000J0D01*
G01*
D11*
X3078339Y-17739084D02*
X2964053Y-17739084D01*
X3021196Y-17739084D02*
X3021196Y-17539084D01*
X3021196Y-17539084D02*
X3002148Y-17567655D01*
X3002148Y-17567655D02*
X2983101Y-17586703D01*
X2983101Y-17586703D02*
X2964053Y-17596227D01*
X3164053Y-17720036D02*
X3173577Y-17729560D01*
X3173577Y-17729560D02*
X3164053Y-17739084D01*
X3164053Y-17739084D02*
X3154529Y-17729560D01*
X3154529Y-17729560D02*
X3164053Y-17720036D01*
X3164053Y-17720036D02*
X3164053Y-17739084D01*
X3297386Y-17539084D02*
X3316434Y-17539084D01*
X3316434Y-17539084D02*
X3335482Y-17548608D01*
X3335482Y-17548608D02*
X3345005Y-17558131D01*
X3345005Y-17558131D02*
X3354529Y-17577179D01*
X3354529Y-17577179D02*
X3364053Y-17615274D01*
X3364053Y-17615274D02*
X3364053Y-17662893D01*
X3364053Y-17662893D02*
X3354529Y-17700989D01*
X3354529Y-17700989D02*
X3345005Y-17720036D01*
X3345005Y-17720036D02*
X3335482Y-17729560D01*
X3335482Y-17729560D02*
X3316434Y-17739084D01*
X3316434Y-17739084D02*
X3297386Y-17739084D01*
X3297386Y-17739084D02*
X3278339Y-17729560D01*
X3278339Y-17729560D02*
X3268815Y-17720036D01*
X3268815Y-17720036D02*
X3259291Y-17700989D01*
X3259291Y-17700989D02*
X3249767Y-17662893D01*
X3249767Y-17662893D02*
X3249767Y-17615274D01*
X3249767Y-17615274D02*
X3259291Y-17577179D01*
X3259291Y-17577179D02*
X3268815Y-17558131D01*
X3268815Y-17558131D02*
X3278339Y-17548608D01*
X3278339Y-17548608D02*
X3297386Y-17539084D01*
X3487862Y-17539084D02*
X3506910Y-17539084D01*
X3506910Y-17539084D02*
X3525958Y-17548608D01*
X3525958Y-17548608D02*
X3535482Y-17558131D01*
X3535482Y-17558131D02*
X3545005Y-17577179D01*
X3545005Y-17577179D02*
X3554529Y-17615274D01*
X3554529Y-17615274D02*
X3554529Y-17662893D01*
X3554529Y-17662893D02*
X3545005Y-17700989D01*
X3545005Y-17700989D02*
X3535482Y-17720036D01*
X3535482Y-17720036D02*
X3525958Y-17729560D01*
X3525958Y-17729560D02*
X3506910Y-17739084D01*
X3506910Y-17739084D02*
X3487862Y-17739084D01*
X3487862Y-17739084D02*
X3468815Y-17729560D01*
X3468815Y-17729560D02*
X3459291Y-17720036D01*
X3459291Y-17720036D02*
X3449767Y-17700989D01*
X3449767Y-17700989D02*
X3440243Y-17662893D01*
X3440243Y-17662893D02*
X3440243Y-17615274D01*
X3440243Y-17615274D02*
X3449767Y-17577179D01*
X3449767Y-17577179D02*
X3459291Y-17558131D01*
X3459291Y-17558131D02*
X3468815Y-17548608D01*
X3468815Y-17548608D02*
X3487862Y-17539084D01*
X3678339Y-17539084D02*
X3697386Y-17539084D01*
X3697386Y-17539084D02*
X3716434Y-17548608D01*
X3716434Y-17548608D02*
X3725958Y-17558131D01*
X3725958Y-17558131D02*
X3735482Y-17577179D01*
X3735482Y-17577179D02*
X3745005Y-17615274D01*
X3745005Y-17615274D02*
X3745005Y-17662893D01*
X3745005Y-17662893D02*
X3735482Y-17700989D01*
X3735482Y-17700989D02*
X3725958Y-17720036D01*
X3725958Y-17720036D02*
X3716434Y-17729560D01*
X3716434Y-17729560D02*
X3697386Y-17739084D01*
X3697386Y-17739084D02*
X3678339Y-17739084D01*
X3678339Y-17739084D02*
X3659291Y-17729560D01*
X3659291Y-17729560D02*
X3649767Y-17720036D01*
X3649767Y-17720036D02*
X3640243Y-17700989D01*
X3640243Y-17700989D02*
X3630720Y-17662893D01*
X3630720Y-17662893D02*
X3630720Y-17615274D01*
X3630720Y-17615274D02*
X3640243Y-17577179D01*
X3640243Y-17577179D02*
X3649767Y-17558131D01*
X3649767Y-17558131D02*
X3659291Y-17548608D01*
X3659291Y-17548608D02*
X3678339Y-17539084D01*
X3830720Y-17739084D02*
X3830720Y-17605750D01*
X3830720Y-17624798D02*
X3840243Y-17615274D01*
X3840243Y-17615274D02*
X3859291Y-17605750D01*
X3859291Y-17605750D02*
X3887863Y-17605750D01*
X3887863Y-17605750D02*
X3906910Y-17615274D01*
X3906910Y-17615274D02*
X3916434Y-17634322D01*
X3916434Y-17634322D02*
X3916434Y-17739084D01*
X3916434Y-17634322D02*
X3925958Y-17615274D01*
X3925958Y-17615274D02*
X3945005Y-17605750D01*
X3945005Y-17605750D02*
X3973577Y-17605750D01*
X3973577Y-17605750D02*
X3992624Y-17615274D01*
X3992624Y-17615274D02*
X4002148Y-17634322D01*
X4002148Y-17634322D02*
X4002148Y-17739084D01*
X4097386Y-17739084D02*
X4097386Y-17605750D01*
X4097386Y-17624798D02*
X4106910Y-17615274D01*
X4106910Y-17615274D02*
X4125958Y-17605750D01*
X4125958Y-17605750D02*
X4154529Y-17605750D01*
X4154529Y-17605750D02*
X4173577Y-17615274D01*
X4173577Y-17615274D02*
X4183101Y-17634322D01*
X4183101Y-17634322D02*
X4183101Y-17739084D01*
X4183101Y-17634322D02*
X4192624Y-17615274D01*
X4192624Y-17615274D02*
X4211672Y-17605750D01*
X4211672Y-17605750D02*
X4240244Y-17605750D01*
X4240244Y-17605750D02*
X4259291Y-17615274D01*
X4259291Y-17615274D02*
X4268815Y-17634322D01*
X4268815Y-17634322D02*
X4268815Y-17739084D01*
X4659291Y-17529560D02*
X4487863Y-17786703D01*
X4916434Y-17539084D02*
X4935482Y-17539084D01*
X4935482Y-17539084D02*
X4954529Y-17548608D01*
X4954529Y-17548608D02*
X4964053Y-17558131D01*
X4964053Y-17558131D02*
X4973577Y-17577179D01*
X4973577Y-17577179D02*
X4983101Y-17615274D01*
X4983101Y-17615274D02*
X4983101Y-17662893D01*
X4983101Y-17662893D02*
X4973577Y-17700989D01*
X4973577Y-17700989D02*
X4964053Y-17720036D01*
X4964053Y-17720036D02*
X4954529Y-17729560D01*
X4954529Y-17729560D02*
X4935482Y-17739084D01*
X4935482Y-17739084D02*
X4916434Y-17739084D01*
X4916434Y-17739084D02*
X4897387Y-17729560D01*
X4897387Y-17729560D02*
X4887863Y-17720036D01*
X4887863Y-17720036D02*
X4878339Y-17700989D01*
X4878339Y-17700989D02*
X4868815Y-17662893D01*
X4868815Y-17662893D02*
X4868815Y-17615274D01*
X4868815Y-17615274D02*
X4878339Y-17577179D01*
X4878339Y-17577179D02*
X4887863Y-17558131D01*
X4887863Y-17558131D02*
X4897387Y-17548608D01*
X4897387Y-17548608D02*
X4916434Y-17539084D01*
X5068815Y-17720036D02*
X5078339Y-17729560D01*
X5078339Y-17729560D02*
X5068815Y-17739084D01*
X5068815Y-17739084D02*
X5059291Y-17729560D01*
X5059291Y-17729560D02*
X5068815Y-17720036D01*
X5068815Y-17720036D02*
X5068815Y-17739084D01*
X5202148Y-17539084D02*
X5221196Y-17539084D01*
X5221196Y-17539084D02*
X5240244Y-17548608D01*
X5240244Y-17548608D02*
X5249768Y-17558131D01*
X5249768Y-17558131D02*
X5259291Y-17577179D01*
X5259291Y-17577179D02*
X5268815Y-17615274D01*
X5268815Y-17615274D02*
X5268815Y-17662893D01*
X5268815Y-17662893D02*
X5259291Y-17700989D01*
X5259291Y-17700989D02*
X5249768Y-17720036D01*
X5249768Y-17720036D02*
X5240244Y-17729560D01*
X5240244Y-17729560D02*
X5221196Y-17739084D01*
X5221196Y-17739084D02*
X5202148Y-17739084D01*
X5202148Y-17739084D02*
X5183101Y-17729560D01*
X5183101Y-17729560D02*
X5173577Y-17720036D01*
X5173577Y-17720036D02*
X5164053Y-17700989D01*
X5164053Y-17700989D02*
X5154529Y-17662893D01*
X5154529Y-17662893D02*
X5154529Y-17615274D01*
X5154529Y-17615274D02*
X5164053Y-17577179D01*
X5164053Y-17577179D02*
X5173577Y-17558131D01*
X5173577Y-17558131D02*
X5183101Y-17548608D01*
X5183101Y-17548608D02*
X5202148Y-17539084D01*
X5335482Y-17539084D02*
X5459291Y-17539084D01*
X5459291Y-17539084D02*
X5392625Y-17615274D01*
X5392625Y-17615274D02*
X5421196Y-17615274D01*
X5421196Y-17615274D02*
X5440244Y-17624798D01*
X5440244Y-17624798D02*
X5449768Y-17634322D01*
X5449768Y-17634322D02*
X5459291Y-17653370D01*
X5459291Y-17653370D02*
X5459291Y-17700989D01*
X5459291Y-17700989D02*
X5449768Y-17720036D01*
X5449768Y-17720036D02*
X5440244Y-17729560D01*
X5440244Y-17729560D02*
X5421196Y-17739084D01*
X5421196Y-17739084D02*
X5364053Y-17739084D01*
X5364053Y-17739084D02*
X5345006Y-17729560D01*
X5345006Y-17729560D02*
X5335482Y-17720036D01*
X5554529Y-17739084D02*
X5592625Y-17739084D01*
X5592625Y-17739084D02*
X5611672Y-17729560D01*
X5611672Y-17729560D02*
X5621196Y-17720036D01*
X5621196Y-17720036D02*
X5640244Y-17691465D01*
X5640244Y-17691465D02*
X5649767Y-17653370D01*
X5649767Y-17653370D02*
X5649767Y-17577179D01*
X5649767Y-17577179D02*
X5640244Y-17558131D01*
X5640244Y-17558131D02*
X5630720Y-17548608D01*
X5630720Y-17548608D02*
X5611672Y-17539084D01*
X5611672Y-17539084D02*
X5573577Y-17539084D01*
X5573577Y-17539084D02*
X5554529Y-17548608D01*
X5554529Y-17548608D02*
X5545006Y-17558131D01*
X5545006Y-17558131D02*
X5535482Y-17577179D01*
X5535482Y-17577179D02*
X5535482Y-17624798D01*
X5535482Y-17624798D02*
X5545006Y-17643846D01*
X5545006Y-17643846D02*
X5554529Y-17653370D01*
X5554529Y-17653370D02*
X5573577Y-17662893D01*
X5573577Y-17662893D02*
X5611672Y-17662893D01*
X5611672Y-17662893D02*
X5630720Y-17653370D01*
X5630720Y-17653370D02*
X5640244Y-17643846D01*
X5640244Y-17643846D02*
X5649767Y-17624798D01*
X5821196Y-17605750D02*
X5821196Y-17739084D01*
X5773577Y-17529560D02*
X5725958Y-17672417D01*
X5725958Y-17672417D02*
X5849767Y-17672417D01*
X5916434Y-17539084D02*
X5916434Y-17577179D01*
X5992625Y-17539084D02*
X5992625Y-17577179D01*
X6287863Y-17815274D02*
X6278339Y-17805750D01*
X6278339Y-17805750D02*
X6259291Y-17777179D01*
X6259291Y-17777179D02*
X6249768Y-17758131D01*
X6249768Y-17758131D02*
X6240244Y-17729560D01*
X6240244Y-17729560D02*
X6230720Y-17681941D01*
X6230720Y-17681941D02*
X6230720Y-17643846D01*
X6230720Y-17643846D02*
X6240244Y-17596227D01*
X6240244Y-17596227D02*
X6249768Y-17567655D01*
X6249768Y-17567655D02*
X6259291Y-17548608D01*
X6259291Y-17548608D02*
X6278339Y-17520036D01*
X6278339Y-17520036D02*
X6287863Y-17510512D01*
X6345006Y-17539084D02*
X6478339Y-17539084D01*
X6478339Y-17539084D02*
X6392625Y-17739084D01*
X6535482Y-17539084D02*
X6668815Y-17539084D01*
X6668815Y-17539084D02*
X6583101Y-17739084D01*
X6897387Y-17739084D02*
X6897387Y-17539084D01*
X6983101Y-17739084D02*
X6983101Y-17634322D01*
X6983101Y-17634322D02*
X6973577Y-17615274D01*
X6973577Y-17615274D02*
X6954530Y-17605750D01*
X6954530Y-17605750D02*
X6925958Y-17605750D01*
X6925958Y-17605750D02*
X6906910Y-17615274D01*
X6906910Y-17615274D02*
X6897387Y-17624798D01*
X7106910Y-17739084D02*
X7087863Y-17729560D01*
X7087863Y-17729560D02*
X7078339Y-17720036D01*
X7078339Y-17720036D02*
X7068815Y-17700989D01*
X7068815Y-17700989D02*
X7068815Y-17643846D01*
X7068815Y-17643846D02*
X7078339Y-17624798D01*
X7078339Y-17624798D02*
X7087863Y-17615274D01*
X7087863Y-17615274D02*
X7106910Y-17605750D01*
X7106910Y-17605750D02*
X7135482Y-17605750D01*
X7135482Y-17605750D02*
X7154530Y-17615274D01*
X7154530Y-17615274D02*
X7164053Y-17624798D01*
X7164053Y-17624798D02*
X7173577Y-17643846D01*
X7173577Y-17643846D02*
X7173577Y-17700989D01*
X7173577Y-17700989D02*
X7164053Y-17720036D01*
X7164053Y-17720036D02*
X7154530Y-17729560D01*
X7154530Y-17729560D02*
X7135482Y-17739084D01*
X7135482Y-17739084D02*
X7106910Y-17739084D01*
X7287863Y-17739084D02*
X7268815Y-17729560D01*
X7268815Y-17729560D02*
X7259291Y-17710512D01*
X7259291Y-17710512D02*
X7259291Y-17539084D01*
X7440244Y-17729560D02*
X7421196Y-17739084D01*
X7421196Y-17739084D02*
X7383101Y-17739084D01*
X7383101Y-17739084D02*
X7364053Y-17729560D01*
X7364053Y-17729560D02*
X7354530Y-17710512D01*
X7354530Y-17710512D02*
X7354530Y-17634322D01*
X7354530Y-17634322D02*
X7364053Y-17615274D01*
X7364053Y-17615274D02*
X7383101Y-17605750D01*
X7383101Y-17605750D02*
X7421196Y-17605750D01*
X7421196Y-17605750D02*
X7440244Y-17615274D01*
X7440244Y-17615274D02*
X7449768Y-17634322D01*
X7449768Y-17634322D02*
X7449768Y-17653370D01*
X7449768Y-17653370D02*
X7354530Y-17672417D01*
X7525958Y-17729560D02*
X7545006Y-17739084D01*
X7545006Y-17739084D02*
X7583101Y-17739084D01*
X7583101Y-17739084D02*
X7602149Y-17729560D01*
X7602149Y-17729560D02*
X7611672Y-17710512D01*
X7611672Y-17710512D02*
X7611672Y-17700989D01*
X7611672Y-17700989D02*
X7602149Y-17681941D01*
X7602149Y-17681941D02*
X7583101Y-17672417D01*
X7583101Y-17672417D02*
X7554530Y-17672417D01*
X7554530Y-17672417D02*
X7535482Y-17662893D01*
X7535482Y-17662893D02*
X7525958Y-17643846D01*
X7525958Y-17643846D02*
X7525958Y-17634322D01*
X7525958Y-17634322D02*
X7535482Y-17615274D01*
X7535482Y-17615274D02*
X7554530Y-17605750D01*
X7554530Y-17605750D02*
X7583101Y-17605750D01*
X7583101Y-17605750D02*
X7602149Y-17615274D01*
X7678339Y-17815274D02*
X7687863Y-17805750D01*
X7687863Y-17805750D02*
X7706911Y-17777179D01*
X7706911Y-17777179D02*
X7716434Y-17758131D01*
X7716434Y-17758131D02*
X7725958Y-17729560D01*
X7725958Y-17729560D02*
X7735482Y-17681941D01*
X7735482Y-17681941D02*
X7735482Y-17643846D01*
X7735482Y-17643846D02*
X7725958Y-17596227D01*
X7725958Y-17596227D02*
X7716434Y-17567655D01*
X7716434Y-17567655D02*
X7706911Y-17548608D01*
X7706911Y-17548608D02*
X7687863Y-17520036D01*
X7687863Y-17520036D02*
X7678339Y-17510512D01*
D13*
X2647800Y-17846600D02*
X2647800Y-17976600D01*
X2582800Y-17911600D02*
X2712800Y-17911600D01*
D11*
X3078339Y-18003084D02*
X2964053Y-18003084D01*
X3021196Y-18003084D02*
X3021196Y-17803084D01*
X3021196Y-17803084D02*
X3002148Y-17831655D01*
X3002148Y-17831655D02*
X2983101Y-17850703D01*
X2983101Y-17850703D02*
X2964053Y-17860227D01*
X3164053Y-17984036D02*
X3173577Y-17993560D01*
X3173577Y-17993560D02*
X3164053Y-18003084D01*
X3164053Y-18003084D02*
X3154529Y-17993560D01*
X3154529Y-17993560D02*
X3164053Y-17984036D01*
X3164053Y-17984036D02*
X3164053Y-18003084D01*
X3240243Y-17803084D02*
X3364053Y-17803084D01*
X3364053Y-17803084D02*
X3297386Y-17879274D01*
X3297386Y-17879274D02*
X3325958Y-17879274D01*
X3325958Y-17879274D02*
X3345005Y-17888798D01*
X3345005Y-17888798D02*
X3354529Y-17898322D01*
X3354529Y-17898322D02*
X3364053Y-17917370D01*
X3364053Y-17917370D02*
X3364053Y-17964989D01*
X3364053Y-17964989D02*
X3354529Y-17984036D01*
X3354529Y-17984036D02*
X3345005Y-17993560D01*
X3345005Y-17993560D02*
X3325958Y-18003084D01*
X3325958Y-18003084D02*
X3268815Y-18003084D01*
X3268815Y-18003084D02*
X3249767Y-17993560D01*
X3249767Y-17993560D02*
X3240243Y-17984036D01*
X3487862Y-17803084D02*
X3506910Y-17803084D01*
X3506910Y-17803084D02*
X3525958Y-17812608D01*
X3525958Y-17812608D02*
X3535482Y-17822131D01*
X3535482Y-17822131D02*
X3545005Y-17841179D01*
X3545005Y-17841179D02*
X3554529Y-17879274D01*
X3554529Y-17879274D02*
X3554529Y-17926893D01*
X3554529Y-17926893D02*
X3545005Y-17964989D01*
X3545005Y-17964989D02*
X3535482Y-17984036D01*
X3535482Y-17984036D02*
X3525958Y-17993560D01*
X3525958Y-17993560D02*
X3506910Y-18003084D01*
X3506910Y-18003084D02*
X3487862Y-18003084D01*
X3487862Y-18003084D02*
X3468815Y-17993560D01*
X3468815Y-17993560D02*
X3459291Y-17984036D01*
X3459291Y-17984036D02*
X3449767Y-17964989D01*
X3449767Y-17964989D02*
X3440243Y-17926893D01*
X3440243Y-17926893D02*
X3440243Y-17879274D01*
X3440243Y-17879274D02*
X3449767Y-17841179D01*
X3449767Y-17841179D02*
X3459291Y-17822131D01*
X3459291Y-17822131D02*
X3468815Y-17812608D01*
X3468815Y-17812608D02*
X3487862Y-17803084D01*
X3678339Y-17803084D02*
X3697386Y-17803084D01*
X3697386Y-17803084D02*
X3716434Y-17812608D01*
X3716434Y-17812608D02*
X3725958Y-17822131D01*
X3725958Y-17822131D02*
X3735482Y-17841179D01*
X3735482Y-17841179D02*
X3745005Y-17879274D01*
X3745005Y-17879274D02*
X3745005Y-17926893D01*
X3745005Y-17926893D02*
X3735482Y-17964989D01*
X3735482Y-17964989D02*
X3725958Y-17984036D01*
X3725958Y-17984036D02*
X3716434Y-17993560D01*
X3716434Y-17993560D02*
X3697386Y-18003084D01*
X3697386Y-18003084D02*
X3678339Y-18003084D01*
X3678339Y-18003084D02*
X3659291Y-17993560D01*
X3659291Y-17993560D02*
X3649767Y-17984036D01*
X3649767Y-17984036D02*
X3640243Y-17964989D01*
X3640243Y-17964989D02*
X3630720Y-17926893D01*
X3630720Y-17926893D02*
X3630720Y-17879274D01*
X3630720Y-17879274D02*
X3640243Y-17841179D01*
X3640243Y-17841179D02*
X3649767Y-17822131D01*
X3649767Y-17822131D02*
X3659291Y-17812608D01*
X3659291Y-17812608D02*
X3678339Y-17803084D01*
X3830720Y-18003084D02*
X3830720Y-17869750D01*
X3830720Y-17888798D02*
X3840243Y-17879274D01*
X3840243Y-17879274D02*
X3859291Y-17869750D01*
X3859291Y-17869750D02*
X3887863Y-17869750D01*
X3887863Y-17869750D02*
X3906910Y-17879274D01*
X3906910Y-17879274D02*
X3916434Y-17898322D01*
X3916434Y-17898322D02*
X3916434Y-18003084D01*
X3916434Y-17898322D02*
X3925958Y-17879274D01*
X3925958Y-17879274D02*
X3945005Y-17869750D01*
X3945005Y-17869750D02*
X3973577Y-17869750D01*
X3973577Y-17869750D02*
X3992624Y-17879274D01*
X3992624Y-17879274D02*
X4002148Y-17898322D01*
X4002148Y-17898322D02*
X4002148Y-18003084D01*
X4097386Y-18003084D02*
X4097386Y-17869750D01*
X4097386Y-17888798D02*
X4106910Y-17879274D01*
X4106910Y-17879274D02*
X4125958Y-17869750D01*
X4125958Y-17869750D02*
X4154529Y-17869750D01*
X4154529Y-17869750D02*
X4173577Y-17879274D01*
X4173577Y-17879274D02*
X4183101Y-17898322D01*
X4183101Y-17898322D02*
X4183101Y-18003084D01*
X4183101Y-17898322D02*
X4192624Y-17879274D01*
X4192624Y-17879274D02*
X4211672Y-17869750D01*
X4211672Y-17869750D02*
X4240244Y-17869750D01*
X4240244Y-17869750D02*
X4259291Y-17879274D01*
X4259291Y-17879274D02*
X4268815Y-17898322D01*
X4268815Y-17898322D02*
X4268815Y-18003084D01*
X4659291Y-17793560D02*
X4487863Y-18050703D01*
X4916434Y-17803084D02*
X4935482Y-17803084D01*
X4935482Y-17803084D02*
X4954529Y-17812608D01*
X4954529Y-17812608D02*
X4964053Y-17822131D01*
X4964053Y-17822131D02*
X4973577Y-17841179D01*
X4973577Y-17841179D02*
X4983101Y-17879274D01*
X4983101Y-17879274D02*
X4983101Y-17926893D01*
X4983101Y-17926893D02*
X4973577Y-17964989D01*
X4973577Y-17964989D02*
X4964053Y-17984036D01*
X4964053Y-17984036D02*
X4954529Y-17993560D01*
X4954529Y-17993560D02*
X4935482Y-18003084D01*
X4935482Y-18003084D02*
X4916434Y-18003084D01*
X4916434Y-18003084D02*
X4897387Y-17993560D01*
X4897387Y-17993560D02*
X4887863Y-17984036D01*
X4887863Y-17984036D02*
X4878339Y-17964989D01*
X4878339Y-17964989D02*
X4868815Y-17926893D01*
X4868815Y-17926893D02*
X4868815Y-17879274D01*
X4868815Y-17879274D02*
X4878339Y-17841179D01*
X4878339Y-17841179D02*
X4887863Y-17822131D01*
X4887863Y-17822131D02*
X4897387Y-17812608D01*
X4897387Y-17812608D02*
X4916434Y-17803084D01*
X5068815Y-17984036D02*
X5078339Y-17993560D01*
X5078339Y-17993560D02*
X5068815Y-18003084D01*
X5068815Y-18003084D02*
X5059291Y-17993560D01*
X5059291Y-17993560D02*
X5068815Y-17984036D01*
X5068815Y-17984036D02*
X5068815Y-18003084D01*
X5202148Y-17803084D02*
X5221196Y-17803084D01*
X5221196Y-17803084D02*
X5240244Y-17812608D01*
X5240244Y-17812608D02*
X5249768Y-17822131D01*
X5249768Y-17822131D02*
X5259291Y-17841179D01*
X5259291Y-17841179D02*
X5268815Y-17879274D01*
X5268815Y-17879274D02*
X5268815Y-17926893D01*
X5268815Y-17926893D02*
X5259291Y-17964989D01*
X5259291Y-17964989D02*
X5249768Y-17984036D01*
X5249768Y-17984036D02*
X5240244Y-17993560D01*
X5240244Y-17993560D02*
X5221196Y-18003084D01*
X5221196Y-18003084D02*
X5202148Y-18003084D01*
X5202148Y-18003084D02*
X5183101Y-17993560D01*
X5183101Y-17993560D02*
X5173577Y-17984036D01*
X5173577Y-17984036D02*
X5164053Y-17964989D01*
X5164053Y-17964989D02*
X5154529Y-17926893D01*
X5154529Y-17926893D02*
X5154529Y-17879274D01*
X5154529Y-17879274D02*
X5164053Y-17841179D01*
X5164053Y-17841179D02*
X5173577Y-17822131D01*
X5173577Y-17822131D02*
X5183101Y-17812608D01*
X5183101Y-17812608D02*
X5202148Y-17803084D01*
X5449768Y-17803084D02*
X5354529Y-17803084D01*
X5354529Y-17803084D02*
X5345006Y-17898322D01*
X5345006Y-17898322D02*
X5354529Y-17888798D01*
X5354529Y-17888798D02*
X5373577Y-17879274D01*
X5373577Y-17879274D02*
X5421196Y-17879274D01*
X5421196Y-17879274D02*
X5440244Y-17888798D01*
X5440244Y-17888798D02*
X5449768Y-17898322D01*
X5449768Y-17898322D02*
X5459291Y-17917370D01*
X5459291Y-17917370D02*
X5459291Y-17964989D01*
X5459291Y-17964989D02*
X5449768Y-17984036D01*
X5449768Y-17984036D02*
X5440244Y-17993560D01*
X5440244Y-17993560D02*
X5421196Y-18003084D01*
X5421196Y-18003084D02*
X5373577Y-18003084D01*
X5373577Y-18003084D02*
X5354529Y-17993560D01*
X5354529Y-17993560D02*
X5345006Y-17984036D01*
X5649767Y-18003084D02*
X5535482Y-18003084D01*
X5592625Y-18003084D02*
X5592625Y-17803084D01*
X5592625Y-17803084D02*
X5573577Y-17831655D01*
X5573577Y-17831655D02*
X5554529Y-17850703D01*
X5554529Y-17850703D02*
X5535482Y-17860227D01*
X5725958Y-17822131D02*
X5735482Y-17812608D01*
X5735482Y-17812608D02*
X5754529Y-17803084D01*
X5754529Y-17803084D02*
X5802148Y-17803084D01*
X5802148Y-17803084D02*
X5821196Y-17812608D01*
X5821196Y-17812608D02*
X5830720Y-17822131D01*
X5830720Y-17822131D02*
X5840244Y-17841179D01*
X5840244Y-17841179D02*
X5840244Y-17860227D01*
X5840244Y-17860227D02*
X5830720Y-17888798D01*
X5830720Y-17888798D02*
X5716434Y-18003084D01*
X5716434Y-18003084D02*
X5840244Y-18003084D01*
X5916434Y-17803084D02*
X5916434Y-17841179D01*
X5992625Y-17803084D02*
X5992625Y-17841179D01*
X6287863Y-18079274D02*
X6278339Y-18069750D01*
X6278339Y-18069750D02*
X6259291Y-18041179D01*
X6259291Y-18041179D02*
X6249768Y-18022131D01*
X6249768Y-18022131D02*
X6240244Y-17993560D01*
X6240244Y-17993560D02*
X6230720Y-17945941D01*
X6230720Y-17945941D02*
X6230720Y-17907846D01*
X6230720Y-17907846D02*
X6240244Y-17860227D01*
X6240244Y-17860227D02*
X6249768Y-17831655D01*
X6249768Y-17831655D02*
X6259291Y-17812608D01*
X6259291Y-17812608D02*
X6278339Y-17784036D01*
X6278339Y-17784036D02*
X6287863Y-17774512D01*
X6449768Y-17803084D02*
X6411672Y-17803084D01*
X6411672Y-17803084D02*
X6392625Y-17812608D01*
X6392625Y-17812608D02*
X6383101Y-17822131D01*
X6383101Y-17822131D02*
X6364053Y-17850703D01*
X6364053Y-17850703D02*
X6354529Y-17888798D01*
X6354529Y-17888798D02*
X6354529Y-17964989D01*
X6354529Y-17964989D02*
X6364053Y-17984036D01*
X6364053Y-17984036D02*
X6373577Y-17993560D01*
X6373577Y-17993560D02*
X6392625Y-18003084D01*
X6392625Y-18003084D02*
X6430720Y-18003084D01*
X6430720Y-18003084D02*
X6449768Y-17993560D01*
X6449768Y-17993560D02*
X6459291Y-17984036D01*
X6459291Y-17984036D02*
X6468815Y-17964989D01*
X6468815Y-17964989D02*
X6468815Y-17917370D01*
X6468815Y-17917370D02*
X6459291Y-17898322D01*
X6459291Y-17898322D02*
X6449768Y-17888798D01*
X6449768Y-17888798D02*
X6430720Y-17879274D01*
X6430720Y-17879274D02*
X6392625Y-17879274D01*
X6392625Y-17879274D02*
X6373577Y-17888798D01*
X6373577Y-17888798D02*
X6364053Y-17898322D01*
X6364053Y-17898322D02*
X6354529Y-17917370D01*
X6706910Y-18003084D02*
X6706910Y-17803084D01*
X6792625Y-18003084D02*
X6792625Y-17898322D01*
X6792625Y-17898322D02*
X6783101Y-17879274D01*
X6783101Y-17879274D02*
X6764053Y-17869750D01*
X6764053Y-17869750D02*
X6735482Y-17869750D01*
X6735482Y-17869750D02*
X6716434Y-17879274D01*
X6716434Y-17879274D02*
X6706910Y-17888798D01*
X6916434Y-18003084D02*
X6897387Y-17993560D01*
X6897387Y-17993560D02*
X6887863Y-17984036D01*
X6887863Y-17984036D02*
X6878339Y-17964989D01*
X6878339Y-17964989D02*
X6878339Y-17907846D01*
X6878339Y-17907846D02*
X6887863Y-17888798D01*
X6887863Y-17888798D02*
X6897387Y-17879274D01*
X6897387Y-17879274D02*
X6916434Y-17869750D01*
X6916434Y-17869750D02*
X6945006Y-17869750D01*
X6945006Y-17869750D02*
X6964053Y-17879274D01*
X6964053Y-17879274D02*
X6973577Y-17888798D01*
X6973577Y-17888798D02*
X6983101Y-17907846D01*
X6983101Y-17907846D02*
X6983101Y-17964989D01*
X6983101Y-17964989D02*
X6973577Y-17984036D01*
X6973577Y-17984036D02*
X6964053Y-17993560D01*
X6964053Y-17993560D02*
X6945006Y-18003084D01*
X6945006Y-18003084D02*
X6916434Y-18003084D01*
X7097387Y-18003084D02*
X7078339Y-17993560D01*
X7078339Y-17993560D02*
X7068815Y-17974512D01*
X7068815Y-17974512D02*
X7068815Y-17803084D01*
X7249768Y-17993560D02*
X7230720Y-18003084D01*
X7230720Y-18003084D02*
X7192625Y-18003084D01*
X7192625Y-18003084D02*
X7173577Y-17993560D01*
X7173577Y-17993560D02*
X7164053Y-17974512D01*
X7164053Y-17974512D02*
X7164053Y-17898322D01*
X7164053Y-17898322D02*
X7173577Y-17879274D01*
X7173577Y-17879274D02*
X7192625Y-17869750D01*
X7192625Y-17869750D02*
X7230720Y-17869750D01*
X7230720Y-17869750D02*
X7249768Y-17879274D01*
X7249768Y-17879274D02*
X7259291Y-17898322D01*
X7259291Y-17898322D02*
X7259291Y-17917370D01*
X7259291Y-17917370D02*
X7164053Y-17936417D01*
X7335482Y-17993560D02*
X7354530Y-18003084D01*
X7354530Y-18003084D02*
X7392625Y-18003084D01*
X7392625Y-18003084D02*
X7411672Y-17993560D01*
X7411672Y-17993560D02*
X7421196Y-17974512D01*
X7421196Y-17974512D02*
X7421196Y-17964989D01*
X7421196Y-17964989D02*
X7411672Y-17945941D01*
X7411672Y-17945941D02*
X7392625Y-17936417D01*
X7392625Y-17936417D02*
X7364053Y-17936417D01*
X7364053Y-17936417D02*
X7345006Y-17926893D01*
X7345006Y-17926893D02*
X7335482Y-17907846D01*
X7335482Y-17907846D02*
X7335482Y-17898322D01*
X7335482Y-17898322D02*
X7345006Y-17879274D01*
X7345006Y-17879274D02*
X7364053Y-17869750D01*
X7364053Y-17869750D02*
X7392625Y-17869750D01*
X7392625Y-17869750D02*
X7411672Y-17879274D01*
X7487863Y-18079274D02*
X7497387Y-18069750D01*
X7497387Y-18069750D02*
X7516434Y-18041179D01*
X7516434Y-18041179D02*
X7525958Y-18022131D01*
X7525958Y-18022131D02*
X7535482Y-17993560D01*
X7535482Y-17993560D02*
X7545006Y-17945941D01*
X7545006Y-17945941D02*
X7545006Y-17907846D01*
X7545006Y-17907846D02*
X7535482Y-17860227D01*
X7535482Y-17860227D02*
X7525958Y-17831655D01*
X7525958Y-17831655D02*
X7516434Y-17812608D01*
X7516434Y-17812608D02*
X7497387Y-17784036D01*
X7497387Y-17784036D02*
X7487863Y-17774512D01*
D14*
X2692298Y-18225098D02*
X2692298Y-18126102D01*
X2593302Y-18126102D01*
X2593302Y-18225098D01*
X2692298Y-18225098D01*
D11*
X3078339Y-18267084D02*
X2964053Y-18267084D01*
X3021196Y-18267084D02*
X3021196Y-18067084D01*
X3021196Y-18067084D02*
X3002148Y-18095655D01*
X3002148Y-18095655D02*
X2983101Y-18114703D01*
X2983101Y-18114703D02*
X2964053Y-18124227D01*
X3164053Y-18248036D02*
X3173577Y-18257560D01*
X3173577Y-18257560D02*
X3164053Y-18267084D01*
X3164053Y-18267084D02*
X3154529Y-18257560D01*
X3154529Y-18257560D02*
X3164053Y-18248036D01*
X3164053Y-18248036D02*
X3164053Y-18267084D01*
X3345005Y-18133750D02*
X3345005Y-18267084D01*
X3297386Y-18057560D02*
X3249767Y-18200417D01*
X3249767Y-18200417D02*
X3373577Y-18200417D01*
X3487862Y-18067084D02*
X3506910Y-18067084D01*
X3506910Y-18067084D02*
X3525958Y-18076608D01*
X3525958Y-18076608D02*
X3535482Y-18086131D01*
X3535482Y-18086131D02*
X3545005Y-18105179D01*
X3545005Y-18105179D02*
X3554529Y-18143274D01*
X3554529Y-18143274D02*
X3554529Y-18190893D01*
X3554529Y-18190893D02*
X3545005Y-18228989D01*
X3545005Y-18228989D02*
X3535482Y-18248036D01*
X3535482Y-18248036D02*
X3525958Y-18257560D01*
X3525958Y-18257560D02*
X3506910Y-18267084D01*
X3506910Y-18267084D02*
X3487862Y-18267084D01*
X3487862Y-18267084D02*
X3468815Y-18257560D01*
X3468815Y-18257560D02*
X3459291Y-18248036D01*
X3459291Y-18248036D02*
X3449767Y-18228989D01*
X3449767Y-18228989D02*
X3440243Y-18190893D01*
X3440243Y-18190893D02*
X3440243Y-18143274D01*
X3440243Y-18143274D02*
X3449767Y-18105179D01*
X3449767Y-18105179D02*
X3459291Y-18086131D01*
X3459291Y-18086131D02*
X3468815Y-18076608D01*
X3468815Y-18076608D02*
X3487862Y-18067084D01*
X3678339Y-18067084D02*
X3697386Y-18067084D01*
X3697386Y-18067084D02*
X3716434Y-18076608D01*
X3716434Y-18076608D02*
X3725958Y-18086131D01*
X3725958Y-18086131D02*
X3735482Y-18105179D01*
X3735482Y-18105179D02*
X3745005Y-18143274D01*
X3745005Y-18143274D02*
X3745005Y-18190893D01*
X3745005Y-18190893D02*
X3735482Y-18228989D01*
X3735482Y-18228989D02*
X3725958Y-18248036D01*
X3725958Y-18248036D02*
X3716434Y-18257560D01*
X3716434Y-18257560D02*
X3697386Y-18267084D01*
X3697386Y-18267084D02*
X3678339Y-18267084D01*
X3678339Y-18267084D02*
X3659291Y-18257560D01*
X3659291Y-18257560D02*
X3649767Y-18248036D01*
X3649767Y-18248036D02*
X3640243Y-18228989D01*
X3640243Y-18228989D02*
X3630720Y-18190893D01*
X3630720Y-18190893D02*
X3630720Y-18143274D01*
X3630720Y-18143274D02*
X3640243Y-18105179D01*
X3640243Y-18105179D02*
X3649767Y-18086131D01*
X3649767Y-18086131D02*
X3659291Y-18076608D01*
X3659291Y-18076608D02*
X3678339Y-18067084D01*
X3830720Y-18267084D02*
X3830720Y-18133750D01*
X3830720Y-18152798D02*
X3840243Y-18143274D01*
X3840243Y-18143274D02*
X3859291Y-18133750D01*
X3859291Y-18133750D02*
X3887863Y-18133750D01*
X3887863Y-18133750D02*
X3906910Y-18143274D01*
X3906910Y-18143274D02*
X3916434Y-18162322D01*
X3916434Y-18162322D02*
X3916434Y-18267084D01*
X3916434Y-18162322D02*
X3925958Y-18143274D01*
X3925958Y-18143274D02*
X3945005Y-18133750D01*
X3945005Y-18133750D02*
X3973577Y-18133750D01*
X3973577Y-18133750D02*
X3992624Y-18143274D01*
X3992624Y-18143274D02*
X4002148Y-18162322D01*
X4002148Y-18162322D02*
X4002148Y-18267084D01*
X4097386Y-18267084D02*
X4097386Y-18133750D01*
X4097386Y-18152798D02*
X4106910Y-18143274D01*
X4106910Y-18143274D02*
X4125958Y-18133750D01*
X4125958Y-18133750D02*
X4154529Y-18133750D01*
X4154529Y-18133750D02*
X4173577Y-18143274D01*
X4173577Y-18143274D02*
X4183101Y-18162322D01*
X4183101Y-18162322D02*
X4183101Y-18267084D01*
X4183101Y-18162322D02*
X4192624Y-18143274D01*
X4192624Y-18143274D02*
X4211672Y-18133750D01*
X4211672Y-18133750D02*
X4240244Y-18133750D01*
X4240244Y-18133750D02*
X4259291Y-18143274D01*
X4259291Y-18143274D02*
X4268815Y-18162322D01*
X4268815Y-18162322D02*
X4268815Y-18267084D01*
X4659291Y-18057560D02*
X4487863Y-18314703D01*
X4916434Y-18067084D02*
X4935482Y-18067084D01*
X4935482Y-18067084D02*
X4954529Y-18076608D01*
X4954529Y-18076608D02*
X4964053Y-18086131D01*
X4964053Y-18086131D02*
X4973577Y-18105179D01*
X4973577Y-18105179D02*
X4983101Y-18143274D01*
X4983101Y-18143274D02*
X4983101Y-18190893D01*
X4983101Y-18190893D02*
X4973577Y-18228989D01*
X4973577Y-18228989D02*
X4964053Y-18248036D01*
X4964053Y-18248036D02*
X4954529Y-18257560D01*
X4954529Y-18257560D02*
X4935482Y-18267084D01*
X4935482Y-18267084D02*
X4916434Y-18267084D01*
X4916434Y-18267084D02*
X4897387Y-18257560D01*
X4897387Y-18257560D02*
X4887863Y-18248036D01*
X4887863Y-18248036D02*
X4878339Y-18228989D01*
X4878339Y-18228989D02*
X4868815Y-18190893D01*
X4868815Y-18190893D02*
X4868815Y-18143274D01*
X4868815Y-18143274D02*
X4878339Y-18105179D01*
X4878339Y-18105179D02*
X4887863Y-18086131D01*
X4887863Y-18086131D02*
X4897387Y-18076608D01*
X4897387Y-18076608D02*
X4916434Y-18067084D01*
X5068815Y-18248036D02*
X5078339Y-18257560D01*
X5078339Y-18257560D02*
X5068815Y-18267084D01*
X5068815Y-18267084D02*
X5059291Y-18257560D01*
X5059291Y-18257560D02*
X5068815Y-18248036D01*
X5068815Y-18248036D02*
X5068815Y-18267084D01*
X5202148Y-18067084D02*
X5221196Y-18067084D01*
X5221196Y-18067084D02*
X5240244Y-18076608D01*
X5240244Y-18076608D02*
X5249768Y-18086131D01*
X5249768Y-18086131D02*
X5259291Y-18105179D01*
X5259291Y-18105179D02*
X5268815Y-18143274D01*
X5268815Y-18143274D02*
X5268815Y-18190893D01*
X5268815Y-18190893D02*
X5259291Y-18228989D01*
X5259291Y-18228989D02*
X5249768Y-18248036D01*
X5249768Y-18248036D02*
X5240244Y-18257560D01*
X5240244Y-18257560D02*
X5221196Y-18267084D01*
X5221196Y-18267084D02*
X5202148Y-18267084D01*
X5202148Y-18267084D02*
X5183101Y-18257560D01*
X5183101Y-18257560D02*
X5173577Y-18248036D01*
X5173577Y-18248036D02*
X5164053Y-18228989D01*
X5164053Y-18228989D02*
X5154529Y-18190893D01*
X5154529Y-18190893D02*
X5154529Y-18143274D01*
X5154529Y-18143274D02*
X5164053Y-18105179D01*
X5164053Y-18105179D02*
X5173577Y-18086131D01*
X5173577Y-18086131D02*
X5183101Y-18076608D01*
X5183101Y-18076608D02*
X5202148Y-18067084D01*
X5449768Y-18067084D02*
X5354529Y-18067084D01*
X5354529Y-18067084D02*
X5345006Y-18162322D01*
X5345006Y-18162322D02*
X5354529Y-18152798D01*
X5354529Y-18152798D02*
X5373577Y-18143274D01*
X5373577Y-18143274D02*
X5421196Y-18143274D01*
X5421196Y-18143274D02*
X5440244Y-18152798D01*
X5440244Y-18152798D02*
X5449768Y-18162322D01*
X5449768Y-18162322D02*
X5459291Y-18181370D01*
X5459291Y-18181370D02*
X5459291Y-18228989D01*
X5459291Y-18228989D02*
X5449768Y-18248036D01*
X5449768Y-18248036D02*
X5440244Y-18257560D01*
X5440244Y-18257560D02*
X5421196Y-18267084D01*
X5421196Y-18267084D02*
X5373577Y-18267084D01*
X5373577Y-18267084D02*
X5354529Y-18257560D01*
X5354529Y-18257560D02*
X5345006Y-18248036D01*
X5640244Y-18067084D02*
X5545006Y-18067084D01*
X5545006Y-18067084D02*
X5535482Y-18162322D01*
X5535482Y-18162322D02*
X5545006Y-18152798D01*
X5545006Y-18152798D02*
X5564053Y-18143274D01*
X5564053Y-18143274D02*
X5611672Y-18143274D01*
X5611672Y-18143274D02*
X5630720Y-18152798D01*
X5630720Y-18152798D02*
X5640244Y-18162322D01*
X5640244Y-18162322D02*
X5649767Y-18181370D01*
X5649767Y-18181370D02*
X5649767Y-18228989D01*
X5649767Y-18228989D02*
X5640244Y-18248036D01*
X5640244Y-18248036D02*
X5630720Y-18257560D01*
X5630720Y-18257560D02*
X5611672Y-18267084D01*
X5611672Y-18267084D02*
X5564053Y-18267084D01*
X5564053Y-18267084D02*
X5545006Y-18257560D01*
X5545006Y-18257560D02*
X5535482Y-18248036D01*
X5840244Y-18267084D02*
X5725958Y-18267084D01*
X5783101Y-18267084D02*
X5783101Y-18067084D01*
X5783101Y-18067084D02*
X5764053Y-18095655D01*
X5764053Y-18095655D02*
X5745006Y-18114703D01*
X5745006Y-18114703D02*
X5725958Y-18124227D01*
X5916434Y-18067084D02*
X5916434Y-18105179D01*
X5992625Y-18067084D02*
X5992625Y-18105179D01*
X6287863Y-18343274D02*
X6278339Y-18333750D01*
X6278339Y-18333750D02*
X6259291Y-18305179D01*
X6259291Y-18305179D02*
X6249768Y-18286131D01*
X6249768Y-18286131D02*
X6240244Y-18257560D01*
X6240244Y-18257560D02*
X6230720Y-18209941D01*
X6230720Y-18209941D02*
X6230720Y-18171846D01*
X6230720Y-18171846D02*
X6240244Y-18124227D01*
X6240244Y-18124227D02*
X6249768Y-18095655D01*
X6249768Y-18095655D02*
X6259291Y-18076608D01*
X6259291Y-18076608D02*
X6278339Y-18048036D01*
X6278339Y-18048036D02*
X6287863Y-18038512D01*
X6468815Y-18267084D02*
X6354529Y-18267084D01*
X6411672Y-18267084D02*
X6411672Y-18067084D01*
X6411672Y-18067084D02*
X6392625Y-18095655D01*
X6392625Y-18095655D02*
X6373577Y-18114703D01*
X6373577Y-18114703D02*
X6354529Y-18124227D01*
X6545006Y-18086131D02*
X6554529Y-18076608D01*
X6554529Y-18076608D02*
X6573577Y-18067084D01*
X6573577Y-18067084D02*
X6621196Y-18067084D01*
X6621196Y-18067084D02*
X6640244Y-18076608D01*
X6640244Y-18076608D02*
X6649768Y-18086131D01*
X6649768Y-18086131D02*
X6659291Y-18105179D01*
X6659291Y-18105179D02*
X6659291Y-18124227D01*
X6659291Y-18124227D02*
X6649768Y-18152798D01*
X6649768Y-18152798D02*
X6535482Y-18267084D01*
X6535482Y-18267084D02*
X6659291Y-18267084D01*
X6897387Y-18267084D02*
X6897387Y-18067084D01*
X6983101Y-18267084D02*
X6983101Y-18162322D01*
X6983101Y-18162322D02*
X6973577Y-18143274D01*
X6973577Y-18143274D02*
X6954530Y-18133750D01*
X6954530Y-18133750D02*
X6925958Y-18133750D01*
X6925958Y-18133750D02*
X6906910Y-18143274D01*
X6906910Y-18143274D02*
X6897387Y-18152798D01*
X7106910Y-18267084D02*
X7087863Y-18257560D01*
X7087863Y-18257560D02*
X7078339Y-18248036D01*
X7078339Y-18248036D02*
X7068815Y-18228989D01*
X7068815Y-18228989D02*
X7068815Y-18171846D01*
X7068815Y-18171846D02*
X7078339Y-18152798D01*
X7078339Y-18152798D02*
X7087863Y-18143274D01*
X7087863Y-18143274D02*
X7106910Y-18133750D01*
X7106910Y-18133750D02*
X7135482Y-18133750D01*
X7135482Y-18133750D02*
X7154530Y-18143274D01*
X7154530Y-18143274D02*
X7164053Y-18152798D01*
X7164053Y-18152798D02*
X7173577Y-18171846D01*
X7173577Y-18171846D02*
X7173577Y-18228989D01*
X7173577Y-18228989D02*
X7164053Y-18248036D01*
X7164053Y-18248036D02*
X7154530Y-18257560D01*
X7154530Y-18257560D02*
X7135482Y-18267084D01*
X7135482Y-18267084D02*
X7106910Y-18267084D01*
X7287863Y-18267084D02*
X7268815Y-18257560D01*
X7268815Y-18257560D02*
X7259291Y-18238512D01*
X7259291Y-18238512D02*
X7259291Y-18067084D01*
X7440244Y-18257560D02*
X7421196Y-18267084D01*
X7421196Y-18267084D02*
X7383101Y-18267084D01*
X7383101Y-18267084D02*
X7364053Y-18257560D01*
X7364053Y-18257560D02*
X7354530Y-18238512D01*
X7354530Y-18238512D02*
X7354530Y-18162322D01*
X7354530Y-18162322D02*
X7364053Y-18143274D01*
X7364053Y-18143274D02*
X7383101Y-18133750D01*
X7383101Y-18133750D02*
X7421196Y-18133750D01*
X7421196Y-18133750D02*
X7440244Y-18143274D01*
X7440244Y-18143274D02*
X7449768Y-18162322D01*
X7449768Y-18162322D02*
X7449768Y-18181370D01*
X7449768Y-18181370D02*
X7354530Y-18200417D01*
X7525958Y-18257560D02*
X7545006Y-18267084D01*
X7545006Y-18267084D02*
X7583101Y-18267084D01*
X7583101Y-18267084D02*
X7602149Y-18257560D01*
X7602149Y-18257560D02*
X7611672Y-18238512D01*
X7611672Y-18238512D02*
X7611672Y-18228989D01*
X7611672Y-18228989D02*
X7602149Y-18209941D01*
X7602149Y-18209941D02*
X7583101Y-18200417D01*
X7583101Y-18200417D02*
X7554530Y-18200417D01*
X7554530Y-18200417D02*
X7535482Y-18190893D01*
X7535482Y-18190893D02*
X7525958Y-18171846D01*
X7525958Y-18171846D02*
X7525958Y-18162322D01*
X7525958Y-18162322D02*
X7535482Y-18143274D01*
X7535482Y-18143274D02*
X7554530Y-18133750D01*
X7554530Y-18133750D02*
X7583101Y-18133750D01*
X7583101Y-18133750D02*
X7602149Y-18143274D01*
X7678339Y-18343274D02*
X7687863Y-18333750D01*
X7687863Y-18333750D02*
X7706911Y-18305179D01*
X7706911Y-18305179D02*
X7716434Y-18286131D01*
X7716434Y-18286131D02*
X7725958Y-18257560D01*
X7725958Y-18257560D02*
X7735482Y-18209941D01*
X7735482Y-18209941D02*
X7735482Y-18171846D01*
X7735482Y-18171846D02*
X7725958Y-18124227D01*
X7725958Y-18124227D02*
X7716434Y-18095655D01*
X7716434Y-18095655D02*
X7706911Y-18076608D01*
X7706911Y-18076608D02*
X7687863Y-18048036D01*
X7687863Y-18048036D02*
X7678339Y-18038512D01*
M02*
