G04 #@! TF.GenerationSoftware,KiCad,Pcbnew,7.0.8*
G04 #@! TF.CreationDate,2023-11-03T15:57:49-04:00*
G04 #@! TF.ProjectId,GoodBotControlBoard,476f6f64-426f-4744-936f-6e74726f6c42,rev?*
G04 #@! TF.SameCoordinates,Original*
G04 #@! TF.FileFunction,Soldermask,Bot*
G04 #@! TF.FilePolarity,Negative*
%FSLAX46Y46*%
G04 Gerber Fmt 4.6, Leading zero omitted, Abs format (unit mm)*
G04 Created by KiCad (PCBNEW 7.0.8) date 2023-11-03 15:57:49*
%MOMM*%
%LPD*%
G01*
G04 APERTURE LIST*
%ADD10R,1.700000X1.700000*%
%ADD11O,1.700000X1.700000*%
%ADD12C,2.100000*%
%ADD13C,1.950000*%
G04 APERTURE END LIST*
D10*
G04 #@! TO.C,J31*
X109169200Y-84277200D03*
D11*
X111709200Y-84277200D03*
X114249200Y-84277200D03*
X116789200Y-84277200D03*
X119329200Y-84277200D03*
G04 #@! TD*
D10*
G04 #@! TO.C,J26*
X96062800Y-156006800D03*
D11*
X98602800Y-156006800D03*
X101142800Y-156006800D03*
X103682800Y-156006800D03*
X106222800Y-156006800D03*
X108762800Y-156006800D03*
X111302800Y-156006800D03*
G04 #@! TD*
D10*
G04 #@! TO.C,J21*
X145135600Y-148691600D03*
D11*
X147675600Y-148691600D03*
X150215600Y-148691600D03*
X152755600Y-148691600D03*
X155295600Y-148691600D03*
X157835600Y-148691600D03*
X160375600Y-148691600D03*
G04 #@! TD*
D10*
G04 #@! TO.C,J16*
X140711000Y-102666800D03*
D11*
X143251000Y-102666800D03*
X145791000Y-102666800D03*
X148331000Y-102666800D03*
X150871000Y-102666800D03*
X153411000Y-102666800D03*
X155951000Y-102666800D03*
G04 #@! TD*
D10*
G04 #@! TO.C,J11*
X68082000Y-79413000D03*
D11*
X70622000Y-79413000D03*
X73162000Y-79413000D03*
X75702000Y-79413000D03*
X78242000Y-79413000D03*
X80782000Y-79413000D03*
X83322000Y-79413000D03*
G04 #@! TD*
D10*
G04 #@! TO.C,J9*
X148183600Y-109829600D03*
D11*
X145643600Y-109829600D03*
X143103600Y-109829600D03*
X140563600Y-109829600D03*
X138023600Y-109829600D03*
G04 #@! TD*
D10*
G04 #@! TO.C,J8*
X146710400Y-125780800D03*
D11*
X144170400Y-125780800D03*
X141630400Y-125780800D03*
X139090400Y-125780800D03*
X136550400Y-125780800D03*
G04 #@! TD*
D10*
G04 #@! TO.C,J7*
X146812000Y-115519200D03*
D11*
X144272000Y-115519200D03*
X141732000Y-115519200D03*
X139192000Y-115519200D03*
X136652000Y-115519200D03*
G04 #@! TD*
D10*
G04 #@! TO.C,J6*
X114505000Y-147600000D03*
D11*
X117045000Y-147600000D03*
X119585000Y-147600000D03*
X122125000Y-147600000D03*
X124665000Y-147600000D03*
G04 #@! TD*
D10*
G04 #@! TO.C,J5*
X92202000Y-140665200D03*
D11*
X94742000Y-140665200D03*
X97282000Y-140665200D03*
X99822000Y-140665200D03*
X102362000Y-140665200D03*
G04 #@! TD*
D10*
G04 #@! TO.C,J3*
X112430400Y-98602800D03*
D11*
X114970400Y-98602800D03*
X117510400Y-98602800D03*
X120050400Y-98602800D03*
G04 #@! TD*
D10*
G04 #@! TO.C,J2*
X106070400Y-89408000D03*
D11*
X103530400Y-89408000D03*
X100990400Y-89408000D03*
X98450400Y-89408000D03*
X95910400Y-89408000D03*
X93370400Y-89408000D03*
X90830400Y-89408000D03*
X88290400Y-89408000D03*
G04 #@! TD*
D10*
G04 #@! TO.C,J1*
X75641200Y-99415600D03*
D11*
X78181200Y-99415600D03*
X80721200Y-99415600D03*
G04 #@! TD*
D10*
G04 #@! TO.C,J17*
X163967200Y-66201200D03*
G04 #@! TD*
D12*
G04 #@! TO.C,J25*
X49022000Y-142290800D03*
X49022000Y-147290800D03*
X49022000Y-152290800D03*
G04 #@! TD*
G04 #@! TO.C,J10*
X49377600Y-26017200D03*
X49377600Y-31017200D03*
X49377600Y-36017200D03*
G04 #@! TD*
D13*
G04 #@! TO.C,J32*
X114930000Y-27228800D03*
X105410000Y-27228800D03*
G04 #@! TD*
D10*
G04 #@! TO.C,J27*
X77165200Y-153314400D03*
G04 #@! TD*
G04 #@! TO.C,J12*
X67843400Y-69519800D03*
G04 #@! TD*
G04 #@! TO.C,J22*
X139801600Y-142849600D03*
G04 #@! TD*
D13*
G04 #@! TO.C,J33*
X86004400Y-27228800D03*
X76484400Y-27228800D03*
G04 #@! TD*
D12*
G04 #@! TO.C,J20*
X186029600Y-151833600D03*
X186029600Y-146833600D03*
X186029600Y-141833600D03*
G04 #@! TD*
D13*
G04 #@! TO.C,J30*
X151333200Y-85039200D03*
X151333200Y-94559200D03*
G04 #@! TD*
D12*
G04 #@! TO.C,J15*
X186295000Y-30250000D03*
X186295000Y-25250000D03*
X186295000Y-20250000D03*
G04 #@! TD*
M02*
